<svg width="40" height="40" viewBox="0 0 40 40" fill="none" xmlns="http://www.w3.org/2000/svg">
<path d="M37.9687 2.03129C37.3248 1.3873 36.5604 0.876451 35.7191 0.52792C34.8778 0.179388 33.976 0 33.0654 0C32.1547 0 31.253 0.179388 30.4117 0.52792C29.5704 0.876451 28.8059 1.3873 28.1621 2.03129L13.6122 16.5812C13.4423 16.7504 13.3216 16.9625 13.263 17.1949L10.6175 27.7767C10.5624 27.9981 10.5655 28.2301 10.6265 28.45C10.6875 28.6699 10.8044 28.8702 10.9658 29.0316C11.1271 29.193 11.3275 29.3098 11.5474 29.3709C11.7673 29.4319 11.9992 29.435 12.2207 29.3798L22.8024 26.7344C23.0355 26.677 23.2486 26.5571 23.4188 26.3878L37.9687 11.8379C38.6127 11.1941 39.1235 10.4296 39.4721 9.58832C39.8206 8.747 40 7.84526 40 6.93461C40 6.02395 39.8206 5.12222 39.4721 4.2809C39.1235 3.43958 38.6127 2.67516 37.9687 2.03129ZM30.0324 3.90161C30.8368 3.09721 31.9278 2.64531 33.0654 2.64531C34.203 2.64531 35.294 3.09721 36.0984 3.90161C36.9028 4.70601 37.3547 5.79702 37.3547 6.93461C37.3547 8.0722 36.9028 9.1632 36.0984 9.9676L21.8051 24.2583L13.718 26.2794L15.7391 18.1923L30.0324 3.90161ZM18.5142 5.61057C19.2549 5.61057 19.9797 5.66348 20.6914 5.75871L22.9506 3.49951C19.0235 2.53139 14.8875 2.8756 11.1745 4.47954C7.46154 6.08348 4.37578 8.85894 2.38876 12.3818C0.40175 15.9047 -0.377242 19.9813 0.170823 23.9886C0.718888 27.9959 2.56387 31.7135 5.42384 34.5735C8.28381 37.4335 12.0015 39.2785 16.0088 39.8265C20.0161 40.3746 24.0927 39.5956 27.6155 37.6086C31.1384 35.6216 33.9139 32.5358 35.5178 28.8228C37.1217 25.1098 37.466 20.9738 36.4978 17.0468L34.2386 19.306C34.682 22.5077 34.1373 25.7685 32.6774 28.6523C31.2175 31.5362 28.9119 33.9055 26.069 35.4436C23.2261 36.9817 19.9814 37.6152 16.7688 37.2594C13.5561 36.9035 10.5287 35.5754 8.09125 33.4525C5.65383 31.3296 3.92263 28.5131 3.12913 25.3797C2.33564 22.2464 2.51769 18.9454 3.65092 15.9183C4.78416 12.8911 6.81457 10.2821 9.47065 8.44015C12.1267 6.59815 15.2819 5.61095 18.5142 5.61057Z" fill="#03669A"/>
</svg>
