<svg width="18" height="30" viewBox="0 0 18 30" fill="none" xmlns="http://www.w3.org/2000/svg">
<path d="M15 9.75H18C18 5.4945 13.8675 3.5535 10.5 3.1065V0H7.5V3.1065C4.1325 3.5535 0 5.4945 0 9.75C0 13.809 3.999 15.9195 7.5 16.395V23.85C5.328 23.4735 3 22.314 3 20.25H0C0 24.1335 3.6375 26.4285 7.5 26.904V30H10.5V26.895C13.8675 26.448 18 24.5055 18 20.25C18 15.9945 13.8675 14.0535 10.5 13.6065V6.15C12.495 6.5085 15 7.5615 15 9.75ZM3 9.75C3 7.5615 5.505 6.5085 7.5 6.15V13.3485C5.4435 12.969 3 11.8455 3 9.75ZM15 20.25C15 22.4385 12.495 23.4915 10.5 23.85V16.65C12.495 17.0085 15 18.0615 15 20.25Z" fill="#03669A"/>
</svg>
