<svg width="645" height="352" fill="none" xmlns="http://www.w3.org/2000/svg"><path d="M71.571 301.86c23.238-10.865 32.376-36.722 35.573-60.809.53-4.023 1.683-8.166.344-11.993-1.338-3.827-5.419-6.983-9.295-5.903-3.244.931-5.131 4.125-7.288 6.704a23.828 23.828 0 0 1-10.987 7.365c-2.788.931-6.116 1.164-8.43-.652-3.17-2.486-2.789-7.318-2.092-11.294 1.295-7.399 2.584-14.801 3.867-22.207.697-3.966 1.385-8.026.771-12.011-.613-3.985-2.788-7.951-6.45-9.655-3.663-1.704-8.747-.307-10.225 3.445-.605 1.564-.558 3.305-.93 4.935-.372 1.629-1.478 3.324-3.142 3.519-1.663.196-3.104-1.201-4.108-2.56-3.477-4.712-5.429-10.354-7.204-15.941-1.775-5.586-3.44-11.275-6.507-16.284-3.067-5.01-7.668-9.311-13.376-10.643-5.707-1.331-12.427 1.192-14.826 6.518-2.398 5.326 0 11.601 2.789 16.76a90.798 90.798 0 0 0 15.737 20.744c1.125 1.108 2.333 2.3 2.575 3.855.427 2.793-2.556 5-5.345 5.428-3.17.484-6.367-.372-9.565-.53-3.198-.159-6.823.642-8.505 3.37-2.324 3.79.4 8.622 3.309 11.983a78.24 78.24 0 0 0 20.589 16.76c2.789 1.574 5.735 3.035 7.78 5.484s2.882 6.276.976 8.827c-1.905 2.551-5.763 2.84-8.775 1.76-3.011-1.08-5.493-3.222-8.263-4.814-5.187-2.989-12.381-3.808-16.732.316C.992 247.056.062 251.339.62 255.241c.558 3.901 2.408 7.448 4.453 10.847 7.138 11.76 17.094 21.936 29.178 28.473 12.084 6.536 23.768 9.73 37.283 7.253" fill="#EBEBEB"/><path d="M67.77 285.809a358.707 358.707 0 0 0-7.883-40.745l-2.621-10.587c-.864-3.473-1.72-6.908-2.789-10.242a181.316 181.316 0 0 0-7.138-18.705c-2.566-5.848-5.206-11.304-7.725-16.388-2.519-5.083-4.954-9.767-7.371-13.966a145.488 145.488 0 0 0-12.818-18.892c-1.692-2.104-3.05-3.724-3.979-4.767-.455-.512-.818-.931-1.069-1.211a4.852 4.852 0 0 0-.38-.391s.102.149.334.438l1.023 1.248c.929 1.089 2.23 2.709 3.885 4.832A152.426 152.426 0 0 1 31.87 175.39c2.38 4.19 4.797 8.883 7.297 13.967 2.5 5.083 5.112 10.549 7.66 16.387a185.023 185.023 0 0 1 7.082 18.622c1.041 3.305 1.86 6.722 2.789 10.195l2.603 10.633a365.22 365.22 0 0 1 7.91 40.68" fill="#E0E0E0"/><path d="M54.403 224.17a9.653 9.653 0 0 0 .65-1.639c.382-1.061.93-2.625 1.506-4.562 1.218-3.864 2.733-9.255 4.378-15.214 1.646-5.959 3.254-11.313 4.555-15.14.641-1.918 1.18-3.463 1.571-4.525.239-.541.42-1.106.54-1.685a10.552 10.552 0 0 0-.754 1.592c-.465 1.043-1.069 2.57-1.766 4.469-1.404 3.808-3.077 9.162-4.731 15.13-1.655 5.969-3.16 11.248-4.248 15.252l-1.33 4.609a9.174 9.174 0 0 0-.371 1.713ZM4.208 205.948c.162.089.338.149.52.177l1.506.391c1.311.326 3.207.801 5.531 1.462 4.648 1.285 11.024 3.296 17.95 5.829 6.924 2.532 13.087 5.112 17.493 7.104 2.203.987 3.97 1.862 5.196 2.402l1.404.661c.162.093.337.159.52.196a1.853 1.853 0 0 0-.455-.298l-1.33-.764a104.658 104.658 0 0 0-5.121-2.588c-4.36-2.095-10.522-4.739-17.457-7.281a188.696 188.696 0 0 0-18.051-5.67 91.979 91.979 0 0 0-5.577-1.285l-1.534-.28a2.02 2.02 0 0 0-.595-.056ZM67.36 284.756c.17-.176.319-.369.447-.577l1.18-1.741c1.023-1.49 2.454-3.724 4.183-6.397 3.467-5.447 8.022-13.11 12.94-21.638 4.916-8.529 9.415-16.211 12.78-21.713l4.016-6.518 1.087-1.769a3.34 3.34 0 0 0 .344-.643 4.442 4.442 0 0 0-.446.568l-1.153 1.779c-1.022 1.48-2.453 3.668-4.182 6.396-3.468 5.438-8.022 13.11-12.94 21.639-4.917 8.529-9.444 16.192-12.808 21.704l-4.016 6.517-1.088 1.769a3.389 3.389 0 0 0-.343.624Z" fill="#E0E0E0"/><path d="M2.35 251.349c.198.147.414.272.64.372l1.86.987 6.971 3.575c5.884 3.017 13.943 7.291 22.876 12.039 8.932 4.749 17.029 8.958 22.968 11.881a292.055 292.055 0 0 0 7.065 3.399l1.943.884c.221.116.455.206.697.27a3.566 3.566 0 0 0-.642-.381l-1.859-.987-6.971-3.567c-5.884-3.026-13.943-7.299-22.876-12.039-8.933-4.739-17.029-8.966-22.969-11.89-2.974-1.461-5.382-2.625-7.064-3.398l-1.943-.875a3.36 3.36 0 0 0-.697-.27Z" fill="#E0E0E0"/><path d="M612.446 0H103.584v307.168h508.862V0Z" fill="#F5F5F5"/><path d="M596.644 15.829H87.782v307.167h508.862V15.829Z" fill="#EBEBEB"/><path d="M46.223 303.797a15.456 15.456 0 0 0-8.366 4.851 7.977 7.977 0 0 0-2.528 4.562c-.158 1.76 1.04 3.725 2.788 3.827a4.562 4.562 0 0 0 2.854-1.192c2.017-1.554 4.006-3.612 6.507-3.612 1.45 0 2.937.707 4.303.214a3.287 3.287 0 0 0 1.925-3.454 5.586 5.586 0 0 0-2.092-3.557 6.332 6.332 0 0 0-5.391-1.639ZM43.815 289.402c.103 3.129-3.188 4.535-5.41 4.255-2.221-.279-4.127-1.676-5.92-3.026-4.09-3.091-8.366-6.368-10.504-11.024a8.39 8.39 0 0 1-.93-4.45 4.397 4.397 0 0 1 2.491-3.604c1.683-.689 3.588 0 5.196.866a36.089 36.089 0 0 1 12.084 10.242c1.497 1.983 2.789 4.255 2.947 6.741M49.941 289.384a9.302 9.302 0 0 1-6.293-6.015 16.582 16.582 0 0 1-.362-8.939 27.318 27.318 0 0 1 4.034-9.683 9.671 9.671 0 0 1 2.844-3.007 4.26 4.26 0 0 1 3.988-.41c1.859.884 2.454 3.212 2.788 5.251.513 3.592.743 7.219.688 10.847 0 2.924-.316 5.978-1.859 8.445-1.543 2.468-3.885 4.079-6.172 3.436" fill="#C44E32"/><path d="M67.063 320.194a4.854 4.854 0 0 1-.827-.829l-2.147-2.356a44.382 44.382 0 0 0-3.365-3.286 34.786 34.786 0 0 0-4.648-3.38 20.239 20.239 0 0 0-5.215-2.291 10.372 10.372 0 0 0-4.647-.223 9.672 9.672 0 0 0-2.947 1.052c-.32.222-.662.41-1.022.559a5.49 5.49 0 0 1 .93-.727 9.133 9.133 0 0 1 2.974-1.219 10.426 10.426 0 0 1 4.768.13 19.856 19.856 0 0 1 5.364 2.309 33.598 33.598 0 0 1 4.694 3.454 41.102 41.102 0 0 1 3.318 3.399c.93 1.015 1.571 1.862 2.036 2.458.28.287.527.606.734.95Z" fill="#263238"/><path d="M65.427 318.378s-.14-.13-.353-.41l-.93-1.238c-.8-1.071-1.961-2.626-3.458-4.497-2.965-3.725-6.376-7.626-11.368-12.952-4.703-5.009-10.271-10.754-14.222-14.245-.93-.801-1.71-1.509-2.435-2.114-.725-.605-1.348-1.155-1.859-1.574l-1.19-.977c-.27-.233-.4-.354-.39-.373.16.085.313.185.455.298l1.236.931c.549.392 1.19.932 1.925 1.509a66.03 66.03 0 0 1 2.49 2.067c4.72 4.1 9.217 8.451 13.47 13.035 5 5.335 9.295 10.419 12.167 14.237a82.308 82.308 0 0 1 3.337 4.59c.353.521.632.931.855 1.294.102.132.192.272.27.419Z" fill="#263238"/><path d="M57.73 308.183a12.45 12.45 0 0 1-.929-1.304 44.943 44.943 0 0 1-2.221-3.78 59.926 59.926 0 0 1-2.687-5.941 53.764 53.764 0 0 1-2.389-7.625 40.227 40.227 0 0 1-1.06-14.423c.095-.831.244-1.655.447-2.467.084-.363.14-.699.223-1.006.084-.307.195-.568.279-.819.15-.515.336-1.02.557-1.509a50.658 50.658 0 0 0-1.17 5.848 42.303 42.303 0 0 0 1.161 14.264 59.076 59.076 0 0 0 2.343 7.57 64.177 64.177 0 0 0 4.647 9.776c.31.447.577.92.8 1.416Z" fill="#263238"/><path d="M642.358 167.476s-5.717-4.162-13.515 9.636c-7.799 13.799-10.876 21.816-10.876 21.816s-2.026 2.868-3.969.847c-1.943-2.02-4.48-7.625-7.966-6.787-3.625.865-4.973 4.804-4.555 10.707.419 5.903.93 18.864.93 20.037 0 1.173-.697 2.794-2.24 1.648-1.543-1.145-10.225-11.787-15.031-7.346-4.805 4.441-.929 20.689-.52 22.477.409 1.787 0 2.514-.837 2.914-.836.4-3.448-3.445-6.051-6.36-2.603-2.914-6.135-5.837-8.682-3.044-2.547 2.793-3.839 14.795 6.739 34.851l5.503 8.975 10.569-.121c22.578-1.638 32.059-9.106 33.072-12.746 1.014-3.641-3.327-5.093-7.176-5.754-3.848-.662-8.477-.829-8.598-1.76-.121-.931.316-1.658 2.027-2.272 1.71-.615 17.531-5.922 18.758-12.337 1.227-6.415-12.382-8.194-14.185-8.883-1.803-.689-.79-2.197.204-2.793.995-.596 12.233-7.076 17.448-9.842 5.214-2.765 7.845-6.005 6.664-9.534-1.18-3.529-7.231-2.598-9.973-3.175-2.743-.577-1.385-3.818-1.385-3.818s5.158-6.862 12.706-20.8c7.548-13.939.818-16.62.818-16.62" fill="#C44E32"/><path d="M635.359 179.822a2.785 2.785 0 0 1-.14.298c-.111.205-.26.493-.446.866l-1.757 3.305a1049.77 1049.77 0 0 1-6.572 12.104c-5.577 10.243-13.403 24.255-22.104 39.73a9229.116 9229.116 0 0 0-22.206 39.711c-2.789 5.084-5.075 9.2-6.665 12.058-.781 1.415-1.385 2.514-1.859 3.278l-.474.847c-.112.195-.177.288-.177.288.041-.102.088-.201.14-.298l.446-.865 1.757-3.315c1.534-2.868 3.774-7.011 6.572-12.104 5.577-10.242 13.403-24.209 22.104-39.739 8.7-15.531 16.555-29.507 22.197-39.684 2.789-5.083 5.075-9.199 6.665-12.104.78-1.406 1.385-2.514 1.812-3.277l.484-.848c.148-.158.223-.251.223-.251Z" fill="#263238"/><path d="M609.258 200.967c.114.229.196.474.241.726.13.466.307 1.155.511 2.011.4 1.704.93 4.069 1.404 6.686.474 2.616.93 4.916 1.246 6.722.158.792.288 1.471.39 2.03.064.247.101.5.112.754a2.84 2.84 0 0 1-.251-.726 45.607 45.607 0 0 1-.493-2.011c-.39-1.704-.855-4.078-1.357-6.704-.502-2.626-.93-4.898-1.301-6.704-.149-.791-.289-1.471-.391-2.03a3.548 3.548 0 0 1-.111-.754ZM614.119 220.129c0-.102 4.796-1.341 10.773-2.793 5.977-1.453 10.838-2.533 10.857-2.43.019.102-4.796 1.34-10.773 2.793-5.977 1.452-10.838 2.523-10.857 2.43ZM599.683 243.332c.26-.027.522-.027.781 0l2.11.102c1.776.075 4.239.177 6.953.187 2.714.009 5.178 0 6.953-.103l2.11-.065c.26-.027.521-.027.781 0a2.89 2.89 0 0 1-.772.13c-.492 0-1.217.121-2.1.177a89.857 89.857 0 0 1-6.972.214 98.946 98.946 0 0 1-6.971-.298 39.957 39.957 0 0 1-2.101-.214 2.897 2.897 0 0 1-.772-.13ZM591.485 226.935c.162.181.297.385.4.606.223.4.548.986.929 1.713a278.53 278.53 0 0 1 3.012 5.698 339.227 339.227 0 0 1 2.909 5.745c.372.745.66 1.341.855 1.76.118.21.205.436.261.67a3.16 3.16 0 0 1-.391-.605 60.317 60.317 0 0 1-.929-1.704 320.402 320.402 0 0 1-3.003-5.708c-1.143-2.234-2.184-4.264-2.918-5.745a86.315 86.315 0 0 1-.846-1.759 2.964 2.964 0 0 1-.279-.671ZM576.157 245.771a5.3 5.3 0 0 1 .493.782c.325.578.734 1.304 1.217 2.179a538.172 538.172 0 0 1 3.914 7.281 774.107 774.107 0 0 1 3.82 7.319c.446.931.827 1.648 1.115 2.244.15.267.274.547.372.838a4.34 4.34 0 0 1-.492-.773l-1.218-2.188a520.55 520.55 0 0 1-3.913-7.272 741.85 741.85 0 0 1-3.821-7.328l-1.115-2.234a4.774 4.774 0 0 1-.372-.848ZM586.967 265.855c.328-.034.658-.034.986 0h11.498c3.439 0 6.572-.214 8.83-.335l2.668-.14a6.23 6.23 0 0 1 .985 0 5.11 5.11 0 0 1-.929.149c-.623.075-1.534.158-2.668.252-2.249.186-5.373.372-8.83.437-3.458.065-6.581 0-8.84-.065a89.571 89.571 0 0 1-2.677-.14 6.42 6.42 0 0 1-1.023-.158Z" fill="#263238"/><path d="M581.26 37.197H60.138v314.57H581.26V37.197Z" fill="#fff"/><path d="M75.345 55.102a2.419 2.419 0 0 0 2.417-2.42 2.419 2.419 0 0 0-2.417-2.422 2.419 2.419 0 0 0-2.417 2.421 2.419 2.419 0 0 0 2.417 2.421ZM84.138 55.102a2.419 2.419 0 0 0 2.417-2.42 2.419 2.419 0 0 0-2.417-2.422 2.419 2.419 0 0 0-2.416 2.421 2.419 2.419 0 0 0 2.416 2.421ZM92.941 55.102a2.419 2.419 0 0 0 2.417-2.42 2.419 2.419 0 0 0-2.417-2.422 2.419 2.419 0 0 0-2.417 2.421 2.419 2.419 0 0 0 2.417 2.421ZM239.305 162.578H60.138v95.074h179.167v-95.074Z" fill="#C44E32"/><path d="M239.063 162.345H59.896v95.074h179.167v-95.074Z" fill="#fff" opacity=".4"/><path d="M582.273 68.286c0 .14-116.851.26-260.965.26-144.114 0-260.984-.11-260.984-.26 0-.149 116.823-.251 260.984-.251s260.965.12 260.965.251ZM485.082 340.166h.334c.214 0 .54 0 .93-.084a11.16 11.16 0 0 0 3.634-1.118 10.928 10.928 0 0 0 4.481-4.18 11.1 11.1 0 0 0 1.385-3.725c.227-1.485.249-2.996.065-4.487a11.357 11.357 0 0 0-1.776-4.656 11.161 11.161 0 0 0-4.117-3.613 10.705 10.705 0 0 0-2.789-.977 15.083 15.083 0 0 0-3.067-.224h-6.544l-30.916.047-179.028.074a10.813 10.813 0 0 0-6.033 1.863 10.817 10.817 0 0 0-4.74 7.895 22.732 22.732 0 0 0 0 3.175c.114 1.041.367 2.062.753 3.036.398.966.93 1.872 1.58 2.691a10.856 10.856 0 0 0 5.038 3.5c1.952.708 4.071.54 6.172.559H330.445l80.488.056 54.266.074 14.752.056h5.14-5.14l-14.752.047-54.266.084H267.274a11.195 11.195 0 0 1-4.685-1.181 11.225 11.225 0 0 1-3.755-3.046 11.187 11.187 0 0 1-2.444-5.997 23.761 23.761 0 0 1 0-3.268c.223-2.22 1.1-4.323 2.519-6.043a12.1 12.1 0 0 1 2.454-2.225 11.134 11.134 0 0 1 6.311-1.918l179.028.074h37.506a15.943 15.943 0 0 1 3.123.233c.968.218 1.905.556 2.789 1.006a11.167 11.167 0 0 1 5.977 8.473c.18 1.514.149 3.047-.093 4.553a11.178 11.178 0 0 1-5.986 7.923 10.95 10.95 0 0 1-3.719 1.08 11.44 11.44 0 0 1-1.217.243Z" fill="#C44E32"/><path d="M271.206 326.376h-1.766v-.456h4.062v.456h-1.766v4.572h-.53v-4.572ZM277.165 327.13l-1.86 4.237c-.316.735-.715.978-1.254.978a1.33 1.33 0 0 1-.93-.345l.242-.382a.926.926 0 0 0 .688.289c.334 0 .567-.158.78-.633l.168-.373-1.692-3.724h.53l1.422 3.212 1.422-3.212.484-.047ZM281.701 329.058a1.865 1.865 0 0 1-1.859 1.927 1.644 1.644 0 0 1-1.432-.745v2.104h-.511v-5.214h.52v.745a1.633 1.633 0 0 1 1.45-.773 1.865 1.865 0 0 1 1.832 1.956Zm-.502 0a1.414 1.414 0 0 0-2.43-.926 1.416 1.416 0 0 0 1.017 2.397 1.397 1.397 0 0 0 1.422-1.471h-.009ZM286.032 329.216h-3.16a1.384 1.384 0 0 0 .47.967 1.384 1.384 0 0 0 1.017.346 1.467 1.467 0 0 0 1.153-.494l.288.336a2.002 2.002 0 0 1-2.154.484 2.003 2.003 0 0 1-1.286-1.797 1.876 1.876 0 0 1 .525-1.353 1.854 1.854 0 0 1 1.335-.565 1.777 1.777 0 0 1 1.356.544 1.79 1.79 0 0 1 .503 1.374l-.047.158Zm-3.16-.382h2.677a1.34 1.34 0 1 0-2.677 0ZM295.151 328.76v2.188h-.511v-2.142c0-.801-.4-1.21-1.079-1.21a1.197 1.197 0 0 0-.921.421 1.216 1.216 0 0 0-.278.975v1.984h-.511v-2.142c0-.801-.4-1.21-1.087-1.21a1.207 1.207 0 0 0-.95.39 1.216 1.216 0 0 0-.315.978v1.984h-.511v-3.846h.493v.689a1.538 1.538 0 0 1 1.385-.717 1.36 1.36 0 0 1 1.338.801 1.638 1.638 0 0 1 1.497-.801 1.42 1.42 0 0 1 1.415 1.034c.057.203.069.416.035.624ZM299.864 329.216h-3.161a1.403 1.403 0 0 0 .944 1.242c.175.06.36.084.543.071a1.472 1.472 0 0 0 1.153-.494l.288.336a1.994 1.994 0 0 1-3.066-.22 2 2 0 0 1-.373-1.093 1.875 1.875 0 0 1 .524-1.353 1.858 1.858 0 0 1 1.335-.565 1.781 1.781 0 0 1 1.356.544 1.792 1.792 0 0 1 .503 1.374l-.046.158Zm-3.161-.382h2.677a1.337 1.337 0 1 0-2.677 0ZM300.384 330.519l.223-.4c.396.275.866.421 1.348.419.716 0 1.013-.242 1.013-.614 0-.987-2.454-.215-2.454-1.704 0-.624.539-1.08 1.497-1.08.47-.006.932.117 1.338.353l-.223.41a1.93 1.93 0 0 0-1.115-.326c-.679 0-.985.27-.985.624 0 1.024 2.444.251 2.444 1.704 0 .652-.567 1.08-1.552 1.08a2.543 2.543 0 0 1-1.534-.466ZM303.889 330.52l.232-.401c.392.276.86.423 1.339.419.715 0 1.013-.242 1.013-.614 0-.987-2.445-.215-2.445-1.704 0-.624.53-1.08 1.487-1.08.47-.007.933.115 1.339.353l-.223.41a1.94 1.94 0 0 0-1.116-.326c-.678 0-.929.27-.929.624 0 1.024 2.444.252 2.444 1.704 0 .652-.576 1.08-1.561 1.08a2.539 2.539 0 0 1-1.58-.465ZM310.767 328.601v2.347h-.483v-.587a1.426 1.426 0 0 1-1.302.624c-.855 0-1.375-.447-1.375-1.099 0-.651.371-1.07 1.45-1.07h1.199v-.233c0-.643-.363-.996-1.069-.996a1.85 1.85 0 0 0-1.255.447l-.232-.382a2.398 2.398 0 0 1 1.543-.512 1.327 1.327 0 0 1 1.118.358 1.339 1.339 0 0 1 .406 1.103Zm-.511 1.211v-.615h-1.162c-.735 0-.93.289-.93.671 0 .382.344.717.93.717a1.21 1.21 0 0 0 1.162-.773ZM315.656 327.13v3.324a1.668 1.668 0 0 1-1.111 1.786 1.68 1.68 0 0 1-.748.077 2.649 2.649 0 0 1-1.757-.587l.261-.391c.415.35.944.535 1.487.521.929 0 1.385-.437 1.385-1.368v-.484a1.689 1.689 0 0 1-1.469.735 1.846 1.846 0 0 1-1.516-.408 1.863 1.863 0 0 1 1.516-3.26 1.711 1.711 0 0 1 1.497.754v-.699h.455Zm-.492 1.797a1.431 1.431 0 0 0-.851-1.357 1.428 1.428 0 0 0-1.98 1.014 1.438 1.438 0 0 0 .599 1.486c.237.159.515.245.8.245a1.35 1.35 0 0 0 1.432-1.322v-.066ZM320.369 329.216h-3.16a1.408 1.408 0 0 0 1.487 1.313 1.442 1.442 0 0 0 1.153-.494l.288.336a1.866 1.866 0 0 1-1.45.614 1.85 1.85 0 0 1-1.418-.523 1.85 1.85 0 0 1-.562-1.404 1.855 1.855 0 0 1 .421-1.502 1.87 1.87 0 0 1 2.193-.483 1.86 1.86 0 0 1 1.057 1.985c0 .046-.009.102-.009.158Zm-3.16-.382h2.677a1.34 1.34 0 1 0-2.677 0ZM321.085 330.585a.382.382 0 0 1 .381-.382.392.392 0 0 1 .391.382.403.403 0 0 1-.391.4.385.385 0 0 1-.355-.25.368.368 0 0 1-.026-.15ZM322.6 330.585a.39.39 0 1 1 .771.12.39.39 0 0 1-.771-.12ZM324.125 330.585c0-.05.009-.1.029-.146a.373.373 0 0 1 .206-.207.384.384 0 0 1 .419.082.397.397 0 0 1 .118.271.403.403 0 0 1-.391.4.385.385 0 0 1-.355-.25.368.368 0 0 1-.026-.15ZM519.493 327.233c-.056 0-.112-.475-.456-1.248a5.371 5.371 0 0 0-2.379-2.579 5.177 5.177 0 0 0-5.437.329 5.195 5.195 0 0 0-2.145 5.015 5.191 5.191 0 0 0 6.341 4.286 5.183 5.183 0 0 0 2.468-1.39 5.416 5.416 0 0 0 1.534-3.128c.102-.838 0-1.323.074-1.323s0 .112.084.336c.042.333.042.671 0 1.005a5.383 5.383 0 0 1-1.478 3.361 5.567 5.567 0 0 1-5.113 1.63 5.577 5.577 0 0 1-4.027-3.1 5.6 5.6 0 0 1 .151-5.084 5.448 5.448 0 0 1 2.315-2.319 5.561 5.561 0 0 1 5.372.065 5.398 5.398 0 0 1 2.389 2.794c.116.3.2.612.251.931.065.316.075.419.056.419Z" fill="#263238"/><path d="M512.81 327.046a.791.791 0 1 1-1.582-.001.791.791 0 0 1 1.582.001ZM516.964 327.046a.79.79 0 1 1-1.58.002.79.79 0 0 1 1.58-.002ZM516.379 328.462c.065 0 .13.391-.074.996a2.18 2.18 0 0 1-.651.931 2.15 2.15 0 0 1-1.329.429 2.528 2.528 0 0 1-2.092-1.183c-.334-.54-.353-.931-.297-.931.056 0 .223.317.585.726a2.442 2.442 0 0 0 1.813.931 1.772 1.772 0 0 0 1.636-.977c.251-.559.316-.931.409-.922ZM533.11 329.765s.233 0 .577-.214a1.484 1.484 0 0 0 .818-1.238v-2.533a1.868 1.868 0 0 0-.288-1.285 1.382 1.382 0 0 0-1.209-.53 1.348 1.348 0 0 0-1.134.633 1.41 1.41 0 0 0-.195.605v.726c0 .931-.056 1.862 0 2.505a1.5 1.5 0 0 0 .93 1.164c.353.139.594.121.594.167 0 .047-.223.112-.65 0a1.688 1.688 0 0 1-1.227-1.294c-.084-.782-.056-1.601-.084-2.57v-.754c.012-.297.102-.586.26-.838a1.862 1.862 0 0 1 1.553-.884 1.854 1.854 0 0 1 1.608.745c.181.235.297.515.334.81.018.257.018.515 0 .772 0 .931 0 1.807-.065 2.561a1.672 1.672 0 0 1-1.097 1.397c-.501.158-.725.083-.725.055Z" fill="#263238"/><path d="M535.722 326.376c.151.58.214 1.18.186 1.779a2.883 2.883 0 0 1-.632 1.936 2.896 2.896 0 0 1-4.499 0 2.893 2.893 0 0 1-.632-1.936 5.991 5.991 0 0 1 .186-1.779c.139.582.198 1.181.177 1.779.015.6.238 1.176.632 1.629a2.48 2.48 0 0 0 1.887.866 2.482 2.482 0 0 0 1.887-.866 2.585 2.585 0 0 0 .632-1.629 6.696 6.696 0 0 1 .176-1.779Z" fill="#263238"/><path d="M533.185 333.425c-.139 0-.251-.559-.251-1.239 0-.679.112-1.238.251-1.238.14 0 .261.549.261 1.238s-.121 1.239-.261 1.239ZM554.62 327.279a4.274 4.274 0 0 1-.13-1.08 2.527 2.527 0 0 0-.214-1.21 1.507 1.507 0 0 0-1.274-.773 1.475 1.475 0 0 0-1.422.996 1.69 1.69 0 0 0-.074.494v5.912a1.375 1.375 0 0 0 .474 1.099 1.407 1.407 0 0 0 2.11-.298c.197-.357.275-.768.223-1.173v-2.551a3.946 3.946 0 0 0-.056-1.09.994.994 0 0 0-1.049-.627 1.006 1.006 0 0 0-.856.758c-.024.26-.024.522 0 .782v1.313c.014.375-.021.75-.103 1.117a5.436 5.436 0 0 1-.092-1.117c0-.401 0-.829-.047-1.313a5.572 5.572 0 0 1 0-.857 1.37 1.37 0 0 1 .567-.847 1.373 1.373 0 0 1 1.174-.164 1.378 1.378 0 0 1 .871.806c.078.205.113.424.102.643V331.246a2.379 2.379 0 0 1-.288 1.443 1.855 1.855 0 0 1-2.213.968 1.856 1.856 0 0 1-1.3-2.039V325.706c.003-.219.041-.435.111-.643a1.86 1.86 0 0 1 1.859-1.21c.319.018.627.121.893.298.267.176.481.421.622.708.174.424.232.886.168 1.34a4.94 4.94 0 0 1-.056 1.08Z" fill="#263238"/><path d="M277.072 86.824h-3.607c-9.985 0-18.079 8.108-18.079 18.11v3.613c0 10.001 8.094 18.11 18.079 18.11h3.607c9.984 0 18.079-8.109 18.079-18.11v-3.613c0-10.002-8.095-18.11-18.079-18.11Z" fill="#EBEBEB"/><path d="M261.019 120.623a46.951 46.951 0 0 1 12.836-2.923c10.857-.559 16.137 2.42 16.137 2.42s-5.066 6.825-15.848 6.565c-9.138-.261-13.125-6.062-13.125-6.062Z" fill="#263238"/><path d="M276.56 125.707a5.694 5.694 0 0 1-3.869-1.627 5.71 5.71 0 0 1-1.708-3.839c-.093-2.207-.167-4.227-.167-4.227s-4.648-.493-4.89-5.074c-.241-4.581 0-15.13 0-15.13a15.893 15.893 0 0 1 16.072 1.228l.697.494-.335 22.56a5.684 5.684 0 0 1-1.735 4.015 5.682 5.682 0 0 1-4.065 1.6Z" fill="#FFBE9D"/><path d="M270.788 115.949a10.66 10.66 0 0 0 5.884-1.993s-1.255 3.371-5.838 3.175l-.046-1.182Z" fill="#EB996E"/><path d="M282.351 102.309c.084 0 3.096-1.09 3.151 2.048.056 3.138-3.104 2.542-3.104 2.449l-.047-4.497Z" fill="#FFBE9D"/><path d="M283.327 105.604s.056 0 .149.075a.546.546 0 0 0 .409 0 1.36 1.36 0 0 0 .604-1.229 1.663 1.663 0 0 0-.167-.782.617.617 0 0 0-.418-.41.272.272 0 0 0-.188.02.265.265 0 0 0-.128.138v.159c0 .009-.065-.056 0-.187a.34.34 0 0 1 .12-.195.424.424 0 0 1 .307-.084.785.785 0 0 1 .577.475c.137.268.207.565.204.866a1.416 1.416 0 0 1-.781 1.369.55.55 0 0 1-.492-.075c-.186-.065-.205-.13-.196-.14Z" fill="#EB996E"/><path d="M268.102 103.361a.66.66 0 0 0 .632.661.636.636 0 0 0 .613-.348.64.64 0 0 0 .065-.239.66.66 0 0 0-.632-.661.627.627 0 0 0-.464.149.618.618 0 0 0-.214.438ZM267.311 102.076c.075.084.577-.28 1.274-.28.697 0 1.218.354 1.301.27.084-.083-.046-.195-.269-.353a1.772 1.772 0 0 0-2.064.009c-.214.168-.288.317-.242.354ZM274.859 103.444a.665.665 0 0 0 1.093.506.634.634 0 0 0 .208-.44.65.65 0 0 0-.622-.661.632.632 0 0 0-.679.595ZM274.227 102.206c.075.093.577-.279 1.274-.279.697 0 1.227.353 1.301.27.075-.084-.046-.196-.269-.354a1.797 1.797 0 0 0-1.042-.326 1.72 1.72 0 0 0-1.013.335c-.223.168-.297.317-.251.354ZM271.671 107.439a4.113 4.113 0 0 0-1.143-.205c-.177 0-.353-.056-.381-.177-.01-.188.032-.374.121-.54l.529-1.369a23.562 23.562 0 0 0 1.199-3.584 22.54 22.54 0 0 0-1.477 3.482c-.186.484-.354.931-.512 1.378a1.011 1.011 0 0 0-.093.708.439.439 0 0 0 .298.26c.097.027.197.043.297.047.386.047.776.047 1.162 0ZM273.772 107.923c-.121 0-.121.763-.772 1.303-.65.541-1.468.457-1.468.568 0 .112.176.149.52.159.446.002.879-.15 1.227-.429.336-.273.549-.668.595-1.098.009-.317-.102-.503-.102-.503ZM274.041 99.45c.075.186.772.102 1.599.195.827.094 1.497.326 1.599.159.102-.168-.065-.26-.335-.447a2.617 2.617 0 0 0-1.189-.42c-.422-.05-.849.001-1.246.15-.307.12-.455.27-.428.363ZM267.562 100.037c.131.158.614 0 1.2 0 .585 0 1.069.102 1.189-.066.121-.167 0-.242-.251-.39a1.733 1.733 0 0 0-1.914.055c-.205.159-.27.308-.224.401Z" fill="#263238"/><path d="M263.547 92.783a1.677 1.677 0 0 1 .623-1.517 1.196 1.196 0 0 1 1.552.12 1.413 1.413 0 0 1 .222-1.118 1.398 1.398 0 0 1 .977-.585c.753 0 1.385.521 2.11.717.72.153 1.47.068 2.138-.242.679-.28 1.311-.652 1.999-.931a5.836 5.836 0 0 1 4.449.179 5.85 5.85 0 0 1 3.033 3.266 2.6 2.6 0 0 1 2.789 1.043c.58.887.812 1.958.65 3.007a9.8 9.8 0 0 1-.52 2.058v.232c-.047 2.524-.335 5.485-1.404 5.503-1.859 0-1.422-3.51-1.422-3.51-2.305-.931-1.45-4.339-2.017-4.86-.567-.522-1.775-1.732-6.59.726a9.218 9.218 0 0 1-5.708.615h-.185a4.643 4.643 0 0 1-1.237-.531 2.428 2.428 0 0 1-1.013-1.127 1.347 1.347 0 0 1 .26-1.443 2.88 2.88 0 0 1-.706-1.602Z" fill="#263238"/><path d="M338.337 192.448h-19.269a8.287 8.287 0 0 1-5.863-2.433 8.313 8.313 0 0 1-2.429-5.873v-9.963h27.561c2.199 0 4.308.875 5.863 2.433a8.313 8.313 0 0 1 2.428 5.873v1.657a8.313 8.313 0 0 1-2.428 5.873 8.287 8.287 0 0 1-5.863 2.433Z" fill="#F5F5F5"/><path d="M333.531 185.176a1.86 1.86 0 0 0 1.859-1.863 1.86 1.86 0 0 0-1.859-1.862 1.861 1.861 0 0 0-1.859 1.862c0 1.029.833 1.863 1.859 1.863ZM327.843 185.176a1.861 1.861 0 0 0 1.859-1.863 1.861 1.861 0 0 0-1.859-1.862 1.86 1.86 0 0 0-1.859 1.862 1.86 1.86 0 0 0 1.859 1.863ZM322.34 185.176a1.861 1.861 0 0 0 1.859-1.863 1.861 1.861 0 0 0-1.859-1.862 1.86 1.86 0 0 0-1.859 1.862 1.86 1.86 0 0 0 1.859 1.863Z" fill="#263238"/><path d="M310.767 91.461h93.715c4.438 0 8.693 1.766 11.831 4.91a16.773 16.773 0 0 1 4.901 11.85v3.343c0 4.445-1.763 8.707-4.901 11.85a16.713 16.713 0 0 1-11.831 4.909h-77.011a16.711 16.711 0 0 1-11.831-4.909 16.771 16.771 0 0 1-4.901-11.85V91.461h.028Z" fill="#F5F5F5"/><path d="M401.963 103.668c0 .14-16.88.251-37.702.251-20.821 0-37.711-.111-37.711-.251s16.881-.261 37.711-.261c20.831 0 37.702.112 37.702.261ZM401.963 109.822c0 .14-16.88.252-37.702.252-20.821 0-37.711-.112-37.711-.252 0-.139 16.881-.251 37.711-.251 20.831 0 37.702.112 37.702.251ZM370.666 115.549c0 .139-9.872.251-22.058.251s-22.058-.112-22.058-.251c0-.14 9.872-.252 22.058-.252s22.058.112 22.058.252Z" fill="#263238"/><path d="M310.767 133.137h128.126c4.458 0 8.732 1.774 11.884 4.931a16.845 16.845 0 0 1 4.922 11.903v3.361c0 4.465-1.77 8.747-4.922 11.904a16.792 16.792 0 0 1-11.884 4.931h-111.32a16.794 16.794 0 0 1-11.884-4.931 16.852 16.852 0 0 1-4.922-11.904v-20.195Z" fill="#F5F5F5"/><path d="M439.479 145.493c0 .139-25.283.251-56.46.251-31.176 0-56.469-.112-56.469-.251 0-.14 25.274-.261 56.469-.261s56.46.121 56.46.261ZM439.479 151.657c0 .139-25.283.26-56.46.26-31.176 0-56.469-.121-56.469-.26 0-.14 25.274-.252 56.469-.252s56.46.112 56.46.252ZM392.621 157.383c0 .139-14.798.26-33.035.26-18.238 0-33.036-.121-33.036-.26 0-.14 14.789-.252 33.036-.252 18.246 0 33.035.112 33.035.252Z" fill="#263238"/><path d="M486.522 258.853h27.561v9.963a8.317 8.317 0 0 1-2.428 5.873 8.286 8.286 0 0 1-5.863 2.432h-19.27a8.284 8.284 0 0 1-5.862-2.432 8.313 8.313 0 0 1-2.429-5.873v-1.657c0-2.203.874-4.316 2.429-5.873a8.28 8.28 0 0 1 5.862-2.433Z" fill="#F5F5F5"/><path d="M491.319 269.849a1.86 1.86 0 0 0 1.859-1.862 1.86 1.86 0 0 0-1.859-1.862 1.86 1.86 0 0 0-1.859 1.862 1.86 1.86 0 0 0 1.859 1.862ZM497.017 269.849a1.86 1.86 0 0 0 1.859-1.862 1.86 1.86 0 0 0-1.859-1.862 1.86 1.86 0 0 0-1.859 1.862 1.86 1.86 0 0 0 1.859 1.862ZM502.51 269.849a1.86 1.86 0 0 0 1.859-1.862 1.86 1.86 0 0 0-1.859-1.862 1.861 1.861 0 0 0 0 3.724Z" fill="#263238"/><path d="M550.772 174.468h-3.607c-9.985 0-18.079 8.108-18.079 18.11v3.613c0 10.001 8.094 18.109 18.079 18.109h3.607c9.985 0 18.079-8.108 18.079-18.109v-3.613c0-10.002-8.094-18.11-18.079-18.11Z" fill="#EBEBEB"/><path d="M534.254 207.773a40.597 40.597 0 0 1 12.567-2.467c6.312 0 16.276 3.091 16.276 3.091s-5.577 6.518-16.276 5.894c-9.119-.549-12.567-6.518-12.567-6.518Z" fill="#455A64"/><path d="M539.469 181.107c-1.478.866-1.86 2.793-2.008 4.525-.149 1.732-.409 3.65-1.804 4.656-1.143.828-2.965.931-3.439 2.271a1.615 1.615 0 0 0 .492 1.793 1.604 1.604 0 0 0 1.851.135 2.793 2.793 0 0 0 .241 3.249 1.85 1.85 0 0 0 1.562.573 1.87 1.87 0 0 0 1.394-.908 1.429 1.429 0 0 0 .029 1.084 1.41 1.41 0 0 0 2.317.398 1.4 1.4 0 0 0 .294-.467M557.157 196.079a1.718 1.718 0 0 0 .733 1.088 1.704 1.704 0 0 0 1.288.243 1.706 1.706 0 0 0 1.307-2.039c-.177-.698-.781-1.285-.716-2.002.065-.717 1.051-1.303 1.859-1.527.809-.223 1.859-.54 2.064-1.368.204-.829-.381-1.574-.93-2.235-.548-.661-.929-1.62-.436-2.281.26-.335.706-.475 1.022-.754a1.864 1.864 0 0 0 0-2.561 3.455 3.455 0 0 0-2.575-.987c-.934.056-1.865.161-2.788.317a11.317 11.317 0 0 1-8.636-2.793" fill="#263238"/><path d="m539.478 187.773.66 19.349a6.14 6.14 0 0 0 6.376 5.931 6.132 6.132 0 0 0 4.071-1.781 6.152 6.152 0 0 0 1.804-4.067c.083-1.694.149-3.1.149-3.1s4.889-.568 5.14-5.438c.121-2.355 0-7.216-.195-11.62a9.1 9.1 0 0 0-2.66-6.052 9.064 9.064 0 0 0-6.05-2.644h-.465a9 9 0 0 0-8.279 5.888 9.033 9.033 0 0 0-.551 3.534Z" fill="#EB996E"/><path d="M552.547 204.03a11.333 11.333 0 0 1-6.274-2.048s1.366 3.557 6.237 3.315l.037-1.267Z" fill="#AA6550"/><path d="M555.419 190.259a.692.692 0 0 1-.697.671.65.65 0 0 1-.487-.177.647.647 0 0 1-.21-.475.718.718 0 0 1 .96-.638.678.678 0 0 1 .434.619ZM556.349 189.394c-.093.093-.595-.326-1.348-.354-.753-.028-1.311.326-1.385.233-.075-.094.056-.205.297-.364a1.867 1.867 0 0 1 1.116-.298c.389.011.764.148 1.069.392.251.186.251.325.251.391ZM548.215 190.055a.686.686 0 0 1-.697.67.667.667 0 0 1-.262-.038.673.673 0 0 1-.379-.355.659.659 0 0 1-.056-.259.717.717 0 0 1 .96-.638.678.678 0 0 1 .434.62ZM548.987 189.245c-.093.083-.604-.326-1.348-.354-.744-.028-1.311.326-1.385.233-.074-.093.056-.205.297-.363.331-.216.722-.32 1.116-.298.389.01.764.147 1.069.391.223.186.297.353.251.391ZM551.478 194.915c.4-.108.812-.168 1.227-.177.195 0 .372 0 .409-.167a.932.932 0 0 0-.102-.568c-.168-.475-.335-.932-.511-1.481a25.58 25.58 0 0 1-1.116-3.864 24.797 24.797 0 0 1 1.422 3.724c.168.522.335 1.015.484 1.49.111.235.137.502.074.754a.464.464 0 0 1-.133.168.465.465 0 0 1-.192.093 1.113 1.113 0 0 1-.326 0 5.435 5.435 0 0 1-1.236.028ZM549.266 195.334c.121 0 .083.81.762 1.415.679.606 1.534.55 1.534.661 0 .112-.195.149-.558.149a1.995 1.995 0 0 1-1.292-.512 1.717 1.717 0 0 1-.586-1.182c-.018-.335.084-.54.14-.531ZM549.294 186.321c-.075.196-.818.075-1.701.14-.884.065-1.599.288-1.711.102-.111-.186.084-.279.372-.465a2.998 2.998 0 0 1 2.603-.187c.316.149.474.308.437.41ZM556.154 187.215c-.14.167-.651 0-1.265-.065-.613-.065-1.152.074-1.264-.112-.111-.186 0-.251.279-.41a1.858 1.858 0 0 1 2.036.149c.204.186.269.363.214.438ZM544.971 182.634a3.828 3.828 0 0 0-1.524 2.421v.093c-.242 1.387-.26 2.793-.521 4.18a6.325 6.325 0 0 1-1.859 3.725c-.437.372-1.189.614-1.515.139a1.152 1.152 0 0 1-.148-.642c-.131-3.361-.93-6.378-.781-9.888a2.94 2.94 0 0 1 1.32-2.356c.753-.503 1.673-1.005 2.472-.586.8.419 1.794 1.983 2.398 2.653" fill="#263238"/><path d="M541.03 190.036c-.084 0-3.3-1.117-3.328 2.216-.028 3.333 3.319 2.672 3.328 2.579.009-.093 0-4.795 0-4.795Z" fill="#EB996E"/><path d="M540.026 193.556s-.065 0-.158.084a.58.58 0 0 1-.437 0 1.417 1.417 0 0 1-.65-1.295 1.793 1.793 0 0 1 .167-.828.67.67 0 0 1 .437-.447.297.297 0 0 1 .344.167v.159s.074-.056.046-.187a.338.338 0 0 0-.13-.214.41.41 0 0 0-.316-.084.813.813 0 0 0-.614.512 1.977 1.977 0 0 0-.204.932 1.52 1.52 0 0 0 .837 1.452.605.605 0 0 0 .274.018.604.604 0 0 0 .255-.102c.14-.083.158-.158.149-.167Z" fill="#AA6550"/><path d="M542.229 180.213c-.762-1.359 1.553-3.184 3.216-3.641 1.664-.456 3.793.438 5.401 1.043a9.166 9.166 0 0 0 3.114.931 7.612 7.612 0 0 0 2.128-.456 5.335 5.335 0 0 1 2.148-.335 1.988 1.988 0 0 1 1.701 1.173 1.28 1.28 0 0 1-.082 1.051 1.27 1.27 0 0 1-.848.625 1.637 1.637 0 0 1 1.801 2.709 1.626 1.626 0 0 1-.701.351 1.625 1.625 0 0 1-.784-.015c.484-.345 1.19.279 1.106.866a1.714 1.714 0 0 1-1.189 1.219 6.194 6.194 0 0 1-4.434-.242c-1.413-.54-2.715-1.35-4.118-1.927-1.404-.577-3.718-1.601-5.196-1.155-1.069.336-1.859 1.574-2.436 1.267a2.032 2.032 0 0 1-.994-1.537c-.047-.624 0-1.252.139-1.862" fill="#263238"/><path d="M557.278 180.017a.938.938 0 0 1 .828.14c.283.194.5.47.622.792a1.653 1.653 0 0 1 0 1.331 2.945 2.945 0 0 1-3.011 1.387 8.138 8.138 0 0 1-3.811-1.657 19.83 19.83 0 0 0-3.449-2.197 5.072 5.072 0 0 0-1.692-.447 4.056 4.056 0 0 0-1.496.186 3.102 3.102 0 0 0-1.738 1.294 6.81 6.81 0 0 0-.335.745.767.767 0 0 1 0-.214c.042-.208.114-.409.214-.596a3.114 3.114 0 0 1 1.766-1.434 4.115 4.115 0 0 1 1.589-.242 5.507 5.507 0 0 1 1.785.438 19.92 19.92 0 0 1 3.514 2.206 8.008 8.008 0 0 0 3.662 1.63 2.72 2.72 0 0 0 2.789-1.192 1.455 1.455 0 0 0 .055-1.183 1.507 1.507 0 0 0-.539-.744 1.344 1.344 0 0 0-.753-.243Z" fill="#455A64"/><path d="M548.299 177.96c0 .056-.446-.103-1.143-.158a5.019 5.019 0 0 0-2.64.558 4.91 4.91 0 0 0-1.859 1.918c-.344.615-.437 1.052-.493 1.043.003-.4.105-.794.298-1.145a4.526 4.526 0 0 1 4.759-2.589c.384.037.753.165 1.078.373ZM539.115 186.237a1.586 1.586 0 0 1-.251-.931 3.41 3.41 0 0 1 2.51-3.501 1.58 1.58 0 0 1 .93-.056c0 .047-.354.066-.874.261a3.721 3.721 0 0 0-1.692 1.276 3.736 3.736 0 0 0-.66 2.02c-.009.568.084.922.037.931Z" fill="#455A64"/><path d="M419.708 183.314h98.93v51.638c0 4.761-1.888 9.327-5.249 12.694a17.908 17.908 0 0 1-12.672 5.258h-81.009a17.91 17.91 0 0 1-12.642-5.275 17.966 17.966 0 0 1-5.233-12.677v-33.687c0-4.753 1.882-9.312 5.233-12.677a17.905 17.905 0 0 1 12.642-5.274Z" fill="#F5F5F5"/><path d="M498.718 201.535c0 .14-16.88.252-37.711.252s-37.711-.112-37.711-.252 16.88-.261 37.711-.261 37.711.159 37.711.261ZM498.718 207.699c0 .14-16.88.251-37.711.251s-37.711-.111-37.711-.251 16.88-.251 37.711-.251 37.711.111 37.711.251ZM498.718 213.425c0 .14-16.88.251-37.711.251s-37.711-.111-37.711-.251 16.88-.251 37.711-.251 37.711.111 37.711.251ZM498.718 219.654c0 .14-16.88.252-37.711.252s-37.711-.112-37.711-.252 16.88-.251 37.711-.251 37.711.111 37.711.251Z" fill="#263238"/><path d="M433.121 226.377a2.627 2.627 0 0 0-.697-1.406 2.535 2.535 0 0 0-1.32-.782 2.065 2.065 0 0 0-1.58.344c-.27.191-.488.447-.632.745a2.02 2.02 0 0 0-2.203-.931 2.716 2.716 0 0 0-1.934 2.262 3.16 3.16 0 0 0 .437 1.946 4.531 4.531 0 0 0 1.571 1.425 200.43 200.43 0 0 0 2.37 1.332s1.106-.866 2.11-1.5a4.424 4.424 0 0 0 1.478-1.471c.34-.595.481-1.283.4-1.964ZM444.108 226.377a2.627 2.627 0 0 0-.697-1.406 2.523 2.523 0 0 0-1.33-.782 2.04 2.04 0 0 0-1.57.344c-.27.191-.488.447-.633.745a2.016 2.016 0 0 0-2.203-.931 2.71 2.71 0 0 0-1.933 2.262 3.143 3.143 0 0 0 .428 1.946c.409.591.95 1.079 1.58 1.425a193.69 193.69 0 0 0 2.37 1.331s1.106-.865 2.11-1.499a4.424 4.424 0 0 0 1.515-1.48 3.196 3.196 0 0 0 .363-1.955ZM455.095 226.377a2.627 2.627 0 0 0-.697-1.406 2.524 2.524 0 0 0-1.329-.782 2.045 2.045 0 0 0-1.571.344c-.27.191-.488.447-.632.745a2.013 2.013 0 0 0-2.203-.931 2.52 2.52 0 0 0-1.292.829 2.59 2.59 0 0 0-.642 1.433 3.157 3.157 0 0 0 .428 1.946c.41.591.951 1.079 1.58 1.425a202.37 202.37 0 0 0 2.37 1.331s1.106-.865 2.11-1.499a4.424 4.424 0 0 0 1.515-1.48 3.196 3.196 0 0 0 .363-1.955ZM466.082 226.377a2.692 2.692 0 0 0-.697-1.406 2.524 2.524 0 0 0-1.329-.782 2.045 2.045 0 0 0-1.571.344c-.27.191-.487.447-.632.745a2.128 2.128 0 0 0-.614-.643 2.038 2.038 0 0 0-1.589-.279 2.487 2.487 0 0 0-1.292.829c-.357.4-.581.901-.642 1.434a3.157 3.157 0 0 0 .428 1.946 4.556 4.556 0 0 0 1.58 1.424c1.023.587 2.37 1.332 2.37 1.332s1.107-.866 2.111-1.499a4.536 4.536 0 0 0 1.515-1.481 3.2 3.2 0 0 0 .362-1.964ZM477.069 226.377a2.692 2.692 0 0 0-.697-1.406 2.564 2.564 0 0 0-1.329-.782 2.045 2.045 0 0 0-1.571.344c-.27.191-.488.447-.632.745a2.128 2.128 0 0 0-.614-.643 2.038 2.038 0 0 0-1.589-.279 2.487 2.487 0 0 0-1.292.829c-.357.4-.581.901-.642 1.434a3.157 3.157 0 0 0 .428 1.946 4.482 4.482 0 0 0 1.58 1.424c1.023.587 2.37 1.332 2.37 1.332s1.107-.866 2.111-1.499a4.536 4.536 0 0 0 1.515-1.481 3.2 3.2 0 0 0 .362-1.964Z" fill="#C44E32"/><path d="M284.721 282.27a6.495 6.495 0 0 1-1.97-.419l.056 3.464c2.237.401 4.42 1.06 6.506 1.964a19.992 19.992 0 0 0 5.512-8.24 87.124 87.124 0 0 1-6.181 2.468c-1.248.5-2.579.759-3.923.763ZM276.049 252.512a19.867 19.867 0 0 0-14.059 5.834 19.93 19.93 0 0 0-5.823 14.083 19.905 19.905 0 0 0 7.715 15.744 26.866 26.866 0 0 1 7.882-2.793v-2.16h-.483c-3.031-.168-6.07-.801-9.073-.382a2.306 2.306 0 0 1-1.422-.065 2.17 2.17 0 0 1-.846-1.536c-.269-1.313-.418-2.868.512-3.827.632-.652 1.701-.931 1.914-1.862.214-.931-.511-1.555-.929-2.3a3.846 3.846 0 0 1 .493-4.367c.715-.782 1.747-1.257 2.268-2.169a7.451 7.451 0 0 0 .529-2.85 5.262 5.262 0 0 1 2.306-3.882 3.712 3.712 0 0 1 2.733-.447c1.347-1.816 4.21-.782 5.651-.847 1.859-.084 3.876-.14 5.577.744a3.295 3.295 0 0 1 .669-2.206 3.598 3.598 0 0 1 3.189-1.285c.66.056 1.271.371 1.701.875.227.35.366.749.407 1.163.04.415-.02.834-.175 1.221a3.501 3.501 0 0 1-2.909 2.355v.066c.04.142.062.289.065.437.316.577.567 1.201.874 1.779a3.898 3.898 0 0 0 1.803 1.862c.576.233 1.236.242 1.803.503a3.632 3.632 0 0 1 1.748 2.662c.073.499.184.991.334 1.472a1.867 1.867 0 0 0 1.014 1.089c.463.093.932.158 1.403.196.564.161 1.042.54 1.329 1.052a6.67 6.67 0 0 1 .642 1.61c.214.689.418 1.378.632 2.058.258-1.3.388-2.622.39-3.948a19.933 19.933 0 0 0-5.83-14.052 19.866 19.866 0 0 0-14.034-5.827ZM269.477 291.218a23.263 23.263 0 0 1-5.577-3.035 19.517 19.517 0 0 0 5.577 3.035Z" fill="#EBEBEB"/><path d="M282.816 285.883a5.544 5.544 0 0 1-1.732 3.757 5.529 5.529 0 0 1-3.848 1.507 5.53 5.53 0 0 1-3.816-1.585 5.542 5.542 0 0 1-1.656-3.791v-.363a26.872 26.872 0 0 0-7.883 2.793 23.238 23.238 0 0 0 5.578 3.036 19.69 19.69 0 0 0 6.571 1.126 19.795 19.795 0 0 0 13.246-5.065 29.469 29.469 0 0 0-6.506-1.965l.046.55Z" fill="#C44E32"/><path d="M277.285 291.302a5.519 5.519 0 0 0 3.902-1.561 5.537 5.537 0 0 0 1.676-3.858v-.568l-.056-3.464a11.16 11.16 0 0 1-1.534-.689 4.578 4.578 0 0 1-2.352-3.892v-1.769l.698-4.59c-2.138-.782-2.789-4.004-2.789-4.004a6.99 6.99 0 0 1-2.435.792 2.427 2.427 0 0 1-2.259-.931 3.475 3.475 0 0 1-.195-2.458 2.804 2.804 0 0 0-.419-2.114 1.55 1.55 0 0 0-2.472-.224 8.386 8.386 0 0 0-2.036 5.019 54.397 54.397 0 0 0 .056 10.056c.809 5.084 4.648 5.735 4.648 5.735 2.389.039 4.742-.59 6.794-1.815 0 0-1.645 3.491-6.72 3.017l-.074-1.202v3.026a5.532 5.532 0 0 0 3.449 5.09c.673.273 1.393.41 2.118.404Zm-2.388-21.899a1.705 1.705 0 0 1 1.013-.326c.367.001.726.111 1.031.316.224.168.307.317.27.363-.037.047-.595-.279-1.292-.27-.697.01-1.19.364-1.273.28-.084-.084.055-.214.251-.363Zm1.794 2.905a.162.162 0 0 1-.082.079.155.155 0 0 1-.114.004.157.157 0 0 1-.049-.031.166.166 0 0 1-.034-.049.143.143 0 0 1 0-.115.143.143 0 0 1 .08-.082.148.148 0 0 1 .197.079.153.153 0 0 1 .002.115Zm-2.231-4.134a2.774 2.774 0 0 1 1.245-.149c.421.043.826.187 1.181.419.269.186.381.363.334.447-.046.083-.771-.075-1.598-.159-.828-.084-1.516 0-1.59-.195-.074-.196.121-.261.428-.382v.019Zm-6.386-.168c.27-.2.594-.314.929-.326a1.68 1.68 0 0 1 .93.261c.214.158.288.316.242.4-.047.084-.605 0-1.19.056-.586.056-1.06.177-1.181 0s.065-.251.27-.41v.019Zm1.097 3.007a.65.65 0 0 1-.623-.661.636.636 0 0 1 .212-.434.62.62 0 0 1 .457-.152.66.66 0 0 1 .632.661.632.632 0 0 1-.678.568v.018Zm1.152-1.257c-.074.084-.585-.279-1.292-.27-.706.01-1.19.364-1.273.28-.084-.084 0-.196.251-.363.295-.212.65-.326 1.013-.326.368.004.728.117 1.032.326.223.139.306.288.269.335v.018Zm.772 5.28a1.238 1.238 0 0 1-.298 0 .444.444 0 0 1-.297-.27 1.033 1.033 0 0 1 .093-.699l.502-1.368a21.797 21.797 0 0 1 1.478-3.464 24.538 24.538 0 0 1-1.19 3.566l-.53 1.36a.988.988 0 0 0-.121.53c0 .121.205.159.381.177a4.85 4.85 0 0 1 1.134.205 4.127 4.127 0 0 1-1.152-.084v.047Zm3.551 2.3a1.152 1.152 0 0 1-1.116.698 1.241 1.241 0 0 1-.929-.494c-.344 0-.53-.111-.521-.158.009-.046.149-.056.363-.093a.671.671 0 0 1 .093-.531.634.634 0 0 1 .659-.223.536.536 0 0 1 .372-.559.662.662 0 0 1 .512 0c.102-.27.139-.475.195-.475.056 0 .139.187.111.503a.834.834 0 0 1 0 .158 1.072 1.072 0 0 1 .261 1.155v.019Zm.678-6.984a.625.625 0 0 1 .209-.437.621.621 0 0 1 .46-.149.648.648 0 0 1 .623.661.607.607 0 0 1-.209.437.612.612 0 0 1-.46.149.647.647 0 0 1-.455-.207.655.655 0 0 1-.168-.472v.018Z" fill="#FFBE9D"/><path d="M269.217 269.747a.628.628 0 0 0-.458.153.618.618 0 0 0-.211.434.653.653 0 0 0 .622.661.639.639 0 0 0 .614-.348.64.64 0 0 0 .065-.239.66.66 0 0 0-.632-.661Z" fill="#263238"/><path d="M270.054 269.402a1.861 1.861 0 0 0-1.032-.316c-.363 0-.718.114-1.013.326-.214.167-.288.326-.251.363.037.037.576-.28 1.273-.28s1.218.354 1.292.271c.075-.084-.046-.224-.269-.364ZM275.947 270.995a.616.616 0 0 0 .669-.587.65.65 0 0 0-.623-.661.615.615 0 0 0-.669.587.652.652 0 0 0 .175.459.63.63 0 0 0 .448.202Z" fill="#263238"/><path d="M274.646 269.747c.083.084.576-.279 1.273-.279s1.218.353 1.292.27c.074-.084-.046-.196-.27-.363a1.851 1.851 0 0 0-1.031-.317 1.724 1.724 0 0 0-1.014.326c-.195.167-.288.326-.25.363ZM271.113 274.812c-.176 0-.353-.056-.381-.177a.99.99 0 0 1 .121-.53l.53-1.36a24.417 24.417 0 0 0 1.19-3.566 21.797 21.797 0 0 0-1.478 3.464l-.502 1.368a1.033 1.033 0 0 0-.093.699.444.444 0 0 0 .297.27c.099.012.199.012.298 0 .382.053.77.053 1.152 0a4.827 4.827 0 0 0-1.134-.168Z" fill="#263238"/><path d="M271.838 283.946c5.076.475 6.721-3.017 6.721-3.017a12.853 12.853 0 0 1-6.795 1.816l.074 1.201ZM274.116 275.976a.644.644 0 0 0-.512 0 .532.532 0 0 0-.371.559.632.632 0 0 0-.363.014.632.632 0 0 0-.297.209.671.671 0 0 0-.093.531 2.305 2.305 0 0 0 1.069-.456c.262-.23.458-.526.567-.857Z" fill="#EB996E"/><path d="M273.828 277.093c-.345.286-.78.438-1.227.429.109.145.249.264.41.349.16.086.338.135.519.144.235.012.468-.049.667-.174.199-.125.356-.308.449-.524a1.072 1.072 0 0 0-.261-1.155c-.072.366-.27.695-.557.931Z" fill="#EB996E"/><path d="M273.828 277.093c.287-.236.485-.565.557-.931a.834.834 0 0 0 0-.158c0-.317-.055-.503-.111-.503s-.093.205-.195.475a1.957 1.957 0 0 1-.567.829c-.312.241-.68.398-1.069.456-.214 0-.363.046-.363.093s.177.149.521.158c.446.013.881-.136 1.227-.419ZM275.631 268.713c.827.084 1.487.326 1.599.159.111-.168-.065-.261-.335-.447a2.648 2.648 0 0 0-1.18-.419 2.777 2.777 0 0 0-1.246.149c-.307.121-.455.27-.428.363.028.093.763.102 1.59.195ZM269.041 268.378c.585 0 1.078.103 1.189-.055.112-.159 0-.242-.241-.401a1.68 1.68 0 0 0-.93-.26 1.66 1.66 0 0 0-.929.325c-.205.159-.27.326-.214.401.056.074.548 0 1.125-.01Z" fill="#263238"/><path d="M294.268 272.708a2.235 2.235 0 0 0-1.329-1.052 11.824 11.824 0 0 1-1.404-.196 1.862 1.862 0 0 1-1.032-1.127 9.568 9.568 0 0 1-.39-1.48 3.636 3.636 0 0 0-1.748-2.663c-.567-.261-1.227-.27-1.803-.503a3.89 3.89 0 0 1-1.803-1.862c-.307-.577-.558-1.201-.874-1.778v.214s-.084-.196-.195-.503v.196a3.546 3.546 0 0 1-.753 1.927c-1.023 1.48-3.811 2.374-6.34 1.266a2.948 2.948 0 0 1-1.422-1.368 12.258 12.258 0 0 1-.567-1.732 3.716 3.716 0 0 0-1.859-2.235 4.027 4.027 0 0 0-1.924-.512c-.474 0-.744.065-.744 0s.056 0 .186-.065c.183-.047.37-.075.558-.084a3.952 3.952 0 0 1 2.017.456 3.931 3.931 0 0 1 1.971 2.328c.146.574.333 1.137.557 1.685.282.554.745.994 1.311 1.248a5.042 5.042 0 0 0 1.813.456c.585.041 1.173 0 1.747-.121a4.303 4.303 0 0 0 2.51-1.48 3.58 3.58 0 0 0 .79-1.862 2.217 2.217 0 0 0 0-.326 4.076 4.076 0 0 0-.734-1.155 6.07 6.07 0 0 0-1.748-1.192c.22-.026.443.013.642.112.504.202.953.521 1.31.931.346.376.598.83.735 1.322a3.513 3.513 0 0 0 2.909-2.355 2.598 2.598 0 0 0-.232-2.384 2.52 2.52 0 0 0-1.701-.875 3.598 3.598 0 0 0-3.189 1.285 3.29 3.29 0 0 0-.669 2.206c-1.664-.884-3.662-.828-5.577-.744-1.441.065-4.304-.932-5.652.847a3.713 3.713 0 0 0-2.733.447 5.262 5.262 0 0 0-2.305 3.882 7.452 7.452 0 0 1-.53 2.85c-.52.931-1.552 1.387-2.268 2.169a3.839 3.839 0 0 0-.492 4.367c.418.745 1.124 1.471.929 2.3-.195.828-1.283 1.201-1.915 1.862-.929.931-.78 2.514-.511 3.827a2.17 2.17 0 0 0 .846 1.536c.455.171.953.194 1.422.065 3.003-.419 6.042.214 9.072.382h.484v-.503s-3.886-.652-4.648-5.735a54.397 54.397 0 0 1-.056-10.056 8.384 8.384 0 0 1 2.036-5.019 1.551 1.551 0 0 1 2.473.224 2.8 2.8 0 0 1 .418 2.113 3.48 3.48 0 0 0 .195 2.458 2.439 2.439 0 0 0 2.259.931 6.99 6.99 0 0 0 2.435-.791s.623 3.221 2.789 4.004l-.697 4.59v1.769a4.566 4.566 0 0 0 2.351 3.892c.494.268 1.006.498 1.534.689a6.495 6.495 0 0 0 1.971.419c1.349.02 2.689-.217 3.95-.698a77.46 77.46 0 0 0 6.154-2.449c.302-.871.547-1.76.734-2.663-.214-.68-.418-1.369-.632-2.058a6.712 6.712 0 0 0-.632-1.629Z" fill="#263238"/><path d="M276.412 272.195a.147.147 0 0 0-.012.058c.001.02.005.039.012.057a.136.136 0 0 0 .034.048.148.148 0 0 0 .135.039.153.153 0 0 0 .114-.118.15.15 0 0 0-.147-.175.147.147 0 0 0-.136.091Z" fill="#263238"/><path d="M281.766 259.356a1.14 1.14 0 0 0-.642-.112 6.07 6.07 0 0 1 1.748 1.192c.308.34.556.731.734 1.155v-.429a.875.875 0 0 1 .047.196c.011.145.011.292 0 .437.111.308.158.513.195.503.037-.009 0-.084 0-.214a1.805 1.805 0 0 0-.065-.438v-.065a3.235 3.235 0 0 0-.735-1.322 3.433 3.433 0 0 0-1.282-.903Z" fill="#C44E32"/><path d="M283.662 261.358a.824.824 0 0 0-.047-.196v.428c.008.109.008.218 0 .326a3.582 3.582 0 0 1-.79 1.863 4.303 4.303 0 0 1-2.509 1.48c-.575.121-1.163.162-1.748.121a5.068 5.068 0 0 1-1.813-.456 2.715 2.715 0 0 1-1.31-1.248 12.789 12.789 0 0 1-.558-1.685 3.912 3.912 0 0 0-1.971-2.328 3.952 3.952 0 0 0-2.017-.456 2.757 2.757 0 0 0-.557.084c-.13 0-.186.056-.186.065 0 .009.269 0 .743 0a4.034 4.034 0 0 1 1.925.512 3.725 3.725 0 0 1 1.859 2.235c.145.59.334 1.169.567 1.731a2.944 2.944 0 0 0 1.31 1.285c2.529 1.108 5.317.214 6.34-1.266a3.546 3.546 0 0 0 .753-1.927v-.131c.014-.145.018-.291.009-.437Z" fill="#455A64"/><path d="M305.71 265.818h93.725c4.437 0 8.693 1.766 11.831 4.909a16.77 16.77 0 0 1 4.9 11.85v3.343c0 4.445-1.762 8.708-4.9 11.851a16.719 16.719 0 0 1-11.831 4.909h-77.021a16.719 16.719 0 0 1-11.831-4.909 16.774 16.774 0 0 1-4.901-11.851v-20.102h.028Z" fill="#F5F5F5"/><path d="M398.635 278.555c0 .14-16.889.252-37.711.252-20.821 0-37.711-.112-37.711-.252s16.881-.261 37.711-.261c20.831 0 37.711.112 37.711.261ZM398.635 284.719c0 .14-16.889.251-37.711.251-20.821 0-37.711-.111-37.711-.251s16.881-.251 37.711-.251c20.831 0 37.711.111 37.711.251ZM367.338 290.445c0 .14-9.881.252-22.058.252-12.176 0-22.067-.112-22.067-.252 0-.139 9.881-.251 22.067-.251 12.187 0 22.058.112 22.058.251Z" fill="#263238"/><path d="M239.305 68.296H60.138v95.074h179.167V68.296Z" fill="#C44E32"/><path d="M203.239 103.509c0 .14-13.655.261-30.488.261-16.834 0-30.489-.121-30.489-.261 0-.139 13.645-.251 30.489-.251 16.843 0 30.488.112 30.488.251ZM203.239 123.575c0 .139-13.655.26-30.488.26-16.834 0-30.489-.121-30.489-.26 0-.14 13.645-.252 30.489-.252 16.843 0 30.488.112 30.488.252ZM226.366 115.837c0 .14-18.833.252-42.052.252-23.22 0-42.061-.112-42.061-.252 0-.139 18.823-.251 42.061-.251s42.052.112 42.052.251ZM210.694 199.319c0 .14-13.655.252-30.489.252-16.833 0-30.488-.112-30.488-.252 0-.139 13.655-.251 30.488-.251 16.834 0 30.489.112 30.489.251ZM210.694 219.384c0 .14-13.655.251-30.489.251-16.833 0-30.488-.111-30.488-.251s13.655-.251 30.488-.251c16.834 0 30.489.111 30.489.251ZM233.802 211.675c0 .139-18.832.251-42.052.251-23.219 0-42.061-.112-42.061-.251 0-.14 18.832-.261 42.061-.261s42.052.084 42.052.261Z" fill="#FAFAFA"/><path d="M239.295 256.684H59.896v95.074h179.399v-95.074Z" fill="#C44E32"/><path d="M210.694 296.851c0 .14-13.655.252-30.489.252-16.833 0-30.488-.112-30.488-.252 0-.139 13.655-.26 30.488-.26 16.834 0 30.489.121 30.489.26ZM210.694 316.888c0 .14-13.655.252-30.489.252-16.833 0-30.488-.112-30.488-.252s13.655-.261 30.488-.261c16.834 0 30.489.149 30.489.261ZM233.802 309.17c0 .139-18.832.26-42.052.26-23.219 0-42.061-.121-42.061-.26 0-.14 18.832-.252 42.061-.252s42.052.112 42.052.252Z" fill="#FAFAFA"/><path d="M581.25 351.767c0-1.611-.074-121.824-.195-314.57l.195.196-521.075.056.25-.252v314.57l-.232-.242 521.113.242L60.193 352h-.241V36.937h.297l521.076.065h.12v.195c-.111 192.746-.195 312.959-.195 314.57Z" fill="#C44E32"/><path d="M486.959 92.541h124.725a16.79 16.79 0 0 1 11.883 4.93 16.847 16.847 0 0 1 4.922 11.904v2.486c0 4.465-1.77 8.747-4.922 11.904a16.792 16.792 0 0 1-11.883 4.931H503.775a16.792 16.792 0 0 1-11.884-4.931 16.847 16.847 0 0 1-4.922-11.904v-19.32h-.01Z" fill="#C44E32"/><path d="M612.65 104.599c0 .14-24.688.251-55.139.251-30.452 0-55.14-.111-55.14-.251s24.679-.261 55.14-.261c30.46 0 55.139.131 55.139.261ZM612.65 110.633c0 .139-24.688.251-55.139.251-30.452 0-55.14-.112-55.14-.251 0-.14 24.679-.261 55.14-.261 30.46 0 55.139.112 55.139.261ZM566.89 116.219c0 .14-14.445.251-32.264.251-17.819 0-32.255-.111-32.255-.251s14.436-.251 32.255-.251c17.819 0 32.264.111 32.264.251ZM109.598 272.987h-5.651c-15.643 0-28.323 12.702-28.323 28.371v5.661c0 15.668 12.68 28.37 28.323 28.37h5.651c15.642 0 28.323-12.702 28.323-28.37v-5.661c0-15.669-12.681-28.371-28.323-28.371Z" fill="#fff"/><path d="M83.33 325.575s10.225-4.199 20.087-4.264c9.862-.065 26.083 5.028 26.083 5.028s-9.008 10.893-26.083 9.05c-14.24-1.536-20.087-9.814-20.087-9.814Z" fill="#455A64"/><path d="M91.89 283.369c-2.323 1.35-2.88 4.404-3.141 7.086-.26 2.681-.65 5.707-2.789 7.281-1.794 1.294-4.647 1.471-5.4 3.556a2.529 2.529 0 0 0 .77 2.856 2.519 2.519 0 0 0 2.948.161 4.381 4.381 0 0 0 .381 5.093c1.283 1.304 3.857 1.127 4.648-.521a2.226 2.226 0 0 0 2.992 2.955 2.223 2.223 0 0 0 1.144-1.372M119.6 306.86a2.679 2.679 0 0 0 1.139 1.746 2.666 2.666 0 0 0 2.045.395 2.66 2.66 0 0 0 1.704-1.198 2.666 2.666 0 0 0 .327-2.06c-.27-1.089-1.218-2.011-1.116-3.128.121-1.35 1.645-2.04 2.956-2.393 1.311-.354 2.854-.848 3.225-2.151.372-1.304-.594-2.468-1.394-3.501-.799-1.034-1.487-2.542-.688-3.575.409-.522 1.106-.745 1.608-1.183a2.942 2.942 0 0 0 0-4.004 5.347 5.347 0 0 0-4.024-1.545 39.43 39.43 0 0 0-4.416.484 17.633 17.633 0 0 1-13.515-4.414" fill="#263238"/><path d="m91.9 293.834 1.041 30.326a9.629 9.629 0 0 0 3.052 6.743 9.574 9.574 0 0 0 6.931 2.568 9.608 9.608 0 0 0 6.378-2.787 9.643 9.643 0 0 0 2.834-6.366c.121-2.663.223-4.86.223-4.86s7.669-.931 8.059-8.519c.195-3.725 0-11.313-.307-18.213a14.232 14.232 0 0 0-4.159-9.503 14.19 14.19 0 0 0-9.495-4.146h-.735a14.09 14.09 0 0 0-12.96 9.222 14.145 14.145 0 0 0-.862 5.535Z" fill="#EB996E"/><path d="M112.378 319.318a17.777 17.777 0 0 1-9.826-3.221s2.129 5.586 9.761 5.195l.065-1.974Z" fill="#AA6550"/><path d="M116.876 297.735a1.09 1.09 0 0 1-1.096 1.062 1.049 1.049 0 0 1-1.079-1.034c.008-.283.126-.552.329-.749.204-.196.476-.305.759-.303a1.049 1.049 0 0 1 .76.282 1.044 1.044 0 0 1 .327.742ZM118.327 296.404c-.149.13-.93-.512-2.12-.549-1.19-.038-2.045.503-2.175.354-.13-.149.093-.317.474-.568a2.929 2.929 0 0 1 1.748-.466c.61.016 1.197.232 1.673.615.353.27.465.53.4.614ZM105.592 297.419a1.1 1.1 0 0 1-1.097 1.052 1.029 1.029 0 0 1-.993-.62 1.041 1.041 0 0 1-.085-.404 1.09 1.09 0 0 1 1.087-1.043c.138-.005.276.017.405.066a1.043 1.043 0 0 1 .683.949ZM106.8 296.144c-.139.139-.929-.503-2.11-.55-1.18-.046-2.054.512-2.175.363-.121-.149.084-.316.474-.577a3.065 3.065 0 0 1 1.748-.466c.608.026 1.193.24 1.673.615.353.298.465.559.39.615ZM110.714 305.017a7.008 7.008 0 0 1 1.915-.27c.297 0 .585-.066.641-.27a1.578 1.578 0 0 0-.167-.931l-.791-2.319a39.528 39.528 0 0 1-1.756-6.043 38.513 38.513 0 0 1 2.24 5.885c.26.819.511 1.592.753 2.328.174.368.214.787.111 1.182a.756.756 0 0 1-.511.419 2.146 2.146 0 0 1-.511.056 8.147 8.147 0 0 1-1.924-.037ZM107.228 305.715c.195 0 .149 1.276 1.199 2.216 1.05.94 2.408.866 2.417 1.043.009.177-.316.233-.883.223a3.178 3.178 0 0 1-2.027-.791 2.801 2.801 0 0 1-.929-1.862c-.019-.559.139-.829.223-.829ZM107.284 291.563c-.13.316-1.292.111-2.668.223-1.376.112-2.51.447-2.677.149-.074-.14.13-.428.585-.717a4.46 4.46 0 0 1 2.008-.615 4.38 4.38 0 0 1 2.073.326c.493.224.781.485.679.634ZM118.029 292.968c-.223.261-1.013-.046-1.989-.102-.976-.056-1.794.112-1.971-.177-.083-.14.056-.4.428-.633a2.884 2.884 0 0 1 3.188.223c.335.289.437.568.344.689ZM100.508 285.799a6.024 6.024 0 0 0-2.38 3.79v.158c-.381 2.16-.418 4.385-.818 6.518a9.892 9.892 0 0 1-2.91 5.772c-.687.596-1.859.931-2.388.224a1.914 1.914 0 0 1-.233-1.006c-.195-5.27-1.44-9.99-1.217-15.493a4.663 4.663 0 0 1 2.063-3.725c1.19-.782 2.621-1.582 3.876-.931 1.255.652 2.789 3.12 3.718 4.172" fill="#263238"/><path d="M94.373 297.391c-.13-.056-5.178-1.76-5.215 3.473-.037 5.233 5.205 4.181 5.215 4.032.009-.149 0-7.505 0-7.505Z" fill="#EB996E"/><path d="M92.755 302.922s-.093.065-.242.13a.827.827 0 0 1-.678 0 2.24 2.24 0 0 1-1.032-2.02c-.012-.45.08-.896.27-1.304a1.042 1.042 0 0 1 .688-.698.452.452 0 0 1 .53.261c.074.139 0 .242.064.251.066.009.112-.084.075-.298a.548.548 0 0 0-.205-.326.687.687 0 0 0-.502-.14 1.312 1.312 0 0 0-.93.801c-.221.452-.333.95-.325 1.453a2.376 2.376 0 0 0 1.311 2.272 1.004 1.004 0 0 0 .837-.131c.13-.139.158-.251.14-.251Z" fill="#AA6550"/><path d="M96.232 282c-1.209-2.132 2.426-4.991 5.028-5.708 2.603-.717 5.94.68 8.468 1.639 1.599.596 3.17 1.406 4.88 1.406 1.14-.068 2.262-.31 3.328-.717a8.538 8.538 0 0 1 3.365-.521 3.13 3.13 0 0 1 2.668 1.862 1.983 1.983 0 0 1-.116 1.633 1.964 1.964 0 0 1-1.306.983 2.55 2.55 0 0 1 2.366.053 2.553 2.553 0 0 1 1.309 1.974 2.56 2.56 0 0 1-3.173 2.75c.762-.531 1.859.437 1.729 1.359a2.725 2.725 0 0 1-.689 1.173 2.693 2.693 0 0 1-1.171.689 9.772 9.772 0 0 1-6.952-.381c-2.213-.848-4.258-2.114-6.451-3.017-2.194-.903-5.875-2.505-8.143-1.806-1.673.512-2.89 2.458-3.811 1.983a3.175 3.175 0 0 1-1.552-2.412 9.176 9.176 0 0 1 .223-2.97" fill="#263238"/><path d="M119.851 281.674a1.4 1.4 0 0 1 1.292.224c.448.297.792.727.985 1.229a2.567 2.567 0 0 1 0 2.095c-.678 1.499-2.686 2.393-4.712 2.169a12.745 12.745 0 0 1-5.977-2.597 31.237 31.237 0 0 0-5.401-3.446 8.28 8.28 0 0 0-2.64-.698 6.352 6.352 0 0 0-2.351.298 4.88 4.88 0 0 0-2.724 2.021 10.08 10.08 0 0 0-.52 1.182v-.344c.06-.325.17-.639.325-.932a4.921 4.921 0 0 1 2.788-2.253 6.763 6.763 0 0 1 2.482-.382 8.49 8.49 0 0 1 2.789.699 29.866 29.866 0 0 1 5.503 3.454 12.612 12.612 0 0 0 5.735 2.551c1.859.233 3.718-.568 4.369-1.862a2.335 2.335 0 0 0 .083-1.862 2.47 2.47 0 0 0-.846-1.173 2.275 2.275 0 0 0-1.18-.373Z" fill="#455A64"/><path d="M105.722 278.471c0 .075-.697-.167-1.794-.242a7.639 7.639 0 0 0-4.136.866 7.751 7.751 0 0 0-2.984 2.998c-.53.931-.688 1.658-.772 1.639.001-.629.161-1.247.465-1.797a7.087 7.087 0 0 1 3.048-3.26 7.07 7.07 0 0 1 4.388-.79 3.622 3.622 0 0 1 1.785.586ZM91.333 291.432c-.056 0-.325-.493-.39-1.424a5.494 5.494 0 0 1 .985-3.446 5.413 5.413 0 0 1 2.937-2.039 2.615 2.615 0 0 1 1.478-.102c0 .084-.558.121-1.366.428a5.588 5.588 0 0 0-3.718 5.149c0 .875.148 1.415.074 1.434Z" fill="#455A64"/><path d="M119.86 221.135a11.251 11.251 0 0 1-3.216-.68l.084 5.633a49.208 49.208 0 0 1 10.587 3.203 32.426 32.426 0 0 0 8.989-13.426 126.095 126.095 0 0 1-10.03 3.985 17.402 17.402 0 0 1-6.414 1.285ZM105.713 172.569a32.4 32.4 0 0 0-22.93 9.515 32.485 32.485 0 0 0-7.027 10.539 32.529 32.529 0 0 0-2.465 12.432 32.446 32.446 0 0 0 3.31 14.306 32.391 32.391 0 0 0 9.275 11.373 43.952 43.952 0 0 1 12.856-4.516v-3.519h-.8c-4.935-.27-9.899-1.304-14.798-.624a3.838 3.838 0 0 1-2.314-.112 3.455 3.455 0 0 1-1.376-2.504c-.446-2.142-.688-4.656.837-6.248 1.022-1.052 2.788-1.574 3.114-3.007.325-1.434-.828-2.552-1.516-3.725a6.256 6.256 0 0 1 .81-7.123c1.161-1.266 2.853-2.039 3.717-3.538.865-1.499.66-3.072.855-4.655a8.64 8.64 0 0 1 3.719-6.341 6.22 6.22 0 0 1 4.433-.726c2.203-2.971 6.888-1.267 9.24-1.369 3.077-.14 6.321-.224 9.035 1.21a5.314 5.314 0 0 1 1.088-3.594 5.812 5.812 0 0 1 5.205-2.085 4.03 4.03 0 0 1 2.789 1.415 4.196 4.196 0 0 1 .381 3.892 5.714 5.714 0 0 1-4.741 3.836h-.056v.112c.056.232.094.469.112.707.511.931.929 1.956 1.422 2.905a6.272 6.272 0 0 0 2.947 3.036c.929.382 2.007.391 2.937.819 1.636.745 2.463 2.589 2.854 4.348.141.823.35 1.632.622 2.421a3.105 3.105 0 0 0 1.664 1.779c.725.26 1.543.121 2.287.307a3.658 3.658 0 0 1 2.166 1.722c.466.824.819 1.708 1.05 2.626.344 1.117.679 2.235 1.022 3.352.427-2.118.642-4.273.642-6.434a32.515 32.515 0 0 0-9.46-22.978 32.402 32.402 0 0 0-22.906-9.554ZM94.912 235.706a38.432 38.432 0 0 1-9.007-4.925 32.2 32.2 0 0 0 9.007 4.925Z" fill="#fff"/><path d="M116.747 227.019a9.033 9.033 0 0 1-2.701 6.354 9.004 9.004 0 0 1-6.395 2.58 9.005 9.005 0 0 1-6.343-2.705 9.032 9.032 0 0 1-2.576-6.406v-.596a43.952 43.952 0 0 0-12.855 4.516c3.077 2.235 4.043 3.548 8.923 5.093a36.183 36.183 0 0 0 10.885 1.685 32.246 32.246 0 0 0 21.602-8.268 49.264 49.264 0 0 0-10.587-3.203l.047.95Z" fill="#C44E32"/><path d="M107.739 235.883a9.007 9.007 0 0 0 6.308-2.586 9.037 9.037 0 0 0 2.699-6.269v-.931l-.083-5.633a18.82 18.82 0 0 1-2.501-1.136 7.447 7.447 0 0 1-3.839-6.34c0-.829 0-1.788.047-2.878l1.143-7.495c-3.486-1.275-4.499-6.518-4.499-6.518a11.754 11.754 0 0 1-3.988 1.285 3.985 3.985 0 0 1-3.671-1.582c-.725-1.164-.558-2.654-.326-4.004a4.661 4.661 0 0 0-.678-3.445 2.537 2.537 0 0 0-4.034-.363 13.78 13.78 0 0 0-3.328 8.184c-.344 5.521-.558 12.281.102 16.406 1.31 8.287 7.66 9.311 7.66 9.311a21.05 21.05 0 0 0 11.08-2.97s-2.687 5.698-10.969 4.925l-.111-1.955v4.935a9.03 9.03 0 0 0 5.538 8.363 8.985 8.985 0 0 0 3.45.696Zm-3.913-35.754a2.788 2.788 0 0 1 1.701-.559 2.87 2.87 0 0 1 1.682.513c.372.27.502.521.446.586-.055.065-.929-.456-2.11-.437-1.18.018-1.942.586-2.072.456-.131-.131.009-.298.353-.568v.009Zm2.928 4.73a.232.232 0 0 1-.307.14.237.237 0 0 1-.134-.13.235.235 0 0 1 .004-.187.238.238 0 0 1 .126-.129.237.237 0 0 1 .311.306Zm-3.635-6.741a4.513 4.513 0 0 1 3.96.438c.437.298.623.595.539.726-.176.279-1.255-.112-2.602-.252-1.348-.139-2.473 0-2.594-.325-.046-.149.205-.401.697-.596v.009Zm-10.41-.279a2.782 2.782 0 0 1 3.114-.093c.353.242.474.502.4.642-.075.14-.986 0-1.934.093s-1.738.279-1.934 0c-.093-.112.019-.382.354-.652v.01Zm1.794 4.906a1.06 1.06 0 0 1-1.023-1.07 1.02 1.02 0 0 1 1.097-.931 1.07 1.07 0 0 1 1.022 1.07 1.021 1.021 0 0 1-1.097.922v.009Zm1.859-2.048c-.121.14-.93-.456-2.101-.438-1.171.019-1.943.587-2.073.457-.13-.131 0-.317.4-.587a2.786 2.786 0 0 1 1.654-.531c.6-.009 1.19.17 1.683.512.38.261.511.513.446.578l-.01.009Zm1.264 8.613a2.1 2.1 0 0 1-.493-.065.783.783 0 0 1-.483-.429 1.678 1.678 0 0 1 .158-1.145l.818-2.244a37.639 37.639 0 0 1 2.407-5.642 39.812 39.812 0 0 1-1.942 5.819 289.16 289.16 0 0 1-.865 2.225 1.437 1.437 0 0 0-.186.866c.047.196.325.252.614.289a6.959 6.959 0 0 1 1.859.335 8.022 8.022 0 0 1-1.878-.019l-.01.01Zm5.791 3.724a1.904 1.904 0 0 1-1.859 1.136 2.082 2.082 0 0 1-1.515-.81c-.558 0-.865-.186-.846-.261.018-.074.241-.093.585-.158h.065a.998.998 0 0 1 .706-1.234.99.99 0 0 1 .521.005.936.936 0 0 1 .605-.931c.275-.083.571-.066.836.046.177-.437.223-.763.316-.754.093.01.223.298.177.82 0 .065 0 .149-.047.223a1.767 1.767 0 0 1 .465 1.946l-.009-.028Zm1.097-11.397a1.025 1.025 0 0 1 1.096-.931 1.059 1.059 0 0 1 1.023 1.071 1.022 1.022 0 0 1-1.097.931 1.057 1.057 0 0 1-1.013-1.043l-.009-.028Z" fill="#FFBE9D"/><path d="M94.577 200.706a1.026 1.026 0 0 0-1.097.931 1.063 1.063 0 0 0 1.023 1.071 1.022 1.022 0 0 0 1.097-.931 1.073 1.073 0 0 0-1.023-1.071Z" fill="#263238"/><path d="M95.934 200.101a2.864 2.864 0 0 0-1.682-.512 2.785 2.785 0 0 0-1.655.531c-.353.27-.465.521-.4.586.066.065.93-.465 2.073-.456 1.144.009 1.98.577 2.101.438.12-.14-.065-.317-.437-.587ZM105.527 202.736a1.022 1.022 0 0 0 1.097-.931 1.061 1.061 0 0 0-1.023-1.071 1.025 1.025 0 0 0-1.097.931 1.061 1.061 0 0 0 1.023 1.071Z" fill="#263238"/><path d="M103.426 200.706c.13.131.93-.465 2.073-.456 1.143.009 1.98.577 2.11.438.13-.14-.074-.317-.446-.587a2.875 2.875 0 0 0-1.636-.531 2.786 2.786 0 0 0-1.655.531c-.39.289-.511.54-.446.605ZM97.663 208.974c-.288 0-.567-.093-.614-.288-.03-.301.035-.604.186-.866.28-.708.567-1.453.865-2.226a39.871 39.871 0 0 0 1.943-5.819 37.537 37.537 0 0 0-2.408 5.643l-.818 2.244c-.186.35-.242.756-.158 1.145a.778.778 0 0 0 .483.428 2 2 0 0 0 .493.065 8.027 8.027 0 0 0 1.86 0 6.996 6.996 0 0 0-1.832-.326Z" fill="#263238"/><path d="M98.844 223.863c8.282.773 10.968-4.926 10.968-4.926a21.036 21.036 0 0 1-11.08 2.98l.112 1.946ZM103.008 211.144a2.69 2.69 0 0 1-.93 1.546 3.093 3.093 0 0 1-1.998.698 2.086 2.086 0 0 0 1.515.81 1.905 1.905 0 0 0 1.859-1.136 1.774 1.774 0 0 0-.446-1.918Z" fill="#EB996E"/><path d="M102.562 210.855a1.236 1.236 0 0 0-.837-.046.926.926 0 0 0-.604.931.99.99 0 0 0-.973.254 1.002 1.002 0 0 0-.254.975 3.629 3.629 0 0 0 1.738-.754 3.17 3.17 0 0 0 .93-1.36Z" fill="#EB996E"/><path d="M102.087 212.69a2.69 2.69 0 0 0 .93-1.546c0-.075 0-.158.046-.223 0-.522-.093-.829-.176-.82-.084.009-.14.317-.316.754-.186.524-.507.99-.93 1.35a3.626 3.626 0 0 1-1.738.755h-.065c-.344.065-.586.083-.586.158 0 .074.288.242.846.261a3.094 3.094 0 0 0 1.989-.689ZM105.016 199.021c1.347.14 2.426.531 2.602.251.084-.13-.102-.428-.539-.726a4.507 4.507 0 0 0-3.96-.437c-.492.195-.743.446-.697.586.121.317 1.246.168 2.594.326ZM94.289 198.472c.93-.047 1.748.177 1.933-.093.186-.27 0-.401-.4-.643a2.786 2.786 0 0 0-3.113.093c-.335.27-.446.54-.353.661.158.261.985-.009 1.933-.018Z" fill="#263238"/><path d="M135.43 205.539a3.653 3.653 0 0 0-2.166-1.723c-.743-.186-1.561-.046-2.287-.307a3.106 3.106 0 0 1-1.663-1.778 15.445 15.445 0 0 1-.623-2.421c-.391-1.76-1.218-3.604-2.854-4.349-.929-.428-1.998-.437-2.937-.819a6.27 6.27 0 0 1-2.947-3.035c-.502-.931-.929-1.956-1.422-2.905v.354s-.139-.326-.325-.82c.004.068.004.137 0 .205a5.83 5.83 0 0 1-1.218 3.147c-1.673 2.421-6.209 3.873-10.336 2.076a4.878 4.878 0 0 1-2.333-2.244 19.3 19.3 0 0 1-.93-2.793 6.153 6.153 0 0 0-2.974-3.64 6.623 6.623 0 0 0-3.142-.848c-.781 0-1.209.112-1.218.075-.01-.037.102-.056.307-.112.305-.072.616-.116.93-.13a6.556 6.556 0 0 1 4.012 1.174 6.582 6.582 0 0 1 2.494 3.36c.242.953.553 1.886.93 2.793a4.405 4.405 0 0 0 2.137 2.03 7.95 7.95 0 0 0 2.947.736c.958.076 1.923.013 2.863-.186a7.055 7.055 0 0 0 4.09-2.412 6.013 6.013 0 0 0 1.292-2.97v-.522a6.344 6.344 0 0 0-1.19-1.862 9.94 9.94 0 0 0-2.853-1.946c.36-.037.724.027 1.05.186a5.58 5.58 0 0 1 3.337 3.622h.056a5.718 5.718 0 0 0 4.74-3.836 4.192 4.192 0 0 0-.381-3.892 4.04 4.04 0 0 0-2.788-1.415 5.812 5.812 0 0 0-5.206 2.086 5.315 5.315 0 0 0-1.087 3.594c-2.715-1.434-5.959-1.35-9.035-1.211-2.352.103-7.037-1.601-9.24 1.369a6.22 6.22 0 0 0-4.434.726 8.633 8.633 0 0 0-3.718 6.341c-.195 1.574-.074 3.268-.855 4.656-.78 1.387-2.538 2.271-3.718 3.538a6.25 6.25 0 0 0-.809 7.123c.688 1.21 1.86 2.411 1.515 3.724-.344 1.313-2.091 1.955-3.114 3.007-1.524 1.574-1.282 4.106-.836 6.248a3.465 3.465 0 0 0 1.376 2.505 3.83 3.83 0 0 0 2.314.111c4.899-.679 9.862.354 14.798.624h.8v-.856s-6.35-1.062-7.66-9.311c-.66-4.125-.446-10.885-.102-16.406a13.786 13.786 0 0 1 3.328-8.185 2.54 2.54 0 0 1 3.21-.457c.334.206.616.487.824.821a4.661 4.661 0 0 1 .678 3.445c-.232 1.35-.4 2.84.326 4.003a3.978 3.978 0 0 0 3.671 1.583 11.769 11.769 0 0 0 3.988-1.285s1.013 5.252 4.499 6.518l-1.143 7.495a39.416 39.416 0 0 0-.047 2.877 7.458 7.458 0 0 0 3.839 6.341 18.82 18.82 0 0 0 2.501 1.136c1.033.384 2.116.613 3.216.68 2.2-.019 4.376-.455 6.414-1.285a121.532 121.532 0 0 0 10.029-3.985 32.28 32.28 0 0 0 1.199-4.348c-.344-1.118-.678-2.235-1.022-3.352a10.557 10.557 0 0 0-1.097-2.663Z" fill="#263238"/><path d="M106.317 204.673a.248.248 0 0 0-.022.093.232.232 0 0 0 .152.223.23.23 0 0 0 .093.017.223.223 0 0 0 .167-.076.223.223 0 0 0 .047-.08.237.237 0 0 0-.13-.308.239.239 0 0 0-.307.131Z" fill="#263238"/><path d="M115.045 183.742a1.943 1.943 0 0 0-1.05-.186 9.959 9.959 0 0 1 2.854 1.946 6.328 6.328 0 0 1 1.189 1.862v-.698s.047.102.084.307c.018.239.018.478 0 .717.186.493.27.838.325.819.056-.018.047-.139 0-.354a4.445 4.445 0 0 0-.111-.707v-.112a5.592 5.592 0 0 0-3.337-3.622l.046.028Z" fill="#C44E32"/><path d="M118.131 187.019c-.037-.204-.065-.307-.083-.307v1.22a6.013 6.013 0 0 1-1.292 2.97 7.058 7.058 0 0 1-4.09 2.412 10.01 10.01 0 0 1-2.863.186 7.945 7.945 0 0 1-2.947-.736 4.407 4.407 0 0 1-2.138-2.03 20.276 20.276 0 0 1-.929-2.793 6.582 6.582 0 0 0-2.494-3.36 6.56 6.56 0 0 0-4.013-1.174 5.025 5.025 0 0 0-.93.13c-.204.056-.306.093-.306.112 0 0 .436-.075 1.217-.075a6.619 6.619 0 0 1 3.142.848 6.15 6.15 0 0 1 2.975 3.64c.238.954.549 1.887.929 2.793a4.886 4.886 0 0 0 2.333 2.244c4.127 1.797 8.664.345 10.337-2.076a5.822 5.822 0 0 0 1.217-3.147 4.768 4.768 0 0 0-.065-.857Z" fill="#455A64"/><path d="M106.698 84.543h-5.447c-15.072 0-27.29 12.24-27.29 27.337v5.456c0 15.098 12.218 27.337 27.29 27.337h5.447c15.073 0 27.291-12.239 27.291-27.337v-5.456c0-15.097-12.218-27.337-27.291-27.337Z" fill="#fff"/><path d="M81.982 135.856s10.355-4.209 19.864-4.656c16.387-.847 24.781 3.995 24.781 3.995s-7.65 10.577-24.763 9.618c-13.775-.81-19.882-8.957-19.882-8.957Z" fill="#263238"/><path d="M105.917 143.249a8.604 8.604 0 0 1-5.849-2.456 8.63 8.63 0 0 1-2.582-5.803c-.139-3.324-.25-6.387-.25-6.387s-6.963-.736-7.381-7.645c-.418-6.908 0-22.858 0-22.858a23.993 23.993 0 0 1 24.261 1.862l1.059.736-.502 34.059a8.618 8.618 0 0 1-5.445 7.893 8.581 8.581 0 0 1-3.311.599Z" fill="#FFBE9D"/><path d="M97.217 128.509a16.107 16.107 0 0 0 8.877-2.998s-1.859 5.075-8.803 4.786l-.074-1.788Z" fill="#EB996E"/><path d="M114.683 107.914c.111-.056 4.647-1.639 4.75 3.1.102 4.74-4.648 3.836-4.694 3.725-.047-.112-.056-6.825-.056-6.825Z" fill="#FFBE9D"/><path d="M116.151 112.895s.084.056.233.121a.853.853 0 0 0 .613 0 2.057 2.057 0 0 0 .93-1.862 2.804 2.804 0 0 0-.251-1.183.937.937 0 0 0-.632-.624.416.416 0 0 0-.484.233c-.055.14 0 .233 0 .242 0 .01-.111-.084-.074-.279a.526.526 0 0 1 .186-.298.658.658 0 0 1 .455-.13c.195.035.377.121.528.249.152.127.268.291.337.477.21.405.315.856.307 1.313a2.137 2.137 0 0 1-1.162 2.067.937.937 0 0 1-.753-.112c-.214-.13-.242-.205-.233-.214Z" fill="#EB996E"/><path d="M93.164 109.506a.989.989 0 0 0 .93.996.932.932 0 0 0 .935-.554.934.934 0 0 0 .078-.377 1.008 1.008 0 0 0-.93-1.006.94.94 0 0 0-.938.561.93.93 0 0 0-.075.38ZM91.965 107.569c.12.13.874-.428 1.933-.419 1.06.009 1.86.531 1.952.4.093-.13-.065-.288-.4-.54a2.715 2.715 0 0 0-1.57-.474 2.54 2.54 0 0 0-1.534.493c-.335.251-.437.484-.381.54ZM103.37 109.627a.976.976 0 0 0 .93.996.916.916 0 0 0 .695-.225.941.941 0 0 0 .318-.659.998.998 0 0 0-1.302-.964.94.94 0 0 0-.552.487.938.938 0 0 0-.089.365ZM102.404 107.774c.13.121.873-.428 1.933-.428s1.859.54 1.961.409c.103-.13-.065-.298-.409-.54a2.68 2.68 0 0 0-1.561-.484 2.554 2.554 0 0 0-1.543.494c-.326.251-.437.484-.381.549ZM98.555 115.66a7.253 7.253 0 0 0-1.729-.307c-.27 0-.53-.084-.576-.27-.02-.282.045-.565.186-.81l.8-2.067a35.023 35.023 0 0 0 1.803-5.41 35.61 35.61 0 0 0-2.231 5.252l-.772 2.085c-.17.327-.219.703-.139 1.062a.679.679 0 0 0 .446.4c.152.042.308.064.465.065.58.077 1.167.077 1.747 0ZM101.678 116.396c-.176 0-.176 1.145-1.162 1.965-.985.819-2.212.698-2.221.856-.01.158.27.224.79.233a2.847 2.847 0 0 0 1.859-.643c.511-.408.844-.999.93-1.648.009-.456-.121-.772-.196-.763ZM102.134 103.603c.102.288 1.162.149 2.408.298 1.245.149 2.258.493 2.426.232.074-.121-.103-.4-.512-.679a4.23 4.23 0 0 0-3.718-.401c-.418.177-.65.41-.604.55ZM92.355 104.487c.186.242.93 0 1.804 0 .873 0 1.617.168 1.794-.093.074-.121 0-.363-.372-.586a2.429 2.429 0 0 0-1.46-.401c-.515.01-1.015.18-1.431.484-.316.233-.418.485-.335.596Z" fill="#263238"/><path d="M86.341 93.537a2.555 2.555 0 0 1 .93-2.29 1.857 1.857 0 0 1 2.342.177 2.118 2.118 0 0 1 1.014-2.292c.26-.149.548-.24.845-.269 1.125-.074 2.083.782 3.18 1.08a5.169 5.169 0 0 0 3.225-.372c1.022-.419 1.98-.987 3.012-1.369a8.835 8.835 0 0 1 6.712.293 8.858 8.858 0 0 1 4.572 4.93A3.916 3.916 0 0 1 116.328 95a6.421 6.421 0 0 1 .985 4.544 13.852 13.852 0 0 1-.79 3.11v.27c-.074 3.799-.502 8.277-2.119 8.296-2.789 0-2.157-5.289-2.157-5.289-3.467-1.34-2.175-6.517-3.039-7.337-.865-.819-2.687-2.625-9.946 1.09a14.063 14.063 0 0 1-8.617.931h-.251a6.285 6.285 0 0 1-1.859-.792 3.721 3.721 0 0 1-1.599-1.74 2.023 2.023 0 0 1 .39-2.17 4.501 4.501 0 0 1-.985-2.375Z" fill="#263238"/></svg>