<svg width="119" height="88" viewBox="0 0 119 88" fill="none" xmlns="http://www.w3.org/2000/svg">
<g opacity="0.4">
<path d="M9.89099 43.705C14.119 40.0416 19.4517 37.899 25.039 37.6188C30.6263 37.3386 36.1466 38.9369 40.7199 42.1588C45.2932 45.3808 48.6564 50.041 50.2731 55.3966C51.8899 60.7522 51.6674 66.4949 49.6409 71.7093C47.6144 76.9237 43.9007 81.3096 39.0917 84.1679C34.2827 87.0262 28.6552 88.1924 23.1064 87.4806C17.5575 86.7687 12.4067 84.2198 8.4749 80.2402C4.54312 76.2605 2.05675 71.0792 1.41211 65.5221C-0.8172 54.1877 -0.792152 40.6804 4.31772 28.5757C9.71565 15.8011 20.6054 5.03026 39.1976 0.164612C39.7963 0.00177765 40.4214 -0.040802 41.0367 0.0393295C41.652 0.119461 42.2453 0.320724 42.7823 0.631477C43.3194 0.942238 43.7895 1.35633 44.1656 1.84984C44.5417 2.34335 44.8163 2.90649 44.9735 3.50672C45.1307 4.10696 45.1674 4.7324 45.0815 5.3469C44.9956 5.9614 44.7887 6.55279 44.4729 7.08689C44.1571 7.62099 43.7386 8.08723 43.2416 8.45867C42.7446 8.83011 42.1789 9.09937 41.5772 9.25092C25.7278 13.4027 17.2051 22.2135 12.9719 32.2328C11.4452 35.9048 10.4093 39.7621 9.89099 43.705Z" fill="#03669A"/>
<path d="M76.891 43.705C81.119 40.0416 86.4517 37.899 92.039 37.6188C97.6263 37.3386 103.147 38.9369 107.72 42.1588C112.293 45.3808 115.656 50.041 117.273 55.3966C118.89 60.7522 118.667 66.4949 116.641 71.7093C114.614 76.9237 110.901 81.3096 106.092 84.1679C101.283 87.0262 95.6552 88.1924 90.1064 87.4806C84.5575 86.7687 79.4067 84.2198 75.4749 80.2402C71.5431 76.2605 69.0567 71.0792 68.4121 65.5221C66.1828 54.1877 66.2078 40.6804 71.3177 28.5757C76.7156 15.8011 87.6054 5.03026 106.198 0.164612C106.796 0.00177765 107.421 -0.040802 108.037 0.0393295C108.652 0.119461 109.245 0.320724 109.782 0.631477C110.319 0.942238 110.79 1.35633 111.166 1.84984C111.542 2.34335 111.816 2.90649 111.973 3.50672C112.131 4.10696 112.167 4.7324 112.081 5.3469C111.996 5.9614 111.789 6.55279 111.473 7.08689C111.157 7.62099 110.739 8.08723 110.242 8.45867C109.745 8.83011 109.179 9.09937 108.577 9.25092C92.7278 13.4027 84.2051 22.2135 79.9719 32.2328C78.4452 35.9048 77.4093 39.7621 76.891 43.705Z" fill="#03669A"/>
</g>
</svg>
