<svg width="40" height="43" viewBox="0 0 40 43" fill="none" xmlns="http://www.w3.org/2000/svg">
<path fill-rule="evenodd" clip-rule="evenodd" d="M1.53846 6.15385C2.38813 6.15385 3.07692 6.84264 3.07692 7.69231V19.9613C3.07807 19.9717 3.08022 19.9886 3.08404 20.0115C3.09646 20.0861 3.12643 20.2233 3.19667 20.4039C3.33376 20.7564 3.63858 21.3123 4.33455 21.9088C5.73744 23.1113 8.90203 24.6154 15.8974 24.6154C22.8928 24.6154 26.0574 23.1113 27.4603 21.9088C28.1563 21.3123 28.4611 20.7564 28.5982 20.4039C28.6684 20.2233 28.6984 20.0861 28.7108 20.0115C28.7147 19.9886 28.7168 19.9717 28.718 19.9613V7.69231C28.718 6.84264 29.4067 6.15385 30.2564 6.15385C31.1061 6.15385 31.7949 6.84264 31.7949 7.69231V20H30.2564C31.7949 20 31.7949 20.0018 31.7949 20.0036L31.7949 20.0073L31.7948 20.0153L31.7946 20.0329L31.7933 20.0755C31.7922 20.107 31.7901 20.1448 31.7867 20.1884C31.78 20.2756 31.7677 20.3864 31.7459 20.5173C31.7022 20.7793 31.62 21.1228 31.4659 21.5191C31.1543 22.3205 30.5617 23.3031 29.4628 24.245C27.2759 26.1195 23.261 27.6923 15.8974 27.6923C8.53387 27.6923 4.51897 26.1195 2.33212 24.245C1.23321 23.3031 0.640601 22.3205 0.328967 21.5191C0.174848 21.1228 0.092638 20.7793 0.0489773 20.5173C0.02715 20.3864 0.0149185 20.2756 0.00813802 20.1884C0.00474612 20.1448 0.00271259 20.107 0.00152649 20.0755L0.000318503 20.0329L7.17701e-05 20.0153L1.6995e-05 20.0073L4.15704e-06 20.0036C9.78128e-07 20.0018 0 20 1.53846 20H0V7.69231C0 6.84264 0.688793 6.15385 1.53846 6.15385ZM32.3077 26.6667C33.1574 26.6667 33.8462 27.3555 33.8462 28.2051V36.7986L37.3737 33.2711C37.9745 32.6703 38.9486 32.6703 39.5494 33.2711C40.1502 33.8719 40.1502 34.846 39.5494 35.4468L33.3956 41.6007C33.0951 41.9011 32.7014 42.0513 32.3077 42.0513C32.0991 42.0513 31.9002 42.0098 31.7188 41.9345C31.5373 41.8595 31.3673 41.7482 31.2198 41.6007L25.066 35.4468C24.4652 34.846 24.4652 33.8719 25.066 33.2711C25.6668 32.6703 26.6409 32.6703 27.2417 33.2711L30.7692 36.7986V28.2051C30.7692 27.3555 31.458 26.6667 32.3077 26.6667Z" fill="#03669A"/>
<path fill-rule="evenodd" clip-rule="evenodd" d="M3.08218 7.69231C3.08275 7.69595 3.08337 7.69979 3.08404 7.70381C3.09646 7.77838 3.12643 7.91562 3.19667 8.09624C3.33376 8.44874 3.63858 9.0046 4.33455 9.60114C5.73744 10.8036 8.90203 12.3077 15.8974 12.3077C22.8928 12.3077 26.0574 10.8036 27.4603 9.60114C28.1563 9.0046 28.4611 8.44874 28.5982 8.09624C28.6684 7.91562 28.6984 7.77838 28.7108 7.70381C28.7115 7.69979 28.7121 7.69595 28.7127 7.69231C28.7121 7.68866 28.7115 7.68482 28.7108 7.68081C28.6984 7.60623 28.6684 7.469 28.5982 7.28838C28.4611 6.93588 28.1563 6.38002 27.4603 5.78347C26.0574 4.58099 22.8928 3.07692 15.8974 3.07692C8.90203 3.07692 5.73744 4.58099 4.33455 5.78347C3.63858 6.38002 3.33376 6.93588 3.19667 7.28838C3.12643 7.469 3.09646 7.60623 3.08404 7.68081C3.08337 7.68482 3.08275 7.68866 3.08218 7.69231ZM30.2564 7.69231C31.7949 7.69231 31.7949 7.69053 31.7949 7.68872L31.7949 7.68499L31.7948 7.67705L31.7946 7.65936L31.7933 7.6168C31.7922 7.58528 31.7901 7.54751 31.7867 7.5039C31.78 7.41672 31.7677 7.30593 31.7459 7.17496C31.7022 6.913 31.62 6.56947 31.4659 6.17316C31.1543 5.37181 30.5617 4.38921 29.4628 3.4473C27.2759 1.57285 23.261 0 15.8974 0C8.53387 0 4.51897 1.57285 2.33212 3.4473C1.23321 4.38921 0.640601 5.37181 0.328967 6.17316C0.174848 6.56947 0.092638 6.913 0.0489773 7.17496C0.02715 7.30593 0.0149185 7.41672 0.00813802 7.5039C0.00474612 7.54751 0.00271259 7.58528 0.00152649 7.6168L0.000318503 7.65936L7.17701e-05 7.67705L1.6995e-05 7.68499L4.15704e-06 7.68872C9.78128e-07 7.69053 0 7.69231 1.53846 7.69231C0 7.69231 9.78128e-07 7.69409 4.15704e-06 7.69589L1.6995e-05 7.69963L7.17701e-05 7.70756L0.000318503 7.72525L0.00152649 7.76782C0.00271259 7.79933 0.00474612 7.83711 0.00813802 7.88072C0.0149185 7.96789 0.02715 8.07869 0.0489773 8.20965C0.092638 8.47162 0.174848 8.81515 0.328967 9.21145C0.640601 10.0128 1.23321 10.9954 2.33212 11.9373C4.51897 13.8118 8.53387 15.3846 15.8974 15.3846C23.261 15.3846 27.2759 13.8118 29.4628 11.9373C30.5617 10.9954 31.1543 10.0128 31.4659 9.21145C31.62 8.81515 31.7022 8.47162 31.7459 8.20965C31.7677 8.07869 31.78 7.96789 31.7867 7.88072C31.7901 7.83711 31.7922 7.79933 31.7933 7.76782L31.7946 7.72525L31.7948 7.70756L31.7949 7.69963L31.7949 7.69589C31.7949 7.69409 31.7949 7.69231 30.2564 7.69231ZM1.53846 18.4615C2.38813 18.4615 3.07692 19.1503 3.07692 20V32.269C3.07807 32.2793 3.08022 32.2963 3.08404 32.3192C3.09646 32.3938 3.12643 32.531 3.19667 32.7116C3.33376 33.0641 3.63858 33.62 4.33455 34.2165C5.73744 35.419 8.90203 36.9231 15.8974 36.9231C16.7471 36.9231 17.4359 37.6119 17.4359 38.4615C17.4359 39.3112 16.7471 40 15.8974 40C8.53387 40 4.51897 38.4271 2.33212 36.5527C1.23321 35.6108 0.640601 34.6282 0.328967 33.8268C0.174848 33.4305 0.092638 33.087 0.0489773 32.825C0.02715 32.6941 0.0149185 32.5833 0.00813802 32.4961C0.00474612 32.4525 0.00271259 32.4147 0.00152649 32.3832L0.000318503 32.3406L7.17701e-05 32.3229L1.6995e-05 32.315L4.15704e-06 32.3113C9.78128e-07 32.3095 0 32.3077 1.53846 32.3077H0V20C0 19.1503 0.688793 18.4615 1.53846 18.4615Z" fill="#03669A"/>
</svg>
