<svg width="18" height="16" viewBox="0 0 18 16" fill="none" xmlns="http://www.w3.org/2000/svg">
<path d="M17.1034 0H0.551724C0.405398 0 0.265064 0.058128 0.161596 0.161596C0.0581279 0.265065 0 0.405398 0 0.551724V1.4731C0.000103162 1.60341 0.0259939 1.73241 0.0761803 1.85267C0.126367 1.97293 0.199856 2.08207 0.292414 2.17379L6.62069 8.59586V14.2234L7.72414 14.6428V8.27586C7.72456 8.20325 7.71064 8.13127 7.68318 8.06405C7.65573 7.99683 7.61527 7.93569 7.56414 7.88414L1.10345 1.42897V1.10345H16.5517V1.44L10.1131 7.88414C10.058 7.93383 10.0134 7.99413 9.98214 8.06144C9.95085 8.12875 9.93347 8.20168 9.93103 8.27586V15.5641L11.0345 16V8.55172L17.3628 2.2069C17.4568 2.11284 17.5311 2.00095 17.5813 1.87778C17.6315 1.75461 17.6566 1.62266 17.6552 1.48966V0.551724C17.6552 0.405398 17.597 0.265065 17.4936 0.161596C17.3901 0.058128 17.2498 0 17.1034 0Z" fill="black"/>
</svg>
