<svg width="36" height="37" viewBox="0 0 36 37" fill="none" xmlns="http://www.w3.org/2000/svg">
<path d="M13.2491 10.0571C13.2491 11.1113 12.8304 12.1223 12.085 12.8677C11.3396 13.6131 10.3286 14.0319 9.2744 14.0319C8.22023 14.0319 7.20924 13.6131 6.46383 12.8677C5.71842 12.1223 5.29966 11.1113 5.29966 10.0571C5.29966 9.00295 5.71842 7.99196 6.46383 7.24655C7.20924 6.50114 8.22023 6.08237 9.2744 6.08237C10.3286 6.08237 11.3396 6.50114 12.085 7.24655C12.8304 7.99196 13.2491 9.00295 13.2491 10.0571ZM10.5993 10.0571C10.5993 9.70572 10.4597 9.36873 10.2113 9.12026C9.96278 8.87179 9.62579 8.7322 9.2744 8.7322C8.92301 8.7322 8.58601 8.87179 8.33754 9.12026C8.08907 9.36873 7.94948 9.70572 7.94948 10.0571C7.94948 10.4085 8.08907 10.7455 8.33754 10.994C8.58601 11.2424 8.92301 11.382 9.2744 11.382C9.62579 11.382 9.96278 11.2424 10.2113 10.994C10.4597 10.7455 10.5993 10.4085 10.5993 10.0571Z" fill="#03669A"/>
<path d="M2.64983 0.782715H14.8019C15.5047 0.782865 16.1785 1.06214 16.6754 1.55911L35.2242 20.1079C35.7209 20.6048 36 21.2787 36 21.9813C36 22.684 35.7209 23.3579 35.2242 23.8548L23.0721 36.0069C22.5751 36.5036 21.9013 36.7827 21.1986 36.7827C20.496 36.7827 19.8221 36.5036 19.3252 36.0069L0.7764 17.4581C0.279426 16.9613 0.000150079 16.2874 0 15.5847V3.43254C0 2.72976 0.279177 2.05577 0.776117 1.55883C1.27306 1.06189 1.94705 0.782715 2.64983 0.782715ZM2.64983 15.5847L21.1986 34.1334L33.3507 21.9813L14.8019 3.43254H2.64983V15.5847Z" fill="#03669A"/>
</svg>
