<svg width="57" height="37" viewBox="0 0 57 37" fill="none" xmlns="http://www.w3.org/2000/svg">
<path d="M56.2177 28.3915C56.2143 23.0263 54.6594 17.7766 51.7404 13.275L48.8411 16.1762C51.041 19.871 52.2022 24.0914 52.2021 28.3915H56.2177ZM52.2021 7.13721L49.3632 4.29822L32.1626 21.4988C30.9385 20.7612 29.538 20.3679 28.1089 20.3604C26.5205 20.3604 24.9677 20.8314 23.647 21.7139C22.3263 22.5964 21.297 23.8506 20.6891 25.3181C20.0812 26.7856 19.9222 28.4004 20.2321 29.9583C20.542 31.5162 21.3069 32.9472 22.43 34.0703C23.5532 35.1935 24.9842 35.9584 26.5421 36.2683C28.1 36.5782 29.7147 36.4191 31.1822 35.8113C32.6497 35.2034 33.904 34.174 34.7865 32.8533C35.6689 31.5326 36.14 29.9799 36.14 28.3915C36.1327 26.9617 35.7394 25.5605 35.0015 24.3358L52.2021 7.13721ZM28.1089 32.407C27.3147 32.407 26.5383 32.1715 25.8779 31.7303C25.2176 31.2891 24.7029 30.6619 24.399 29.9282C24.0951 29.1944 24.0155 28.387 24.1705 27.6081C24.3254 26.8292 24.7079 26.1137 25.2694 25.5521C25.831 24.9905 26.5465 24.608 27.3255 24.4531C28.1044 24.2982 28.9118 24.3777 29.6455 24.6816C30.3793 24.9855 31.0064 25.5002 31.4477 26.1606C31.8889 26.8209 32.1244 27.5973 32.1244 28.3915C32.1233 29.4562 31.6999 30.4769 30.9471 31.2297C30.1943 31.9826 29.1735 32.406 28.1089 32.407ZM28.1089 4.29822C32.4081 4.30018 36.6273 5.46127 40.3221 7.65923L43.2415 4.74194C38.999 2.01372 34.0997 0.47936 29.0589 0.300288C24.0182 0.121215 19.0223 1.30405 14.597 3.72434C10.1717 6.14464 6.48047 9.71292 3.91175 14.0538C1.34302 18.3946 -0.0082757 23.3476 3.81327e-05 28.3915H4.01558C4.02302 22.0038 6.5638 15.8799 11.0806 11.3632C15.5973 6.84644 21.7212 4.30566 28.1089 4.29822Z" fill="#03669A"/>
</svg>
