<svg width="36" height="38" viewBox="0 0 36 38" fill="none" xmlns="http://www.w3.org/2000/svg">
<path d="M17.6921 26.8541C16.1452 26.8541 14.633 26.3954 13.3468 25.536C12.0606 24.6766 11.0581 23.455 10.4661 22.0259C9.87409 20.5967 9.7192 19.024 10.021 17.5068C10.3228 15.9896 11.0677 14.596 12.1615 13.5021C13.2554 12.4083 14.649 11.6634 16.1663 11.3616C17.6835 11.0598 19.2561 11.2147 20.6853 11.8067C22.1144 12.3986 23.336 13.4011 24.1954 14.6874C25.0548 15.9736 25.5136 17.4858 25.5136 19.0327C25.5247 20.0629 25.3301 21.085 24.9409 22.039C24.5518 22.993 23.9761 23.8597 23.2476 24.5882C22.5191 25.3167 21.6524 25.8924 20.6984 26.2815C19.7444 26.6706 18.7224 26.8653 17.6921 26.8541ZM17.6921 13.8184C17.0031 13.8027 16.318 13.9269 15.6783 14.1834C15.0386 14.4399 14.4575 14.8234 13.9702 15.3107C13.4828 15.7981 13.0993 16.3792 12.8428 17.0189C12.5863 17.6586 12.4622 18.3437 12.4778 19.0327C12.4622 19.7218 12.5863 20.4068 12.8428 21.0465C13.0993 21.6863 13.4828 22.2673 13.9702 22.7547C14.4575 23.242 15.0386 23.6256 15.6783 23.882C16.318 24.1385 17.0031 24.2627 17.6921 24.247C18.3812 24.2627 19.0662 24.1385 19.706 23.882C20.3457 23.6256 20.9268 23.242 21.4141 22.7547C21.9015 22.2673 22.285 21.6863 22.5415 21.0465C22.7979 20.4068 22.9221 19.7218 22.9064 19.0327C22.9221 18.3437 22.7979 17.6586 22.5415 17.0189C22.285 16.3792 21.9015 15.7981 21.4141 15.3107C20.9268 14.8234 20.3457 14.4399 19.706 14.1834C19.0662 13.9269 18.3812 13.8027 17.6921 13.8184Z" fill="#03669A"/>
<path d="M35.0366 12.5722L31.9602 7.24321C31.6591 6.72072 31.1859 6.31892 30.6215 6.10639C30.0572 5.89385 29.4365 5.88376 28.8655 6.07782L25.6926 7.15066C25.1458 6.78252 24.5744 6.45237 23.9824 6.16255L23.3267 2.87886C23.2085 2.28761 22.889 1.75561 22.4227 1.37341C21.9564 0.991223 21.372 0.782476 20.7691 0.782715H14.6162C14.0133 0.782476 13.4289 0.991223 12.9625 1.37341C12.4962 1.75561 12.1768 2.28761 12.0586 2.87886L11.4029 6.16255C10.8042 6.44919 10.2262 6.77719 9.67306 7.14414L6.51842 6.07782C5.94776 5.88444 5.32772 5.89488 4.76391 6.10738C4.20009 6.31988 3.7274 6.72129 3.42635 7.24321L0.349918 12.5722C0.048547 13.094 -0.0627661 13.7041 0.0349107 14.2987C0.132587 14.8934 0.433223 15.4358 0.885686 15.8337L3.40288 18.0459C3.38072 18.3744 3.35335 18.7003 3.35335 19.0327C3.35335 19.369 3.36638 19.7014 3.38985 20.0313L0.886989 22.2317C0.434104 22.6293 0.132969 23.1716 0.034814 23.7662C-0.0633408 24.3608 0.0475476 24.9711 0.348614 25.4932L3.42504 30.8222C3.72599 31.3449 4.19904 31.747 4.76343 31.9598C5.32783 32.1726 5.94858 32.1829 6.51972 31.9889L9.69261 30.9148C10.2392 31.2836 10.8107 31.6142 11.4029 31.9042L12.0586 35.1866C12.1768 35.7778 12.4962 36.3098 12.9625 36.692C13.4289 37.0742 14.0133 37.283 14.6162 37.2827H20.2998V34.6756H14.6162L13.6907 30.0479C12.4103 29.5723 11.2218 28.879 10.1775 27.9987L5.68413 29.5186L2.6077 24.1896L6.15993 21.0676C5.9169 19.7195 5.91381 18.3391 6.15081 16.99L2.6077 13.8758L5.68413 8.54679L10.1515 10.0589C11.2032 9.17736 12.401 8.48649 13.6907 8.01754L14.6162 3.38986H20.7691L21.6946 8.01754C22.9749 8.49322 24.1634 9.18648 25.2077 10.0668L29.7011 8.54679L32.7775 13.8758L29.1302 17.0721L30.8483 19.0327L34.4983 15.8337C34.9511 15.4361 35.2523 14.8938 35.3504 14.2992C35.4486 13.7046 35.3377 13.0943 35.0366 12.5722Z" fill="#03669A"/>
<path d="M26.8171 32.3032L23.4409 28.9269L21.6028 30.7649L26.8171 35.9792L35.9421 26.8542L34.1041 25.0162L26.8171 32.3032Z" fill="#03669A"/>
</svg>
