<svg width="69" height="69" viewBox="0 0 69 69" fill="none" xmlns="http://www.w3.org/2000/svg">
<path d="M45.1374 9.80089V66.3892M23.8973 58.9283V2.51313M23.828 2.34003L3.817 9.1777C3.43935 9.27914 3.10717 9.50546 2.87457 9.81979C2.64196 10.1341 2.52263 10.518 2.53602 10.9088V64.5716C2.53602 65.0307 2.7184 65.471 3.04303 65.7956C3.36767 66.1202 3.80797 66.3026 4.26708 66.3026H4.83833L23.88 58.9283L45.172 66.3892L65.183 59.4649C65.5607 59.3635 65.8928 59.1372 66.1254 58.8228C66.358 58.5085 66.4774 58.1247 66.464 57.7339V4.07108C66.464 3.61198 66.2816 3.17168 65.957 2.84704C65.6323 2.52241 65.192 2.34003 64.7329 2.34003L64.1617 2.4612L45.12 9.71433L23.828 2.34003Z" stroke="#C44E32" stroke-width="4" stroke-linecap="round" stroke-linejoin="round"/>
</svg>
