<svg width="67" height="69" viewBox="0 0 67 69" fill="none" xmlns="http://www.w3.org/2000/svg">
<path d="M16.0919 60.9787C21.0522 64.8861 27.1853 67.0064 33.4998 66.9968C40.07 66.9968 46.1163 64.7487 50.9077 60.9787M25.2103 11.8669C13.6896 15.4065 5.31555 26.1314 5.31555 38.8126C5.31555 42.0041 5.84608 45.0712 6.82424 47.931M41.7892 11.8669C53.3099 15.4065 61.684 26.1314 61.684 38.8126C61.684 42.0041 61.1535 45.0712 60.1753 47.931" stroke="#C44E32" stroke-width="4"/>
<path d="M65 55.3917C65 57.6166 64.1246 59.6359 62.6988 61.1247C61.3674 62.5157 59.5932 63.3998 57.6809 63.6252C55.7685 63.8506 53.8374 63.4032 52.219 62.3599C50.6006 61.3166 49.3959 59.7424 48.8117 57.9076C48.2276 56.0728 48.3004 54.0918 49.0176 52.3049C49.7349 50.5179 51.0519 49.0363 52.7425 48.1146C54.4331 47.1929 56.3919 46.8885 58.2825 47.2536C60.1731 47.6188 61.8776 48.6307 63.1034 50.1157C64.3292 51.6007 64.9998 53.4661 65 55.3917V55.3917ZM18.5789 55.3917C18.5789 57.6166 17.7036 59.6359 16.2778 61.1247C14.9463 62.5157 13.1721 63.3998 11.2598 63.6252C9.3475 63.8506 7.41637 63.4032 5.79797 62.3599C4.17957 61.3166 2.97487 59.7424 2.39069 57.9076C1.80651 56.0728 1.87931 54.0918 2.59658 52.3049C3.31385 50.5179 4.63084 49.0363 6.32146 48.1146C8.01207 47.1929 9.97083 46.8885 11.8614 47.2536C13.752 47.6188 15.4566 48.6307 16.6824 50.1157C17.9081 51.6007 18.5787 53.4661 18.5789 55.3917ZM41.7895 10.6285C41.7895 12.8534 40.9141 14.8727 39.4883 16.3615C38.1568 17.7525 36.3827 18.6366 34.4703 18.862C32.558 19.0874 30.6269 18.64 29.0085 17.5967C27.3901 16.5534 26.1854 14.9792 25.6012 13.1444C25.017 11.3096 25.0898 9.32865 25.8071 7.54168C26.5244 5.75471 27.8414 4.27318 29.532 3.35145C31.2226 2.42973 33.1814 2.1253 35.072 2.49045C36.9626 2.8556 38.6671 3.86754 39.8929 5.35254C41.1187 6.83753 41.7892 8.70293 41.7895 10.6285V10.6285Z" stroke="#C44E32" stroke-width="4" stroke-linecap="round" stroke-linejoin="round"/>
</svg>
