<svg width="24" height="24" viewBox="0 0 24 24" fill="none" xmlns="http://www.w3.org/2000/svg">
<path d="M12.8571 17.1429V10.2857H9.42857V12H11.1429V17.1429H8.57143V18.8571H15.4286V17.1429H12.8571ZM12 5.14286C11.7457 5.14286 11.4971 5.21826 11.2857 5.35954C11.0743 5.50081 10.9095 5.70162 10.8122 5.93655C10.7148 6.17148 10.6894 6.43 10.739 6.6794C10.7886 6.9288 10.911 7.1579 11.0909 7.33771C11.2707 7.51752 11.4998 7.63997 11.7492 7.68958C11.9986 7.73919 12.2571 7.71373 12.492 7.61642C12.727 7.5191 12.9278 7.35431 13.069 7.14287C13.2103 6.93144 13.2857 6.68286 13.2857 6.42857C13.2857 6.08758 13.1503 5.76055 12.9091 5.51943C12.668 5.27831 12.341 5.14286 12 5.14286Z" fill="#444444"/>
<path d="M12 24C9.62663 24 7.30655 23.2962 5.33316 21.9776C3.35977 20.6591 1.8217 18.7849 0.913451 16.5922C0.0051994 14.3995 -0.232441 11.9867 0.230582 9.65892C0.693605 7.33115 1.83649 5.19295 3.51472 3.51472C5.19295 1.83649 7.33115 0.693605 9.65892 0.230582C11.9867 -0.232441 14.3995 0.0051994 16.5922 0.913451C18.7849 1.8217 20.6591 3.35977 21.9776 5.33316C23.2962 7.30655 24 9.62663 24 12C24 15.1826 22.7357 18.2348 20.4853 20.4853C18.2348 22.7357 15.1826 24 12 24ZM12 1.71429C9.96568 1.71429 7.97704 2.31754 6.28557 3.44775C4.59409 4.57795 3.27575 6.18436 2.49724 8.06383C1.71874 9.9433 1.51505 12.0114 1.91193 14.0066C2.3088 16.0019 3.28842 17.8346 4.72691 19.2731C6.16539 20.7116 7.99813 21.6912 9.99336 22.0881C11.9886 22.485 14.0567 22.2813 15.9362 21.5028C17.8156 20.7243 19.4221 19.4059 20.5523 17.7144C21.6825 16.023 22.2857 14.0343 22.2857 12C22.2857 9.27206 21.202 6.65585 19.2731 4.72691C17.3442 2.79796 14.7279 1.71429 12 1.71429Z" fill="#444444"/>
</svg>
