<svg width="136" height="30" viewBox="0 0 136 30" fill="none" xmlns="http://www.w3.org/2000/svg">
<mask id="mask0_17_81" style="mask-type:alpha" maskUnits="userSpaceOnUse" x="0" y="0" width="29" height="30">
<path d="M28.486 14.943C28.486 23.196 22.111 29.887 14.248 29.887C6.38501 29.887 0.0100098 23.197 0.0100098 14.943C0.0100098 6.69 6.38501 0 14.248 0C22.11 0 28.486 6.69 28.486 14.943Z" fill="white"/>
</mask>
<g mask="url(#mask0_17_81)">
<path fill-rule="evenodd" clip-rule="evenodd" d="M28.486 14.943C28.486 23.196 22.111 29.887 14.248 29.887C6.38501 29.887 0.0100098 23.197 0.0100098 14.943C0.0100098 6.69 6.38501 0 14.248 0C22.11 0 28.486 6.69 28.486 14.943Z" fill="url(#paint0_linear_17_81)"/>
</g>
<path fill-rule="evenodd" clip-rule="evenodd" d="M10.588 7.17798V22.708L23.402 14.943L10.588 7.17798ZM11.814 9.40798L20.949 14.943L11.814 20.479V9.40798Z" fill="#FFFFFE"/>
<path fill-rule="evenodd" clip-rule="evenodd" d="M7.64197 8.87305V21.013L17.658 14.943L7.64197 8.87305ZM8.86797 11.103L15.205 14.943L8.86797 18.783V11.103Z" fill="#FFFFFE"/>
<path fill-rule="evenodd" clip-rule="evenodd" d="M36.202 10.8941H39.244C41.041 10.8941 42.176 11.9701 42.176 13.6011V13.6251C42.176 15.4401 40.787 16.3901 39.09 16.3901H37.557V18.9931H36.202V10.8941ZM39.134 15.1041C40.159 15.1041 40.799 14.5041 40.799 13.6591V13.6351C40.799 12.6881 40.149 12.1901 39.134 12.1901H37.557V15.1051H39.134V15.1041ZM45.543 10.8941H46.899V17.6971H50.955V18.9931H45.543V10.8941ZM54.002 15.5571V10.8941H55.358V15.4981C55.358 17.0031 56.097 17.8121 57.308 17.8121C58.51 17.8121 59.248 17.0491 59.248 15.5571V10.8941H60.605V15.4871C60.605 17.9051 59.305 19.1201 57.287 19.1201C55.28 19.1201 54.002 17.9051 54.002 15.5571ZM64.446 10.8941H67.885C68.855 10.8941 69.615 11.1961 70.111 11.7041C70.519 12.1441 70.751 12.7451 70.751 13.4511V13.4741C70.751 14.8041 69.989 15.6031 68.91 15.9271L70.993 18.9931H69.395L67.5 16.1701H65.8V18.9931H64.445V10.8941H64.446ZM67.785 14.9091C68.755 14.9091 69.373 14.3761 69.373 13.5551V13.5321C69.373 12.6641 68.777 12.1901 67.775 12.1901H65.8V14.9101H67.784L67.785 14.9091ZM77.126 10.8371H78.382L81.777 18.9931H80.345L79.562 17.0381H75.913L75.12 18.9931H73.731L77.126 10.8371ZM79.066 15.7771L77.732 12.5371L76.41 15.7771H79.066ZM85.077 10.8941H86.432V17.6971H90.489V18.9931H85.077V10.8941ZM93.36 17.8131L94.176 16.7941C94.915 17.4661 95.654 17.8471 96.612 17.8471C97.45 17.8471 97.979 17.4421 97.979 16.8291V16.8061C97.979 16.2271 97.67 15.9161 96.238 15.5681C94.595 15.1511 93.669 14.6421 93.669 13.1511V13.1271C93.669 11.7381 94.772 10.7791 96.304 10.7791C97.428 10.7791 98.32 11.1371 99.104 11.7971L98.376 12.8731C97.682 12.3281 96.987 12.0401 96.281 12.0401C95.487 12.0401 95.025 12.4671 95.025 13.0001V13.0231C95.025 13.6471 95.378 13.9261 96.855 14.2951C98.485 14.7121 99.335 15.3251 99.335 16.6671V16.6901C99.335 18.2061 98.199 19.1081 96.579 19.1081C95.399 19.1081 94.287 18.6801 93.361 17.8131M102.989 18.9921H104.345V10.8941H102.989V18.9921ZM108.044 14.9671V14.9431C108.044 12.6761 109.698 10.7561 112.024 10.7561C113.369 10.7561 114.196 11.1491 114.99 11.8561L114.129 12.9311C113.534 12.3981 112.949 12.0621 111.969 12.0621C110.547 12.0621 109.466 13.3701 109.466 14.9201V14.9431C109.466 16.6091 110.513 17.8361 112.09 17.8361C112.817 17.8361 113.48 17.5931 113.953 17.2221V15.7071H111.98V14.4691H115.265V17.8711C114.505 18.5531 113.413 19.1311 112.045 19.1311C109.631 19.1311 108.045 17.3271 108.045 14.9671M119.005 10.8941H120.361V14.2611H124.042V10.8941H125.399V18.9931H124.042V15.5791H120.361V18.9931H119.005V10.8941ZM128.808 10.8941V12.2131H131.255V18.9931H132.622V12.2131H135.07V10.8941H128.808Z" fill="#ACA3BD"/>
<defs>
<linearGradient id="paint0_linear_17_81" x1="14.248" y1="0.471617" x2="14.248" y2="30.0194" gradientUnits="userSpaceOnUse">
<stop stop-color="#DF5430"/>
<stop offset="1" stop-color="#D6177D"/>
</linearGradient>
</defs>
</svg>
