<svg width="121" height="31" fill="none" xmlns="http://www.w3.org/2000/svg"><path d="M48.893 20.962c0-.262-.161-.443-.504-.523v-.161c.181 0 .826.02.986.02.141 0 .764-.02.946-.02v.16c-.323.061-.483.243-.483.524v3.219c0 1.025.564 1.589 1.75 1.589 1.006 0 1.81-.444 1.81-1.529v-3.32c0-.241-.14-.423-.522-.502v-.162c.141 0 .664.02.825.02.141 0 .704-.02.845-.02v.162c-.363.08-.524.242-.524.503v3.138c0 1.408-.824 2.212-2.595 2.212-1.65 0-2.514-.744-2.514-2.07l-.02-3.24Zm7.08 5.09c.383-.081.544-.263.544-.504v-4.446c0-.382-.202-.542-.543-.643v-.161c.201.02.523.02.683.02.182 0 .363 0 .544-.02l3.882 4.546v-3.882c0-.242-.141-.423-.522-.504v-.16c.14 0 .643.02.825.02.14 0 .683-.02.823-.02v.161c-.362.08-.542.242-.542.503v5.35h-.242c-.141-.04-.422-.201-.844-.663L57.1 21.626v3.922c0 .242.141.424.523.503v.162c-.14 0-.644-.02-.825-.02-.14 0-.683.02-.824.02v-.162Zm30.658-1.208h.162c.08.323.281.623.542.805.323.202.684.302 1.066.282.785 0 1.288-.383 1.288-.986 0-.624-.644-.966-1.388-1.348-.563-.282-1.67-.744-1.67-1.81 0-1.006.765-1.61 1.992-1.61.804 0 1.187.202 1.73.162l-.02 1.206h-.161c-.222-.704-.865-.965-1.57-.965-.804 0-1.085.443-1.085.905 0 .664.643.986 1.387 1.307.825.363 1.73.825 1.73 1.85 0 .967-.764 1.69-2.172 1.69-.825 0-1.327-.241-1.77-.3l-.06-1.188Zm17.622-1.328v2.012c0 .121.061.262.162.343.1.1.22.161.341.161v.16c-.201 0-.824-.02-1.006-.02-.141 0-.744.02-.985.02v-.14a.604.604 0 0 0 .342-.162c.101-.1.161-.22.161-.342v-1.93l.985-.102Zm-.905.242-1.589-2.514c-.263-.443-.483-.684-.785-.785v-.161c.222 0 .805.02.966.02.161 0 .785-.02 1.005-.02v.161c-.201.04-.301.141-.301.282.02.16.081.321.181.462l1.167 1.931 1.126-1.93a1.55 1.55 0 0 0 .202-.504c0-.12-.081-.202-.282-.242v-.16c.181 0 .584.02.724.02.121 0 .584-.02.784-.02v.14c-.442.182-.704.565-.965.986l-1.449 2.395m-30.195-3.52h3.702c.141 0 .282-.02.424-.06h.16l-.02 1.185h-.162c-.14-.382-.282-.684-1.005-.684h-1.61v2.093h1.248c.161 0 .322-.02.502-.04a.555.555 0 0 0 .303-.162.555.555 0 0 0 .161-.301h.16c-.02.181-.02.604-.02.724s.02.563.02.745h-.161c-.08-.242-.181-.424-.443-.484-.161-.04-.321-.04-.502-.04h-1.247v2.455h1.75c.764 0 .986-.323 1.186-.765l.162.04-.162 1.228a13.364 13.364 0 0 0-1.549-.04h-1.85c-.181 0-.825.02-1.026.02v-.162c.342-.06.523-.221.523-.543v-4.526c0-.282-.141-.463-.523-.524l-.02-.16Zm-9.474.704c0-.303-.181-.464-.543-.545v-.16c.201 0 .844.02 1.026.02.161 0 .825-.02 1.025-.02v.161c-.362.08-.542.222-.542.544v4.505c0 .302.181.464.542.543v.162c-.201 0-.845-.02-1.025-.02-.161 0-.825.02-1.026.02v-.162c.362-.06.543-.221.543-.543v-4.505Zm28.143 0c0-.303-.182-.464-.544-.545v-.16c.202 0 .845.02 1.027.02.141 0 .825-.02 1.025-.02v.161c-.362.08-.542.222-.542.544v4.505c0 .302.181.464.542.543v.162c-.201 0-.825-.02-1.025-.02-.141 0-.825.02-1.027.02v-.162c.363-.06.544-.221.544-.543v-4.505Zm5.15-.684c-2.032 0-2.354-.04-2.776-.06v1.226h.16c.142-.543.444-.664.846-.664h1.266v4.707c0 .323-.181.484-.542.544v.16c.202 0 .885-.02 1.025-.02.182 0 .825.02 1.027.02v-.18c-.363-.081-.544-.243-.544-.544V20.8h1.268c.402 0 .704.141.845.663h.161v-1.226c-.383.04-.705.08-2.737.08ZM81.54 23.094c.242.02.505.04.746.04 1.106 0 1.468-.643 1.468-1.207 0-.804-.544-1.287-1.509-1.287-.242 0-.464.02-.705.06v2.394Zm0 2.414c0 .302.202.464.545.543v.162c-.202 0-.846-.02-1.027-.02-.161 0-.784.02-.986.02v-.162c.343-.06.524-.221.524-.543v-4.546c0-.282-.142-.443-.524-.523v-.161c.202 0 .825.02 1.007.02.28 0 1.126-.04 1.447-.04 1.428 0 2.214.583 2.214 1.589 0 .785-.584 1.328-1.51 1.55.162.1.303.22.424.361.24.302.924 1.268 1.206 1.61.282.341.644.724 1.026.744v.141c-.242.04-.464.08-.705.08-.482 0-.864-.16-1.246-.624-.323-.402-.885-1.206-1.207-1.629a1.164 1.164 0 0 0-.403-.363 1.262 1.262 0 0 0-.522-.18c-.081-.02-.182-.02-.283-.04l.02 2.01Zm-14.14-4.485a.934.934 0 0 0-.263-.363 1.088 1.088 0 0 0-.402-.202v-.16c.222 0 .946.02 1.106.02.161 0 .785-.02 1.006-.02v.161c-.201.04-.422.141-.422.343 0 .14.08.32.242.683l1.528 3.48 1.448-3.48c.101-.202.162-.443.202-.664 0-.181-.161-.302-.403-.363v-.16c.201 0 .664.02.805.02.141 0 .684-.02.905-.02v.161c-.362.1-.583.303-.785.764l-2.131 5.01h-.484l-2.353-5.21ZM72.89 5.21c-.241-.544-.622-.946-1.267-1.087v-.322c.404 0 1.73.04 2.032.04.282 0 1.569-.04 1.971-.04v.303c-.362.08-.784.281-.784.643 0 .262.161.623.463 1.308l2.917 6.577 2.756-6.597c.222-.544.382-.946.382-1.268 0-.343-.323-.584-.785-.683v-.303c.362 0 1.248.04 1.529.04.262 0 1.308-.04 1.71-.04v.303c-.684.181-1.106.582-1.49 1.468l-4.063 9.515h-.904L72.89 5.21Zm-39.227 9.515c.524-.121.906-.362.906-.965V5.05c0-.583-.342-.805-.906-.945v-.303c.282 0 1.47.04 1.77.04.344 0 1.59-.04 1.871-.04v.303c-.522.12-.924.362-.924.945v3.64h6.517V5.05c0-.604-.342-.825-.905-.945v-.303c.282 0 1.508.04 1.85.04.283 0 1.509-.04 1.791-.04v.303c-.523.12-.925.362-.925.945v8.73c0 .564.362.805.925.966v.282c-.282 0-1.51-.02-1.79-.02-.343 0-1.57.02-1.851.02v-.282c.522-.121.905-.362.905-.966V9.656H36.36v4.124c0 .604.362.805.925.966v.282c-.281 0-1.529-.02-1.87-.02-.283 0-1.489.02-1.771.02v-.302h.02Zm78.395-.583c.583.08 1.166.12 1.769.12 3.38 0 5.13-2.012 5.13-4.828 0-2.916-1.85-4.968-5.009-4.968-.624 0-1.267.04-1.89.12v9.556Zm-2.857.583c.684-.121 1.046-.383 1.046-1.006V5.05c0-.603-.362-.825-1.026-.945v-.323c.383 0 1.61.04 1.952.04.542 0 2.072-.12 3.279-.12 4.023 0 6.457 2.233 6.457 5.613 0 3.298-2.535 5.732-6.679 5.732-1.187 0-2.615-.1-3.158-.1-.343 0-1.489.04-1.851.04l-.02-.261ZM63.719 9.113c.463.06.945.08 1.407.06 2.113 0 2.776-1.206 2.776-2.272 0-1.51-1.025-2.454-2.875-2.454-.444 0-.886.04-1.328.12v4.546h.02Zm0 4.587c0 .583.362.905 1.045 1.026v.302c-.382 0-1.609-.04-1.95-.04-.303 0-1.51.04-1.891.04v-.302c.623-.121 1.005-.423 1.005-1.026V5.09c0-.523-.282-.865-1.005-.985v-.303c.382 0 1.569.04 1.91.04.544 0 2.113-.1 2.736-.1 2.695 0 4.205 1.107 4.205 3.018 0 1.488-1.127 2.515-2.837 2.917.302.181.563.422.785.684.483.563 1.79 2.434 2.333 3.077.524.644 1.207 1.368 1.951 1.388v.263a7.507 7.507 0 0 1-1.328.14c-.924 0-1.648-.323-2.373-1.187-.623-.744-1.69-2.333-2.293-3.098a2.257 2.257 0 0 0-.765-.684 2.768 2.768 0 0 0-.966-.342c-.181-.02-.341-.06-.522-.08l-.04 3.861v.001Zm35.605-4.587c.464.06.946.08 1.409.06 2.113 0 2.776-1.206 2.776-2.272 0-1.51-1.026-2.454-2.857-2.454-.442 0-.885.04-1.328.12v4.546Zm0 4.587c0 .583.363.905 1.047 1.026v.302c-.383 0-1.61-.04-1.952-.04-.301 0-1.508.04-1.89.04v-.302c.624-.121 1.006-.423 1.006-1.026V5.09c0-.523-.283-.865-.986-.985v-.303c.383 0 1.569.04 1.91.04.564 0 2.113-.1 2.737-.1 2.695 0 4.205 1.107 4.205 3.018 0 1.488-1.128 2.515-2.838 2.917.303.181.564.422.785.684.484.563 1.811 2.434 2.333 3.077.524.644 1.207 1.368 1.932 1.388v.263c-.444.08-.885.14-1.328.14-.926 0-1.65-.323-2.374-1.187-.604-.744-1.69-2.333-2.293-3.098a2.249 2.249 0 0 0-.765-.684 2.76 2.76 0 0 0-.965-.342c-.181-.02-.343-.06-.523-.08l-.04 3.861v.001Zm-44.778-3.178-1.811-4.165-1.67 4.165h3.48Zm-7.203 4.205c.725-.162 1.107-.626 1.369-1.249l3.62-8.65c.142-.362.243-.723.343-1.086h1.006c.08.363.201.745.321 1.087l3.822 8.67c.282.603.564 1.026 1.328 1.227v.282c-.422 0-1.71-.02-1.992-.02-.302 0-1.508.02-1.93.02v-.282c.562-.142.724-.423.724-.684-.02-.262-.101-.523-.222-.764l-.824-1.872h-4.205l-.744 1.872c-.1.221-.161.463-.182.724 0 .322.162.563.805.724v.282c-.382 0-1.367-.02-1.59-.02l-1.628.02-.02-.282Zm43.03-4.205-1.81-4.165-1.67 4.165h3.48Zm-7.182 4.205c.705-.162 1.107-.626 1.368-1.249l3.62-8.65c.141-.362.242-.723.343-1.086h1.006c.081.363.202.745.322 1.087l3.822 8.67c.262.603.563 1.026 1.328 1.227v.282c-.423 0-1.71-.02-1.992-.02-.302 0-1.508.02-1.93.02v-.282c.562-.142.723-.423.723-.684-.02-.262-.1-.523-.201-.764l-.824-1.872H86.57l-.744 1.872a2.13 2.13 0 0 0-.182.724c0 .322.162.563.805.724v.282c-.382 0-1.367-.02-1.59-.02l-1.629.02-.04-.282Z" fill="#1D1D1B"/><path d="M25.336.001H.211c-.12 0-.14.02-.14.141v9.877c0 .302 0 .603.02.905.02.342.06.664.08 1.006.02.302.06.604.12.905.082.523.181 1.046.302 1.549.182.744.403 1.468.684 2.173.303.785.643 1.569 1.026 2.313.302.603.644 1.187.986 1.75.461.753.965 1.478 1.508 2.173.424.563.886 1.106 1.369 1.65.341.382.683.743 1.045 1.126l.724.724c.262.242.504.484.764.704.323.302.645.583.987.865.342.282.663.564 1.006.824.623.464 1.226.926 1.89 1.349.081.04.142.06.202 0 .12-.081.261-.162.381-.222.464-.302.926-.603 1.369-.925.422-.302.825-.624 1.227-.946.402-.321.784-.643 1.187-.985.262-.242.543-.464.784-.724.483-.484.946-.946 1.409-1.429a24.94 24.94 0 0 0 1.167-1.328c.221-.281.462-.542.663-.825.463-.602.905-1.246 1.308-1.89.38-.592.729-1.203 1.046-1.83.201-.363.363-.745.543-1.127.262-.564.463-1.127.664-1.71.221-.644.403-1.308.543-1.971.1-.484.202-.986.262-1.47.06-.381.1-.784.12-1.186.02-.362.06-.724.06-1.086V.14c-.04-.12-.08-.141-.18-.141v.001Zm-.483 10.36c0 .463-.04.925-.08 1.388-.061.623-.162 1.267-.282 1.89a21.278 21.278 0 0 1-.402 1.61 15.437 15.437 0 0 1-.583 1.69 26.08 26.08 0 0 1-1.006 2.132 31.863 31.863 0 0 1-1.368 2.233 29.214 29.214 0 0 1-1.167 1.55c-.725.879-1.49 1.725-2.293 2.534-.362.342-.704.684-1.086 1.005a39.957 39.957 0 0 1-1.791 1.469c-.563.423-1.126.845-1.71 1.227-.12.08-.221.14-.342.222-.04.04-.08.04-.141 0a23.1 23.1 0 0 1-1.408-1.027c-.362-.281-.724-.563-1.086-.864-.302-.242-.584-.504-.865-.765-.643-.563-1.247-1.167-1.85-1.77a32.76 32.76 0 0 1-2.535-3.018 25.676 25.676 0 0 1-1.147-1.73 21.492 21.492 0 0 1-1.146-2.112 21.396 21.396 0 0 1-.886-2.132 17.92 17.92 0 0 1-.523-1.79c-.1-.464-.202-.926-.262-1.409-.064-.454-.118-.91-.16-1.367-.04-.404-.04-.805-.04-1.207V.765c0-.181-.02-.161.16-.161h23.858c.202 0 .161-.02.161.161 0 3.219 0 6.417-.02 9.596Z" fill="#000"/><path d="M24.693.624H.835c-.181 0-.16-.02-.16.162v9.354c0 .402.02.805.04 1.207.04.462.08.904.16 1.367.06.463.161.946.262 1.409.14.603.322 1.207.522 1.79.242.724.544 1.449.886 2.132a21.5 21.5 0 0 0 1.146 2.113c.362.583.744 1.166 1.147 1.73.442.623.925 1.206 1.428 1.79.362.422.724.825 1.106 1.227.603.623 1.207 1.227 1.85 1.77.283.242.564.524.866.765.363.302.724.583 1.086.864.464.363.926.705 1.409 1.027.06.04.08.04.14 0 .122-.08.222-.141.343-.222.582-.39 1.152-.8 1.709-1.227.624-.462 1.207-.965 1.79-1.468.363-.323.725-.664 1.087-1.006.403-.383.764-.784 1.126-1.187.403-.443.785-.885 1.168-1.348.402-.503.804-1.006 1.166-1.549.502-.724.965-1.469 1.368-2.233.383-.704.723-1.408 1.006-2.132.222-.563.422-1.127.583-1.69.161-.523.302-1.066.403-1.609.12-.624.22-1.247.281-1.892.04-.461.081-.924.081-1.387V.806c.04-.222.06-.182-.141-.182ZM4.375 12.513c-.342.02-.704.06-1.046.04-.262-.02-.543.02-.805-.08a.518.518 0 0 1-.363-.422c-.06-.242-.02-.503-.02-.765 0-.242-.04-.282-.28-.282-.182 0-.363-.02-.524-.1a.559.559 0 0 1-.321-.523.99.99 0 0 1 .1-.483c.12-.202.343-.322.563-.262.081.02.162.02.242.02.101 0 .16-.06.16-.18V8.73c0-.262-.02-.503 0-.764.041-.343.02-.684.02-1.046 0-.222-.02-.242-.241-.242-.261 0-.482-.04-.704-.181-.12-.08-.181-.18-.181-.322 0-.141-.02-.301.04-.443.12-.28.363-.362.644-.402.121 0 .222 0 .343-.02.08-.02.1-.06.12-.141.02-.3.02-.603.06-.905.02-.161.142-.221.262-.282a.521.521 0 0 1 .383-.04.522.522 0 0 0 .522-.201.262.262 0 0 1 .362-.08c.242.16.544.221.825.262.161.04.322.02.483 0 .322-.02.643 0 .965.04.08.02.182 0 .262 0 .121 0 .241.02.362.08.101.04.182.061.282.02.382-.18.784-.18 1.206-.16.182.02.363.02.544.02.322-.02.623-.061.904-.283.202-.16.343-.14.525.04.14.142.28.222.502.182a.89.89 0 0 1 .664.161c.1.081.16.202.16.322.021.182 0 .382-.04.564-.04.22.101.421.343.421.201 0 .361.04.523.182.14.12.161.282.161.442 0 .081-.02.141-.04.222-.04.16-.202.302-.424.322-.12.02-.22.04-.342.04-.12.02-.181.101-.161.2.02.323-.04.644-.04.967 0 .482-.04.945-.02 1.428v.12c.04.243.08.283.342.283.202 0 .363.04.544.14.342.222.321.563.141.845-.141.241-.383.322-.665.281-.08-.02-.16 0-.221 0-.081 0-.081.06-.101.101-.04.162-.06.322-.04.482.04.242.04.464-.04.685a.38.38 0 0 1-.222.242c-.226.08-.464.12-.704.12H9.384c-.181 0-.343-.04-.523-.04-.08 0-.141 0-.222.02-.261.1-.522.02-.783.02-.222 0-.384.06-.525.242-.12.16-.32.2-.522.18-.182-.02-.362-.06-.503-.181-.221-.222-.502-.222-.785-.242-.362.04-.764.06-1.146.08ZM19.32 22.19c-.201.06-.402.08-.603.1-.08 0-.1.04-.14.101-.081.3-.041.603-.041.905 0 .12-.04.242-.1.342a.455.455 0 0 1-.223.161c-.401.141-.803.121-1.246.121-.503 0-1.046.04-1.59.04-.16 0-.302.02-.462.02h-.06c-.403-.06-.805 0-1.208-.02a.69.69 0 0 0-.442.14c-.282.222-.563.162-.805 0-.322-.221-.643-.16-.965-.14-.181 0-.343.02-.523 0a2.19 2.19 0 0 0-.886.04c-.1.02-.201 0-.301 0-.262-.02-.523.04-.785.02s-.523.02-.764.04c-.12.02-.222-.04-.343-.06-.1-.02-.2-.02-.301-.06-.182-.082-.302-.203-.322-.403 0-.242-.06-.483-.02-.724 0-.101.02-.182 0-.282-.02-.12-.08-.181-.181-.181-.181 0-.382-.02-.563-.04-.382-.081-.523-.302-.523-.603 0-.303.221-.584.543-.665a.752.752 0 0 1 .423 0c.201.04.262 0 .262-.22 0-.122 0-.243.02-.364.02-.16-.02-.3-.02-.461 0-.383.04-.765.02-1.147 0-.222-.04-.423-.02-.644 0-.081-.04-.081-.101-.081-.262-.02-.524-.04-.764-.12-.283-.08-.464-.323-.384-.663.081-.343.263-.505.604-.564.182-.02.343-.02.524-.02.161 0 .181-.02.181-.182 0-.24-.02-.482-.02-.744 0-.322.14-.443.421-.482.162-.02.323 0 .483 0 .182.02.323-.06.423-.222.141-.222.262-.262.483-.1.242.16.522.241.805.282.422.04.865 0 1.287-.02.322-.02.664-.04.986-.02.201.02.403.04.583.14.06.04.142.04.202 0 .14-.1.3-.12.482-.12.302 0 .603-.02.905 0 .322.02.644.06.965.04.404-.02.825 0 1.187-.202.283-.161.524-.08.785.02.201.081.383.142.584.121.201-.02.382-.02.543.081.182.1.281.241.281.462 0 .222-.06.444-.06.664 0 .202.04.242.262.242.14 0 .281-.02.422.02.241.06.463.28.484.543.02.282-.04.443-.363.603-.142.06-.283.08-.423.08-.262 0-.303.102-.323.344v2.232c0 .08-.02.161-.02.242 0 .06.02.1.08.12.102.02.203.06.303.04.242-.06.623.101.765.302.08.262.02.805-.403.946Zm4.909-11.508c-.161.182-.383.242-.604.242-.382 0-.402.04-.402.403 0 .281-.02.542-.081.804-.04.162-.121.241-.261.282-.101.04-.202.06-.302.06-.462 0-.905.02-1.368 0-.623-.04-1.227 0-1.85-.02a.38.38 0 0 0-.303.121c-.1.1-.2.18-.32.2-.222.061-.424-.04-.625-.14a1.014 1.014 0 0 0-.543-.162c-.905-.02-1.81-.02-2.716-.02a3.026 3.026 0 0 1-.724-.1c-.14-.04-.181-.14-.181-.302v-.28c-.02-.162.04-.364.02-.545 0-.04 0-.08-.02-.14-.06-.182-.06-.182-.261-.182-.222 0-.423-.04-.603-.18a.624.624 0 0 1-.262-.583c.02-.242.16-.464.443-.524.14-.04.3-.02.442-.04.202-.02.242-.08.262-.262.02-.421-.08-.864-.06-1.287 0-.181.02-.383.04-.563 0-.222-.08-.443 0-.664.02-.06-.04-.1-.08-.12-.162-.061-.303-.061-.465-.081-.22-.02-.421-.081-.522-.282-.181-.322.08-.946.564-.905.12 0 .242 0 .362-.02s.181-.101.181-.222c0-.221-.06-.442-.06-.663.02-.242.1-.443.342-.544.16-.06.341-.04.502-.02.08.02.161.02.242.02.1 0 .222-.02.262-.16.02-.101.26-.162.421-.121.182.04.343.14.544.181.362.08.724.08 1.086.04.443-.02.885-.04 1.308.162.04.02.06.04.1 0 .182-.141.423-.141.624-.141.483-.02.966.04 1.468.02.282-.02.543-.081.784-.242.222-.141.383-.121.544.1.02.04.04.061.06.101.04.06.081.081.182.081.2-.02.401-.06.603-.02.222.04.382.202.382.443 0 .221 0 .422-.04.643-.04.222.04.322.262.322.141 0 .281.02.401.04.343.061.504.543.383.825-.14.302-.282.423-.644.423h-.222c-.1 0-.14.04-.14.12-.02.262-.04.544 0 .805.04.222 0 .442-.04.663-.02.121-.02.242 0 .383.02.201.02.422.02.624 0 .201.08.301.282.282.12-.02.261 0 .381.04.363.14.525.784.202 1.105Z" fill="#B61313"/><path d="M18.879 20.942c-.101.02-.202-.02-.302-.04-.06-.02-.08-.06-.08-.121 0-.08.04-.161.02-.242v-2.232c0-.242.06-.342.322-.342.14 0 .282-.02.422-.08.323-.162.383-.323.363-.604a.62.62 0 0 0-.484-.543c-.141-.04-.282-.02-.422-.02-.201 0-.262-.04-.262-.243 0-.22.06-.441.06-.663 0-.22-.1-.362-.282-.462-.18-.08-.36-.1-.542-.08-.202.04-.382-.04-.583-.122-.242-.1-.504-.181-.785-.02-.363.202-.785.182-1.187.202-.322.02-.644-.02-.965-.04-.303-.02-.604 0-.906 0a.954.954 0 0 0-.483.12c-.08.04-.14.04-.201 0-.18-.1-.382-.14-.583-.14a8.04 8.04 0 0 0-.985.02c-.424.04-.866.06-1.288.02a1.607 1.607 0 0 1-.805-.283c-.222-.14-.343-.12-.483.101-.1.162-.222.222-.422.222-.162 0-.322-.04-.483 0-.282.04-.423.161-.423.482 0 .242.02.484.02.745 0 .162-.02.182-.181.182-.18 0-.34 0-.522.02-.342.04-.524.22-.603.563-.081.341.12.582.382.663.242.08.502.121.764.121.06 0 .101 0 .101.08 0 .222.02.422.02.644 0 .382-.04.764-.02 1.146 0 .162.04.303.02.463-.02.121-.02.242-.02.362 0 .222-.04.262-.262.222-.141-.04-.283-.02-.423 0-.321.08-.542.342-.542.664 0 .282.141.522.522.603.182.04.383.06.564.04.12 0 .181.06.181.181.02.101 0 .182 0 .283-.02.24.02.482.02.723 0 .201.121.323.322.403.101.04.202.04.302.06.12.02.242.06.341.06.263-.02.504-.06.765-.04.262.02.523-.04.784-.02.101 0 .202.02.303 0 .281-.081.583-.06.884-.04.182.02.343 0 .523 0 .323-.02.664-.081.965.14.242.182.525.222.805 0a.687.687 0 0 1 .444-.14c.401.02.803-.041 1.206.02h.06c.161 0 .323-.02.464-.02.543 0 1.085-.041 1.588-.041.443 0 .865.02 1.247-.121a.46.46 0 0 0 .222-.16c.06-.101.101-.222.101-.343 0-.3-.04-.603.04-.905.02-.08.06-.1.14-.1.202-.02.403-.04.604-.101.423-.14.484-.684.302-.965-.02-.182-.423-.343-.664-.283v.001Zm-1.81-3.721c0-.263-.02-.524-.02-.805 0-.182.04-.343.02-.523 0-.06.04-.101.1-.121.04-.02.081.02.101.04.18.141.221.343.241.544v.221h.02v4.808c0 .362-.02.724-.02 1.066 0 .04 0 .08-.04.1-.04.02-.08 0-.121-.04-.222-.242-.363-.503-.282-.845.04-.181.04-.383-.02-.584v-.1c0-.804-.02-1.609 0-2.413.02-.424.02-.886.02-1.348Zm-4.205 1.83c0-.04-.02-.101.06-.101.06 0 .101.06.101.12 0 .061-.04.102-.1.102-.081-.02-.061-.081-.061-.121Zm-.202-.583v.12c0 .142-.04.282-.02.442 0 .081-.04.142-.12.142-.08 0-.12-.06-.12-.142-.021-.14.02-.28.06-.422.02-.04.06-.1.06-.141 0-.06.06-.08.08-.08.02 0 .061.04.061.08ZM8.82 15.61c0-.04.06-.04.101-.04.162 0 .303.06.443.12.141.061.282.082.443.082.321.02.663 0 .985-.02.262-.02.543-.04.804-.04.263 0 .504.02.765.08.1.02.262.2.262.321-.02.383-.02.765-.02 1.147-.02.382-.162.764-.262 1.126-.121.402-.201.825-.302 1.227-.04.142-.08.303-.141.443-.04.1-.121.141-.2.181-.061.04-.142.081-.122.16.02.061.101.082.182.102.14.04.262 0 .402 0 .1 0 .121-.081.121-.162-.02-.282.08-.522.202-.764.02-.04.06-.08.12-.08.08 0 .06.08.06.12.04.242.02.483.02.704-.02.363-.02.705.02 1.067a6.2 6.2 0 0 1 0 .864c0 .101-.06.141-.16.141-.122 0-.223-.02-.344-.02-.24-.04-.461-.02-.702 0-.283.02-.545 0-.825-.02-.363-.02-.705 0-1.067 0-.222 0-.443-.04-.603-.202-.04-.04-.06-.08-.06-.16v-1.386c0-.404.02-.825 0-1.228-.02-.583-.02-1.186-.02-1.77 0-.382.02-.744.02-1.127 0-.201 0-.403-.061-.583-.1-.121-.06-.202-.06-.282Zm-.724 6.86v-.06h.02c0-.945.02-1.89 0-2.836-.02-.764-.02-1.529-.02-2.293 0-.323.02-.624.02-.946 0-.161.122-.282.222-.402.04-.06.18.02.18.1 0 .061 0 .142-.02.202-.04.101 0 .221 0 .322 0 1.126-.02 2.273 0 3.4.02.683 0 1.368.02 2.051 0 .222-.08.402-.241.564-.04.04-.08.08-.121.06-.04-.06-.06-.1-.06-.161v-.001Zm3.943 1.005c-.1.02-.222.06-.322.04-.221-.02-.422.02-.643.02-.363 0-.745.061-1.127.041-.202-.02-.423-.04-.623-.02-.463.06-.946.04-1.41.04-.22 0-.3-.1-.34-.302-.041-.241-.021-.502-.021-.743 0-.343-.182-.524-.522-.524-.202 0-.384 0-.564-.08-.141-.06-.141-.202-.04-.302.14-.12.342-.12.523-.141.121-.02.262 0 .382-.02.08-.02.161-.141.182-.241.06-1.027.02-2.052.02-3.057 0-.323-.182-.444-.504-.404-.16.02-.322.02-.482-.02-.121-.04-.222-.16-.202-.24a.3.3 0 0 1 .242-.243c.181-.04.362-.02.542-.04.142-.02.283-.06.384-.2.04-.061.06-.102.04-.162-.02-.282.02-.583.06-.864 0-.101.12-.202.262-.202.08 0 .16-.04.2.04.04.08.04.182-.02.262a.807.807 0 0 0-.161.523c-.02.322-.04.624-.02.946.04.703 0 1.408.02 2.112 0 .181.04.362.02.522-.02.182 0 .384-.04.565-.02.08.02.16.02.241 0 .161-.02.302-.02.462 0 .464.06.905.06 1.368 0 .08.02.182.02.282.02.081.08.14.182.14h.382c.323.02.663-.02 1.005-.04.222 0 .464-.04.705-.02.603.04 1.207.06 1.81.04.1 0 .121.101.141.142-.04.02-.08.06-.14.08Zm.363-.683c-.02.1-.1.161-.202.161h-1.087c-.301 0-.623.02-.924 0-.343-.02-.684 0-1.047-.02-.1 0-.22 0-.342-.04-.12-.04-.242.02-.362.02-.1 0-.12-.02-.08-.121.04-.121.1-.202.181-.283.121-.14.262-.16.402-.06.263.182.544.162.825.162.744.02 1.509 0 2.253 0 .06 0 .141 0 .202.02.12.02.201.04.181.162v-.001Zm.684.624c-.02.06 0 .12-.02.181-.04.18-.06.201-.263.201-.262 0-.422-.242-.382-.504.04-.18.101-.32.283-.381.1-.04.16-.02.24.04.122.141.182.281.142.463Zm-.202-1.128c0-.1.02-.221.04-.321 0-.04.02-.101 0-.121-.06-.101-.02-.221-.02-.322.02-.442-.02-.885-.04-1.327 0-.201-.04-.383 0-.564.02-.06 0-.14.08-.16.101-.021.162.04.182.1.121.222.182.463.1.704-.04.12.041.161.1.161.202 0 .403.06.604.04.06 0 .14-.04.161-.08.02-.04-.02-.101-.08-.141a.788.788 0 0 0-.202-.162.42.42 0 0 1-.16-.32c-.02-.363-.182-.665-.303-.986-.08-.222-.1-.443-.16-.644-.081-.262-.162-.523-.262-.784-.04-.101-.04-.222-.04-.323v-.784c0-.101.02-.202.04-.302.02-.12.142-.161.263-.181.22-.02.421-.081.643-.06.563.06 1.126.1 1.69.08.301-.02.623-.06.904-.2.06-.041.142-.041.202-.061.161-.02.202.04.161.201-.02.08-.02.162-.02.241-.02.343-.06.704-.02 1.046.08 1.147.04 2.274.04 3.42 0 .222-.04.463-.02.684.02.222.02.444.02.664 0 .282-.04.342-.282.443-.181.06-.362.121-.563.121H13.99c-.301 0-.583-.02-.864.12-.181.06-.222 0-.242-.181Zm.303.484c-.02-.08.04-.12.12-.14.181-.041.363-.101.563-.061h1.77c.302 0 .604-.04.905-.101.081-.02.141-.04.182-.08.12-.081.261-.061.342.06.06.08.12.201.201.262.04.04.04.08.02.1-.04.06-.08.08-.16.08l-.948.003c-.28 0-.582-.02-.864 0-.282.02-.584.02-.865.02-.362-.02-.724-.02-1.066-.02-.14.04-.181-.04-.201-.12v-.003Zm5.934-.866c-.06.04-.141.04-.222.06-.141 0-.303-.02-.443.021-.141.04-.222.121-.242.262-.04.221-.04.422-.08.643-.02.142-.02.283-.02.423 0 .06-.04.1-.08.121a.462.462 0 0 1-.282.08c-.804.041-1.609 0-2.393.041-.404.02-.805.02-1.207.02-.202 0-.403-.04-.624-.02-.12 0-.12-.1-.16-.161-.021-.04.04-.101.1-.121.06-.02.1-.04.161-.04 1.006-.041 2.01-.02 3.017-.041.282 0 .583.02.886-.1.16-.061.2-.122.22-.282.04-.544.06-1.086.04-1.65-.02-.362-.04-.744-.02-1.106.04-.744.02-1.508.02-2.253 0-.302-.02-.624-.02-.865v-.523c0-.161 0-.323-.12-.463-.101-.12-.02-.242.14-.262.303-.02.403.141.383.423-.04.282-.04.563.08.825.04.101.122.121.202.141l.482.06c.101.021.242 0 .282.141.04.202-.02.303-.282.342-.161.02-.323 0-.483.04a.369.369 0 0 0-.262.303c-.04.28-.02.542-.02.824 0 .181.02.383.02.563-.02.302 0 .623-.02.925-.02.302-.02.584.02.865.02.121.08.181.181.222.122.04.263.06.404.06a.95.95 0 0 1 .401.081c.06.04.121.08.121.16-.04.101-.06.182-.181.242ZM6.809 12.896c.201.02.403 0 .523-.182.141-.201.303-.242.523-.242.262 0 .523.08.785-.02.06-.02.141-.02.222-.02.18.02.34.04.522.04h1.005c.242 0 .484-.04.705-.12.101-.04.182-.12.221-.242.06-.22.06-.461.04-.683a.985.985 0 0 1 .04-.482c.02-.04.02-.101.102-.101h.22c.283.04.504-.04.664-.282.181-.282.202-.624-.141-.845a.99.99 0 0 0-.543-.14c-.262 0-.302-.041-.343-.283v-.121c0-.482.02-.945.02-1.427 0-.323.081-.644.04-.966 0-.1.041-.181.162-.202.121-.02.222-.04.343-.04.2-.02.382-.161.422-.322.02-.08.02-.14.04-.221 0-.16-.02-.321-.161-.442-.14-.141-.321-.181-.523-.181a.353.353 0 0 1-.343-.423c.04-.181.06-.382.04-.563-.02-.12-.059-.242-.16-.322a.896.896 0 0 0-.663-.16c-.222.04-.363-.041-.503-.182-.182-.2-.323-.221-.524-.04-.26.221-.582.262-.904.282-.182 0-.363 0-.544-.02-.402-.02-.824-.02-1.207.161-.1.04-.201.04-.282-.02a.782.782 0 0 0-.36-.08h-.263a5.156 5.156 0 0 0-.965-.041c-.161.02-.323.02-.484 0-.28-.06-.563-.101-.824-.262a.262.262 0 0 0-.363.08c-.12.162-.32.263-.522.202a.49.49 0 0 0-.382.04c-.121.06-.242.142-.262.282l-.061.905c0 .08-.04.121-.12.141-.121.04-.222.02-.342.02-.282.02-.523.101-.643.402-.06.141-.04.302-.04.444 0 .14.06.24.181.321.22.141.462.182.704.182.22-.001.24-.001.24.24 0 .342.021.684-.02 1.046-.02.262 0 .503 0 .765v.744c0 .12-.06.161-.16.181-.081 0-.162 0-.242-.02a.5.5 0 0 0-.563.262c-.081.16-.101.321-.101.482 0 .242.1.403.323.524.16.08.341.1.523.1.24 0 .281.04.281.282 0 .261-.02.502.02.764.04.202.142.362.362.423.263.1.543.06.805.08.342.02.704 0 1.046-.04.383-.04.764-.06 1.146-.04.282.02.564 0 .785.24.14.101.322.142.504.142h-.001Zm3.681-1.308c.04-.04.08-.1.08-.161.021-.322.082-.644.041-.986a15.376 15.376 0 0 1-.02-1.67c.04-.965.02-1.93.02-2.876 0-.323 0-.643-.02-.966 0-.141-.02-.281-.06-.402-.04-.142.02-.241.16-.221.102 0 .182.04.202.14.02.102.06.182.06.282 0 .262 0 .524.02.785.02.12.101.181.262.181.14 0 .3-.02.442.02.222.06.303.162.182.362-.04.081-.142.101-.222.101h-.322c-.181 0-.262.08-.282.261-.04.322-.06.644-.04.886 0 .382-.04.683-.04.985v1.045c0 .101.02.222.04.323.04.202.16.262.403.281h.362c.161 0 .282.142.282.283 0 .08-.161.2-.262.2h-.483c-.161 0-.323.081-.323.322-.02.343-.04.664-.04 1.007 0 .14-.12.24-.28.26-.444.041-.906.02-1.349.02-.221 0-.442.021-.663 0-.161-.02-.343.021-.504.041-.08.02-.16-.02-.241-.02-.121-.02-.221.04-.342-.02-.04-.02-.08-.04-.08-.101 0-.06.04-.08.08-.1.222-.041.444-.102.664-.061.142.02.282 0 .423-.02.181-.02.382 0 .563 0h.885a.5.5 0 0 0 .403-.182v.001Zm-.503-7.222c.06-.02.141-.04.182.04.12.162.221.322.221.523 0 1.207.02 2.395 0 3.602-.02.804 0 1.609-.02 2.393 0 .061 0 .081-.06.122-.06.04-.08-.02-.121-.04-.141-.082-.162-.243-.242-.364-.08-.141-.04-.301-.02-.463l.002-5.69c.02-.041-.02-.102.06-.122h-.002Zm-.222 6.618c.101-.04.222.02.303.141.04.06.06.121.1.162.04.04.061.1.04.14-.04.061-.1.101-.16.081h-.704c-.182 0-.343-.02-.524 0-.382.02-.764.02-1.146.02-.1 0-.202.02-.323.02a.34.34 0 0 1-.2-.06.192.192 0 0 1-.081-.201c.04-.101.141-.122.242-.142.141-.02.262.02.402.02.162 0 .343.02.503 0 .142-.02.263-.02.383-.02.422.04.804.02 1.166-.161ZM6.79 7.304c.02-.424 0-.845.02-1.268.02-.222.06-.464.04-.685-.02-.181-.02-.362.02-.562.081-.323.182-.404.503-.404H8.62c.281-.02.542-.06.804-.18.162-.08.222-.04.263.141.039.242 0 .463-.02.704 0 .1-.02.181.02.282 0 .02.019.04 0 .08-.02.483.039.966.019 1.449-.02.242 0 .483-.02.724-.04.623-.02 1.227-.02 1.85 0 .363.02.705.02 1.067 0 .181-.04.342-.303.382-.18.04-.34.06-.522.06a9.787 9.787 0 0 0-1.086 0c-.242.02-.483.02-.724.061-.162.04-.262-.08-.242-.262.04-.202.12-.402.04-.603v-.02c.02-.363-.04-.725-.02-1.107 0-.583-.08-1.147-.04-1.71Zm-.06 4.324c.04-.02.08-.04.14-.02.162.06.363.222.323.443 0 .242-.08.362-.262.422a.318.318 0 0 1-.404-.302v-.2c-.039-.162.081-.263.202-.344v.001ZM3.771 5.553c.02-.08-.02-.141-.02-.202 0-.301.04-.603 0-.884-.02-.202.14-.242.282-.202.18.06.36.121.562.162.04 0 .081.02.121.02h.844c.121 0 .222-.06.363-.06.16 0 .322.04.462.14.121.081.162.221.182.363.02.14 0 .28 0 .422.04.583.04 1.147.02 1.73 0 .302 0 .603-.02.905-.02.262-.02.503-.02.764 0 .202-.02.424-.02.624.02.442.02.885.02 1.327 0 .081.02.162.04.242.02.121-.06.222-.161.182a4.474 4.474 0 0 0-.724-.101c-.263-.02-.504 0-.765-.02-.222-.02-.423.02-.644 0a.736.736 0 0 1-.422-.121c-.06-.04-.1-.101-.1-.202.04-.522.04-1.066.02-1.589-.02-.281 0-.543-.02-.825-.06-.663-.02-1.327-.02-1.971-.02-.282-.04-.503.02-.704Zm-.724 1.87c.04-.824 0-1.65.02-2.454a.64.64 0 0 1 .22-.482c.041-.02.041-.02.101-.04.081-.02.142.06.101.1-.06.102-.04.201-.02.282.06.302-.02.583-.02.865 0 .162-.02.322 0 .502 0 .06.02.101.02.162v1.83c0 .464-.04.946-.02 1.408 0 .283.02.564.02.866 0 .222 0 .422-.1.603-.041.08-.102.14-.182.181-.08.04-.141.02-.121-.08 0-.101-.02-.202 0-.323.02-.16-.02-.32-.02-.482-.02-.323.02-.664.02-.986 0-.644-.06-1.307-.02-1.952Zm3.138 4.567c-.02.081-.142.142-.242.121H3.107c-.12 0-.222-.04-.342-.04-.1 0-.201-.141-.222-.222-.04-.181-.02-.342-.02-.522 0-.182 0-.383-.02-.584a.11.11 0 0 0-.06-.1c-.08-.041-.18-.061-.282-.082-.14 0-.3.02-.441-.02a.413.413 0 0 1-.182-.1c-.06-.06-.12-.14-.08-.221.04-.101.1-.162.221-.202.162-.04.323-.02.483-.02.04 0 .101 0 .142-.02.12-.02.16-.1.16-.221.04-.502.04-1.006.04-1.509 0-.161-.04-.301-.02-.442.02-.322.02-.664.04-.986a.531.531 0 0 0-.12-.423c-.101-.14-.283-.12-.423-.08a.79.79 0 0 1-.563-.1c-.08-.04-.08-.202 0-.282a.43.43 0 0 1 .342-.161c.141-.02.302.02.443-.02.14-.02.222-.121.281-.342.04-.161.02-.302.02-.463.02-.161.02-.322.141-.462.06-.06.121-.08.202-.04.08.04.06.1.04.161-.081.18-.081.361-.081.563-.06 1.468 0 2.957-.02 4.425 0 .101-.02.202-.02.303 0 .543.08 1.065.08 1.608 0 .101.06.202.181.222.162.04.302.06.462.06.303-.02.604.02.886.041.1.02.221 0 .322-.02.201-.02.422-.02.623-.02.222 0 .443.02.664.02.141 0 .222.08.202.18Zm.04-.403c-.403-.08-.805-.06-1.207-.04-.242 0-.464.02-.705.02-.261 0-.502-.04-.764-.02-.141 0-.202-.14-.101-.282.08-.16.242-.301.464-.14.08.06.18.08.301.08.603.041 1.187.021 1.79.021.101 0 .202.04.303.08.08.041.12.122.1.202-.06.06-.1.1-.181.08v-.001Zm17.722-1.99a.799.799 0 0 0-.381-.04c-.202.02-.283-.082-.283-.283 0-.2 0-.422-.02-.623 0-.121-.02-.242 0-.383.02-.221.06-.442.04-.663-.04-.262-.02-.544 0-.805 0-.08.06-.12.142-.12h.221c.361.02.502-.122.644-.423.12-.282-.04-.764-.384-.825a3.004 3.004 0 0 0-.4-.04c-.223 0-.283-.101-.263-.322.04-.222.04-.422.04-.643 0-.242-.161-.383-.382-.444-.201-.04-.402 0-.603.02-.1 0-.141-.02-.181-.08a.445.445 0 0 1-.06-.1c-.162-.222-.302-.262-.543-.101-.242.161-.505.222-.785.242-.484.02-.966-.04-1.469-.02-.222.02-.443 0-.623.14-.04.021-.06.021-.101 0-.422-.2-.865-.18-1.308-.16-.362.02-.724.02-1.086-.04-.181-.041-.343-.142-.543-.182-.162-.04-.403.02-.423.12-.04.162-.161.162-.261.162-.08 0-.161-.02-.242-.02-.16-.02-.342-.04-.502.02-.242.1-.323.303-.343.543-.02.221.06.443.06.664 0 .121-.06.182-.18.222-.12.02-.242.02-.363.02-.462-.04-.723.583-.563.905.121.201.303.262.524.282.161.02.322.02.463.08.06.02.1.06.08.12-.06.222.02.443 0 .664 0 .181-.02.383-.04.564-.02.422.06.865.06 1.287 0 .202-.06.241-.262.261-.14.02-.301.02-.442.04-.282.061-.423.263-.443.523-.02.222.06.444.262.585.182.14.382.18.603.18.202 0 .182 0 .262.182.02.04.02.08.02.14.02.202-.06.382-.02.543v.282c.02.161.06.262.182.301.24.06.482.101.723.101.905.02 1.81 0 2.716.02.202 0 .382.06.543.162.181.12.383.2.624.14a.73.73 0 0 0 .322-.202c.08-.08.16-.14.302-.12.603.04 1.226 0 1.85.02.462.02.905 0 1.368 0 .1 0 .201-.02.302-.061.141-.04.241-.14.261-.28.06-.263.081-.545.081-.805 0-.363.02-.403.402-.403.221 0 .443-.06.603-.241.404-.342.242-.986-.201-1.107ZM21.836 7c0-.281 0-.583.02-.864.04-.343-.02-.685-.02-1.027 0-.201 0-.402.02-.603 0-.12.081-.161.182-.12.06.02.1.06.12.12.1.182.141.362.161.583.02.503.04 1.007.02 1.529-.02.444 0 .865-.02 1.308-.02.302-.02.583-.02.885.02.262.02.523.02.784-.02.222-.02.443-.02.664 0 .141.04.282.02.424 0 .1-.04.2-.04.3 0 .08-.121.1-.182.04-.14-.14-.262-.281-.262-.502V8.691c0-.543-.02-1.106 0-1.69h.001Zm-3.239 3.842c.02-.3.06-.583.06-.885.021-.382.041-.764-.02-1.146v-.1c0-.644-.02-1.289 0-1.932.02-.442 0-.905.02-1.348.021-.222.021-.463.021-.684 0-.181.121-.322.302-.363.08-.02.16-.02.241-.02h1.247c.343 0 .664-.06.966-.18.08-.04.161.02.161.12 0 .162 0 .303-.02.464-.02.242-.02.503 0 .744.04.643.04 1.267.02 1.91-.02.705.02 1.41-.02 2.113-.02.363-.02.744-.02 1.106 0 .121-.08.182-.162.202-.1.04-.181.06-.282.06-.281 0-.542.04-.824.02-.262-.02-.523-.02-.784-.02-.242 0-.464 0-.685.101-.161.04-.222 0-.222-.161l.001-.001Zm-3.72-1.146-.003-4.627c0-.202.04-.402.201-.563.04-.02.06-.06.101-.06.04.02.06.04.06.1.08.282.04.584.04.804 0 .363.021.665.021.966-.04.946 0 1.891-.02 2.837-.02.523 0 1.025-.02 1.549 0 .14-.081.242-.141.363-.04.06-.121.06-.182.04-.04-.02-.06-.06-.04-.121.06-.383-.04-.745.02-1.127a.38.38 0 0 1-.04-.162l.003.001Zm3.077 2.213c-.02.06-.06.12-.161.12-.182.02-.383.041-.564.02-.463-.04-.925-.02-1.387-.04-.162 0-.323.04-.484.02-.14-.02-.282-.04-.422-.02a.617.617 0 0 1-.382-.06c-.121-.06-.162-.141-.162-.262v-.623c0-.182-.04-.342-.181-.463a.33.33 0 0 0-.261-.101c-.121 0-.261.02-.382-.02-.202-.06-.282-.14-.261-.302 0-.1.1-.201.322-.201.14 0 .282-.02.422-.06.181-.06.222-.12.242-.302.08-.563.04-1.146.04-1.71 0-.402-.02-.804 0-1.207.02-.322-.202-.422-.423-.442-.142-.02-.302 0-.442-.02-.121-.02-.182-.081-.222-.182-.02-.1 0-.2.121-.261.1-.04.202-.08.323-.08.14 0 .28-.02.421-.061.101-.02.222-.18.222-.302 0-.24 0-.461.02-.703.02-.242.08-.342.241-.383.101-.02.162.02.242.06.06.021.02.082 0 .102-.08.201-.181.402-.181.643v5.854c0 .142.02.282.02.423 0 .141.181.281.342.302.744.04 1.488 0 2.212.04.202 0 .403 0 .604.06.06.06.141.081.121.162v-.001Zm.1-.362c-.02.02-.06 0-.1 0v.02c-.181-.04-.383-.06-.565-.101-.12-.02-.241-.02-.36 0-.041 0-.081.02-.122.02H15.44c-.08 0-.161 0-.201-.1-.04-.101 0-.162.08-.242.101-.08.162-.14.323-.12.32.06.643.1.965.14.08 0 .141-.02.222-.02h.864c.141 0 .262.02.383.06.12.021.12.122.12.243 0 .1-.1.08-.141.1Zm.141-.644c-.443-.08-.885-.04-1.328-.06-.08 0-.161.02-.242.02-.18 0-.381 0-.563-.04-.08 0-.14-.02-.222-.04-.28-.081-.32-.202-.301-.464.02-.242.04-.483.04-.603 0-.544-.02-.966-.04-1.388-.02-.544-.04-1.086-.02-1.63.02-.764 0-1.508.02-2.272 0-.081.02-.141.06-.222.02-.06.061-.08.121-.08.162.04.343.04.504.12.1.04.221.06.321.06.363.02.704-.02 1.066-.04.141 0 .262.02.404.02.18 0 .26.101.321.364.06.34.06.663.04 1.005-.02.342 0 .684-.02 1.025-.02.483-.02.986-.02 1.47 0 .22.04.441.02.663 0 .323-.02.623-.04.946-.02.322 0 .663-.02.985.02.121 0 .181-.101.161Zm.704 1.327c-.04.121-.182.08-.283.101-.18.04-.28-.08-.34-.202a.49.49 0 0 1 .02-.441c.141-.222.301-.222.482-.04.202.201.202.362.12.582Zm.161-.704c-.1 0-.201-.1-.181-.221 0-.04.02-.06.04-.06.121-.021.242-.08.363-.08.22 0 .421-.02.643 0 .202.02.403.02.603.02.343 0 .704-.04 1.027-.142.141-.04.24 0 .362.081.08.06.12.141.181.222.06.1.02.181-.1.181l-2.939.002.001-.002Zm4.928-1.307c-.02.181-.1.242-.302.262-.08.02-.181 0-.262 0h-.26c-.12 0-.262.12-.242.242.02.381-.06.743-.1 1.105 0 .06-.142.202-.221.202-.463.04-.946.04-1.41.02-.602-.04-1.225 0-1.83-.02-.08 0-.14 0-.16-.101-.02-.08.04-.121.12-.141.222-.081.443-.06.664-.06.161 0 .343.04.504.02.1-.02.22.02.34.02.465.02.927-.04 1.39-.02.1 0 .16-.061.221-.142a.4.4 0 0 0 .08-.26c0-.262.021-.544.021-.805 0-.825.04-1.65.04-2.474l-.002-3.099c0-.141-.1-.24-.12-.382-.02-.1.04-.202.16-.202.243-.02.363.101.363.384 0 .16-.02.302-.02.462-.02.362.16.543.523.523.1 0 .201.02.301.04.101.02.182.1.182.202.02.181 0 .222-.141.282-.162.08-.343.04-.504.04-.322 0-.422.201-.361.442.02.08.02.181 0 .262-.061.502 0 1.005-.02 1.488-.02.182-.041.342-.041.523 0 .262 0 .523.1.764.041.121.182.141.323.161.14 0 .3-.02.442.02.182.041.242.101.222.243v-.001Z" fill="#000"/><path d="M13.97 22.33h1.952c.2 0 .382-.04.563-.121.262-.101.302-.16.282-.442 0-.222 0-.444-.02-.665-.02-.221.02-.462.02-.683 0-1.147.04-2.273-.04-3.42-.02-.342 0-.704.02-1.046 0-.08.02-.161.02-.242.02-.16 0-.2-.161-.2-.06 0-.141.02-.202.06-.281.14-.583.181-.904.201-.564.02-1.128-.02-1.69-.08-.222-.02-.424.04-.645.06-.12 0-.24.06-.26.182-.02.1-.041.2-.041.3v.785c0 .1 0 .222.04.322.101.262.162.523.262.785.081.222.101.443.16.643.122.323.283.645.303.986 0 .121.06.242.16.322.081.06.142.121.202.161.04.04.081.101.081.142-.02.059-.08.08-.161.08-.202.02-.404-.021-.604-.041-.06 0-.142-.04-.101-.162.08-.24 0-.482-.101-.703-.04-.081-.1-.141-.18-.101-.081.02-.061.1-.081.161-.04.182 0 .383 0 .564 0 .442.04.884.04 1.327 0 .1-.04.222.02.323.02.02 0 .08 0 .12-.02.1-.04.201-.04.321 0 .182.06.222.222.141.301-.1.603-.1.884-.08Zm1.59-2.877c-.201-.241-.503-.362-.745-.543-.242-.181-.463-.403-.402-.724.08-.484.282-.745.845-.725.1 0 .201 0 .322-.04.18-.08.262-.02.302.202.02.14.06.262 0 .402-.02.06-.02.1-.08.121-.061.02-.122.04-.182-.02-.02-.02-.04-.02-.04-.04-.101-.222-.302-.242-.503-.263-.14 0-.222.04-.262.182-.02.1-.02.161.04.242.142.22.363.342.584.482.222.12.423.262.563.464.282.401.1 1.165-.522 1.286-.222.04-.444 0-.645-.08a.283.283 0 0 0-.281.02c-.08.06-.182 0-.182-.121 0-.141 0-.261-.02-.402-.02-.081.02-.162.06-.222.081-.12.243-.06.283.1.06.182.182.303.342.363.12.057.257.064.382.02.322-.14.362-.463.141-.704Zm-6.72-2.997c0 .382-.02.744-.02 1.126-.02.584-.02 1.187.02 1.771.02.402 0 .825 0 1.227v1.388c0 .06.02.1.061.161.162.161.382.181.603.202.363.02.725-.02 1.067 0 .282.02.543.02.825.02.242-.02.463-.04.704 0 .12.02.222.04.343.02.1 0 .16-.06.16-.141 0-.282.02-.584 0-.865-.04-.363-.02-.705-.02-1.067 0-.242.02-.483-.02-.704 0-.04.02-.1-.061-.121-.06 0-.08.04-.121.08-.121.243-.222.484-.202.765 0 .08-.02.161-.12.161-.14 0-.262.06-.402 0-.06-.02-.141-.04-.181-.1-.02-.081.06-.122.12-.162.081-.06.162-.1.202-.181.06-.14.101-.3.141-.442.101-.402.201-.825.302-1.227.1-.382.262-.744.262-1.126.02-.384.02-.765.02-1.147 0-.12-.142-.302-.263-.323a4.67 4.67 0 0 0-.763-.08c-.262 0-.545.02-.805.04-.323.02-.665.06-.986.02-.141 0-.303-.02-.443-.08-.141-.06-.282-.12-.443-.12-.04 0-.1 0-.1.04 0 .08-.04.161-.02.242.14.22.14.421.14.623Zm.704 1.388c0-.162.081-.302.142-.443.04-.121.161-.161.262-.1.16.1.322.12.502.08.161-.04.323.02.483.02a.78.78 0 0 0 .463-.141c.06-.04.1-.02.161 0 .06.02.08.06.08.12-.02.142-.06.283-.08.424-.02.08-.06.121-.12.121-.082.02-.142 0-.202-.08-.02-.02-.04-.06-.061-.081a.162.162 0 0 0-.181-.06c-.061.02-.1.08-.1.16v.122c.04.2 0 .401 0 .603.02.321 0 .663.02.985 0 .141.02.282.02.423 0 .08.06.12.1.18.122.162.041.302-.12.323a.454.454 0 0 1-.283-.02c-.1-.041-.18.02-.28.02-.162.02-.242-.142-.162-.283v-.02c.222-.2.201-.442.181-.704-.02-.301 0-.583 0-.885 0-.241.02-.462.06-.704.021-.12-.04-.202-.14-.262-.081-.06-.162-.02-.241.02a.774.774 0 0 0-.222.222c-.04.08-.08.141-.18.1-.122.041-.102-.06-.102-.14Z" fill="#FEFEFE"/><path d="M19.14 21.485a.903.903 0 0 0-.402-.08c-.142 0-.282 0-.402-.061-.1-.04-.161-.1-.181-.221a3.114 3.114 0 0 1-.02-.865c.02-.302 0-.623.02-.925.02-.181 0-.383-.02-.563a3.767 3.767 0 0 1 .02-.825.369.369 0 0 1 .262-.303c.16-.04.321-.02.482-.04.262-.04.322-.14.282-.342-.04-.14-.181-.12-.282-.14-.162-.02-.323-.02-.483-.06-.08-.02-.162-.041-.202-.142-.12-.261-.12-.542-.08-.824.04-.302-.08-.443-.382-.423-.161 0-.242.141-.14.262.12.141.12.302.12.463v.523c0 .242.02.563.02.865 0 .745.02 1.509-.02 2.253-.02.362 0 .744.02 1.106.02.544 0 1.087-.04 1.65-.02.161-.06.222-.222.282-.281.1-.583.08-.884.1-1.006.021-2.012 0-3.018.041a.38.38 0 0 0-.161.04c-.06.02-.12.08-.1.12.02.061.04.182.161.162.202-.02.402.04.623.02.403-.02.805 0 1.207-.02.805-.02 1.61 0 2.394-.04.1 0 .202-.04.282-.081.04-.02.101-.06.081-.121 0-.141 0-.282.02-.424.04-.22.04-.421.08-.642.02-.141.1-.222.242-.262.16-.04.301-.02.441-.02a.46.46 0 0 0 .222-.06c.101-.061.142-.142.142-.262.04-.06 0-.1-.081-.141Zm-7.161 1.73c-.603 0-1.207 0-1.81-.04-.222-.02-.463 0-.704.02-.343.02-.685.04-1.007.04h-.382c-.1 0-.161-.06-.181-.14-.02-.081-.02-.182-.02-.282 0-.463-.06-.906-.06-1.368 0-.162.02-.302.02-.462 0-.08-.041-.162-.02-.242.04-.182.02-.382.04-.563.02-.181-.02-.363-.02-.524-.02-.703.02-1.408-.02-2.112-.021-.302 0-.623.02-.946 0-.2.04-.361.16-.522.061-.08.061-.181.02-.262-.04-.08-.14-.06-.2-.04-.141 0-.242.1-.262.201-.02.283-.06.584-.06.865a.38.38 0 0 1-.04.162c-.082.141-.222.181-.382.2-.182.02-.363 0-.545.04a.3.3 0 0 0-.24.243c-.02.08.1.2.201.24.161.061.323.041.483.021.322-.02.503.08.503.402 0 1.026.04 2.052-.02 3.058 0 .1-.1.242-.181.242-.121.02-.263.02-.383.02-.181.02-.363.02-.523.141-.1.1-.1.24.04.3.182.081.363.081.564.081.342 0 .522.182.522.523 0 .242-.02.504.02.745.02.201.122.302.343.302.462 0 .945 0 1.408-.04.202-.02.403 0 .624.02.383.02.745-.04 1.127-.04.222 0 .422-.04.643-.02.1 0 .222-.02.323-.04.06-.021.12-.061.1-.102.02-.04.02-.12-.1-.12h-.001Z" fill="#FEFEFE"/><path d="M17.049 21.003v.1c.04.201.04.402.02.583-.06.342.06.603.281.845.04.04.08.04.121.04.04-.02.04-.06.04-.1 0-.363.02-.724.02-1.066.02-1.61 0-3.2 0-4.809h-.02v-.22c0-.223-.06-.403-.242-.544-.04-.02-.06-.08-.1-.04-.04.02-.101.06-.101.12.02.182-.04.343-.02.524.02.262.02.523.02.804 0 .463 0 .926-.02 1.388-.02.765 0 1.57 0 2.375Zm-8.872 1.589c.06.02.101-.02.121-.06a.761.761 0 0 0 .241-.564c-.02-.684 0-1.368-.02-2.052-.02-1.127 0-2.273 0-3.4 0-.1-.02-.221 0-.322.02-.06.02-.141.02-.2 0-.082-.141-.162-.181-.102-.101.121-.222.242-.222.404 0 .32-.02.623-.02.944 0 .765 0 1.53.02 2.293.02.946 0 1.891 0 2.837h-.02l.002.06c-.02.101 0 .142.06.162Zm6.256.362c.282 0 .584 0 .865-.02.282-.02.584 0 .865 0h.946c.06 0 .121-.04.161-.081.02-.02.02-.08-.02-.101-.08-.08-.12-.181-.201-.262-.081-.1-.222-.14-.343-.06-.06.04-.121.06-.18.081-.303.06-.604.1-.906.1h-1.77c-.202-.04-.382 0-.564.061-.06.02-.14.06-.12.142.02.08.06.16.18.16.363-.04.725-.04 1.087-.02Zm-2.192-.322c-.08-.02-.141-.02-.202-.02H9.786c-.282 0-.563.02-.824-.161-.142-.101-.283-.081-.404.06a.858.858 0 0 0-.18.282c-.04.1 0 .12.08.12.121 0 .242-.06.364-.02.1.04.22.04.34.04.343.02.685 0 1.047.02.302.02.623 0 .925 0h1.087c.1 0 .181-.04.201-.16 0-.122-.08-.142-.181-.162v.001Zm.463.281c-.182.06-.242.202-.283.383-.04.262.121.503.384.503.18 0 .22-.02.26-.202.02-.06 0-.121.02-.181.061-.181-.02-.322-.14-.442-.06-.08-.142-.08-.242-.06Zm-.201-4.466c0 .04-.04.101-.06.142a.75.75 0 0 0-.061.422c0 .08.06.141.12.141.08 0 .121-.06.121-.14 0-.142.04-.283.02-.445v-.12c0-.06-.04-.08-.06-.1-.02.02-.06.04-.081.1h.001Zm.421.704c.06 0 .101-.04.101-.1 0-.061-.04-.122-.1-.122-.061 0-.061.06-.061.101 0 .06-.02.121.06.121ZM6.81 8.992c-.02.363.04.725.02 1.107v.02c.08.202 0 .403-.04.604-.02.16.08.302.242.262.24-.06.482-.06.724-.06.362-.021.724-.021 1.086 0 .181.02.342-.021.523-.061.262-.04.302-.202.302-.384 0-.36 0-.703-.02-1.065-.02-.623-.04-1.227.02-1.85.02-.243.02-.484.02-.725.02-.483-.04-.966-.02-1.449v-.08c-.04-.101-.02-.18-.02-.282.02-.221.08-.462.02-.703-.04-.182-.1-.222-.262-.142-.242.142-.523.182-.804.182H7.352c-.322 0-.423.1-.503.402-.04.182-.04.362-.02.563.02.222-.04.464-.04.685-.02.422 0 .845-.02 1.267-.02.583.06 1.147.04 1.71Zm.503-2.796c.202-.04.422-.04.643-.06.182-.02.363-.02.544-.02.1 0 .161.04.201.12.04.081.081.142.101.202.04.08.04.161-.02.242-.04.04-.08.06-.141.02-.121-.06-.182-.181-.303-.242-.201-.1-.422.02-.422.242 0 .14-.02.26-.02.402 0 .12.04.221.161.282.101.04.182 0 .283-.06.06-.041.12-.101.2-.122.04 0 .06 0 .08.02.102.101.122.363.041.484-.08.1-.161.1-.262.06a.817.817 0 0 0-.182-.1c-.14-.061-.22-.021-.26.1a.746.746 0 0 0-.041.362c-.02.22.06.422.06.643 0 .081.182.202.283.162.08-.02.161-.04.24-.04.202 0 .283-.142.364-.283.04-.06.04-.121.12-.1.08 0 .1.06.12.12.122.283-.12.645-.423.624-.401-.02-.824-.06-1.226-.08-.08 0-.141-.101-.12-.182.02-.06.04-.1.08-.161.08-.1.08-.241.08-.381V6.7c0-.081-.02-.142-.08-.182-.06-.06-.101-.101-.141-.18-.081-.061-.04-.122.04-.142ZM3.751 8.168c.02.282.02.543.02.824.02.525.02 1.067-.02 1.59 0 .08.02.14.1.201.121.08.283.121.424.121.22 0 .421-.02.643 0 .242.02.503 0 .765.02.242.02.483.04.724.101.12.04.201-.06.16-.181-.02-.081-.04-.162-.04-.242 0-.442 0-.885-.02-1.327 0-.202.02-.404.02-.625 0-.262 0-.502.02-.764.02-.302.02-.603.02-.905.021-.583.021-1.147-.02-1.73 0-.141.02-.282 0-.423-.02-.14-.04-.282-.18-.361a1.236 1.236 0 0 0-.464-.141c-.12 0-.24.06-.362.06h-.845c-.04 0-.08 0-.12-.02-.201-.04-.382-.1-.563-.161-.141-.04-.303.02-.283.201.04.302 0 .603 0 .886 0 .08.04.14.02.201-.06.2-.04.422-.04.644.02.703-.02 1.367.04 2.03v.001Zm.201-1.911c.02-.061.06-.121.141-.121.162.02.303-.04.423-.02.141 0 .242 0 .342.04.12.06.161.161.08.282-.12.141-.1.281-.04.443.1.402.282.764.402 1.146.02.06.04.162.121.141.081-.02.121-.1.142-.181.04-.141.06-.282.1-.423.06-.221.1-.422.16-.643a.724.724 0 0 0-.06-.504c-.06-.12-.04-.241.08-.261.142-.02.302-.04.423.04.06.04.101.08.06.161-.2.323-.261.704-.362 1.066-.141.503-.281.986-.423 1.49-.02.1-.08.201-.201.22-.14.02-.221-.08-.28-.181-.061-.08-.081-.2-.122-.302a15.15 15.15 0 0 0-.423-1.247c-.1-.281-.18-.583-.361-.845a.614.614 0 0 0-.161-.161c-.04 0-.061-.06-.04-.14Z" fill="#FEFEFE"/><path d="M9.162 11.768c-.181 0-.382-.02-.562 0-.142.02-.283.04-.424.02-.24-.04-.442.02-.663.061-.04 0-.081.04-.081.1 0 .061.02.082.08.102.101.06.222 0 .343.02.081.02.162.04.241.02.162-.04.343-.06.504-.04.221.02.442 0 .663 0 .443 0 .906 0 1.348-.02.141-.02.262-.121.282-.263.02-.341.04-.663.04-1.005 0-.222.161-.323.323-.323h.482c.12 0 .262-.12.262-.2a.288.288 0 0 0-.283-.282h-.363c-.24-.02-.36-.1-.4-.282a1.759 1.759 0 0 1-.041-.322V8.31c0-.303.04-.603.04-.985 0-.242 0-.564.04-.886.02-.181.101-.262.283-.262h.32c.081 0 .182-.02.222-.1.121-.201.04-.302-.181-.362-.141-.04-.302-.02-.443-.02-.161 0-.242-.08-.262-.181-.04-.262-.02-.524-.02-.785 0-.1-.02-.181-.06-.282a.209.209 0 0 0-.201-.14c-.14 0-.201.1-.16.222.04.14.06.26.06.4.02.324.02.645.02.967 0 .966.02 1.93-.02 2.877-.02.543-.02 1.106.02 1.67.02.321-.02.643-.04.985 0 .06-.04.12-.081.161a.625.625 0 0 1-.443.181h-.845v-.002Zm-3.158.04c-.222 0-.443-.02-.663-.02-.202 0-.424 0-.625.02-.1 0-.221.02-.321.02-.303-.04-.603-.06-.885-.04-.162 0-.322 0-.462-.06-.121-.04-.182-.12-.182-.22 0-.543-.08-1.066-.08-1.61 0-.1.02-.202.02-.303.02-1.467-.04-2.956.02-4.424 0-.202 0-.383.08-.564.02-.06.04-.12-.04-.161-.08-.04-.141-.04-.201.04-.121.141-.142.303-.142.464-.02.16.02.302-.02.462-.06.222-.14.323-.28.343-.141.04-.303 0-.444.02-.14 0-.24.06-.34.16-.081.08-.081.242 0 .283.18.1.361.14.562.1.141-.02.323-.04.424.08.1.121.12.282.12.422-.02.322-.02.664-.04.986 0 .161.02.302.02.443 0 .502 0 1.006-.041 1.508-.02.12-.04.181-.161.222-.04.02-.101.02-.141.02-.16 0-.321-.02-.482.02-.101.02-.182.1-.222.202-.04.08.02.16.08.22.06.061.121.081.182.101.141.04.302.02.443.02.1 0 .181.02.28.081.041.02.061.04.061.101.02.2.04.401.02.583 0 .181 0 .362.02.522.02.1.122.242.223.222.12 0 .24.04.34.04h2.838c.1.02.22-.04.24-.12 0-.102-.08-.182-.2-.182Z" fill="#FEFEFE"/><path d="M9.967 10.642c.06.121.1.282.242.363.04.02.06.08.121.04.04-.04.06-.06.06-.12.02-.805 0-1.61.02-2.394.02-1.207 0-2.394 0-3.601 0-.202-.1-.363-.221-.525-.06-.06-.121-.04-.182-.04-.06.02-.04.08-.04.121v5.693c-.04.162-.08.323 0 .464Zm-6.94-.261c0 .161.04.323.02.483-.02.1 0 .222 0 .322s.061.12.122.08a.394.394 0 0 0 .18-.181c.101-.182.101-.403.101-.603 0-.283-.02-.564-.02-.865-.02-.463.04-.946.02-1.41v-1.83c0-.06-.02-.1-.02-.16a2.09 2.09 0 0 1 0-.503c.02-.282.08-.584.02-.865-.02-.1-.06-.181.02-.282.04-.06-.02-.121-.1-.101-.061 0-.061 0-.101.04a.582.582 0 0 0-.222.484c-.02.824.02 1.649-.02 2.454-.04.664.02 1.307.02 1.97.02.303-.02.625-.02.967Zm5.21.825c-.16.02-.342 0-.503 0-.14 0-.26-.04-.402-.02-.1.02-.201.04-.242.14-.02.081 0 .162.08.202.061.04.122.08.203.06.1 0 .201-.02.321-.02.382-.02.765 0 1.147-.02.181-.02.343 0 .523 0h.704c.08 0 .141-.02.161-.081.02-.06 0-.1-.04-.141-.04-.06-.08-.101-.101-.16-.08-.122-.202-.202-.303-.142-.36.162-.743.202-1.145.202a.925.925 0 0 0-.403-.02Zm-1.87.301c.02-.1 0-.161-.102-.201-.1-.04-.18-.081-.301-.081-.603-.02-1.187.02-1.79-.02-.1 0-.202-.02-.302-.08-.221-.161-.383-.02-.462.141-.08.162-.02.282.1.282.262 0 .523.04.764.02.242 0 .464-.02.705-.02.402-.02.804-.04 1.207.04.12.02.161-.02.181-.08Zm.16.463v.202c0 .2.202.362.403.301.181-.06.262-.181.262-.423.04-.221-.161-.381-.323-.442-.06-.02-.1-.02-.14.02-.122.08-.242.182-.202.342Zm12.291-.986c.222-.1.444-.1.685-.1.261 0 .522 0 .784.02.282.02.543-.02.825-.02.101 0 .202-.021.282-.061.08-.04.16-.08.16-.201 0-.362 0-.724.021-1.106.04-.704 0-1.408.02-2.113.02-.623.04-1.266-.02-1.91a4.577 4.577 0 0 1 0-.745c.02-.161.02-.302.02-.463 0-.1-.08-.16-.161-.12a2.653 2.653 0 0 1-.966.181H19.22c-.081 0-.162 0-.241.02-.182.04-.283.202-.303.362 0 .222 0 .463-.02.684-.02.443-.02.905-.02 1.348-.02.643 0 1.288 0 1.931v.1c.06.383.04.765.02 1.147l-.06.886c0 .181.06.221.221.16Zm.564-2.032c.202-.141.202-.362.222-.563.02-.322.02-.663 0-.986-.02-.26-.02-.522-.02-.784 0-.08-.04-.121-.081-.182-.04-.06-.04-.12-.06-.18-.02-.08.08-.162.201-.162h.22c.102 0 .223-.02.323 0 .14.02.181.121.12.242-.02.04-.04.081-.06.101-.141.101-.141.262-.141.423V8.57c0 .141.04.222.12.323.061.06.122.14.061.242-.02.039-.06.06-.12.06h-.664c-.06 0-.141-.041-.161-.082-.04-.06-.02-.12.04-.16Zm-1.066 1.831c0-.322 0-.663.02-.986.02-.322.02-.623.04-.945 0-.222-.04-.443-.02-.664.02-.482.02-.985.02-1.468 0-.343 0-.684.02-1.026.02-.343.02-.664-.04-1.006-.06-.262-.12-.362-.322-.362-.141 0-.262-.02-.403-.02-.362.02-.703.04-1.065.04a.837.837 0 0 1-.323-.06c-.16-.081-.34-.081-.502-.122-.06-.02-.101.02-.121.081a.406.406 0 0 0-.06.222c-.02.764.02 1.508-.02 2.273-.021.543-.021 1.086.02 1.63.02.422.04.844.04 1.388 0 .12-.02.362-.04.603-.041.262.02.382.302.463.08.02.14.02.222.04.18.02.38.04.562.04.08 0 .162-.02.242-.02.442.02.885-.02 1.327.06.08-.02.101-.08.101-.16Zm-.202-1.73c-.04.08-.1.12-.181.12-.161.021-.281-.1-.342-.2-.181-.302-.402-.584-.563-.885-.02-.06-.06-.121-.12-.1-.061.02-.061.08-.061.12-.04.101-.02.221-.02.382-.02.141.02.302.181.443.04.04.101.1.04.181-.04.06-.1.1-.18.08-.203-.02-.403-.02-.604-.02-.08 0-.1-.08-.1-.141 0-.02.02-.06.02-.06.221-.142.18-.363.18-.584.021-.543.021-1.065.021-1.609 0-.161-.04-.323-.202-.403-.06-.04-.12-.1-.06-.18.04-.061.12-.122.202-.102.14.04.28.02.441 0 .404-.04.805 0 1.128.323.12.121.14.282.16.443.061.342-.1.583-.362.784-.1.081-.262.121-.222.322 0 .04.02.08.04.121.162.202.263.443.404.663.04.061.1.121.161.182 0 .02.06.06.04.121v-.001Z" fill="#FEFEFE"/><path d="M23.747 9.958c-.141-.04-.302-.02-.443-.02-.12 0-.262-.02-.321-.161-.101-.241-.101-.502-.101-.764 0-.182.02-.342.04-.523.04-.504-.02-1.006.02-1.49 0-.08.02-.18 0-.26-.06-.242.04-.463.363-.443.16 0 .341.04.503-.04.12-.06.16-.081.14-.283 0-.12-.08-.18-.18-.2-.102-.02-.203-.04-.303-.04-.361.02-.543-.162-.523-.523 0-.161.02-.302.02-.464 0-.28-.12-.401-.361-.38-.101 0-.162.1-.162.2.02.142.121.242.121.382v3.099c0 .824-.02 1.65-.04 2.474 0 .261-.02.543-.02.805 0 .08-.02.181-.08.26-.061.082-.122.142-.222.142-.463-.02-.925.04-1.388.02-.121 0-.241-.02-.342-.02-.182.02-.342-.02-.502-.02-.222 0-.444-.04-.665.06-.08.04-.12.06-.12.142.02.1.08.1.16.1.605.02 1.228-.02 1.832.02.462.02.945.02 1.407-.02.06 0 .202-.142.222-.202.04-.362.121-.724.101-1.106 0-.121.12-.242.241-.242h.523c.201-.02.282-.081.302-.262.04-.12-.02-.181-.222-.24Zm-5.914 1.81c-.202-.08-.403-.06-.604-.06-.744-.02-1.488.02-2.212-.04-.141 0-.323-.14-.343-.302 0-.141-.02-.281-.02-.421V5.09c0-.222.1-.422.181-.643.02-.04.04-.08 0-.101-.08-.04-.161-.08-.242-.06-.16.04-.22.16-.24.383-.02.24-.02.461-.02.702 0 .121-.122.283-.222.303-.14.02-.282.06-.422.06a.592.592 0 0 0-.323.081c-.12.06-.14.16-.12.261.02.101.101.162.222.182.141.02.302.02.443.02.22.02.441.1.421.442-.02.402 0 .804 0 1.207 0 .563.04 1.146-.04 1.71-.02.181-.06.262-.241.301-.141.04-.283.06-.423.06-.222 0-.321.102-.321.202-.02.16.06.241.262.302.12.04.261.02.381.02.1 0 .182.04.262.1.141.12.182.282.182.463v.624c0 .12.06.222.16.261.121.06.262.08.382.06.141-.02.283 0 .423.02.161.02.322-.02.483-.02.463 0 .924 0 1.387.04.182.021.383-.02.564-.02.08 0 .14-.06.161-.12.02-.101-.06-.121-.12-.162Z" fill="#FEFEFE"/><path d="M21.836 10.542c0 .221.121.362.262.502.08.06.18.04.18-.04 0-.1.041-.202.041-.301 0-.142-.04-.283-.02-.423 0-.222 0-.443.02-.663.02-.263 0-.524-.02-.785-.02-.302 0-.584.02-.885.02-.443 0-.865.02-1.308.02-.502 0-1.005-.02-1.529 0-.201-.06-.402-.161-.583-.04-.061-.06-.101-.121-.121-.1-.04-.182 0-.182.12 0 .202-.02.404-.02.605 0 .342.06.683.02 1.025-.04.282-.02.584-.02.865-.02.564 0 1.147 0 1.71v1.811h.001Zm-6.96.442c0 .04 0 .1.04.12.06.021.141.021.181-.04.061-.12.142-.221.142-.361.02-.524 0-1.026.02-1.55.04-.945 0-1.89.02-2.836 0-.302-.02-.603-.02-.966-.02-.22.04-.522-.04-.804-.02-.04-.04-.081-.061-.101-.04 0-.06.02-.1.06-.162.162-.203.363-.203.565v4.626c0 .06.02.101.02.162-.04.38.061.763 0 1.125Zm7.1.543c.121 0 .162-.06.101-.181a.618.618 0 0 0-.181-.22c-.1-.082-.2-.122-.361-.082-.343.101-.685.142-1.027.142-.201 0-.402 0-.603-.02-.201-.02-.423 0-.644 0-.121 0-.242.06-.362.08-.04 0-.04.04-.04.06-.02.101.08.223.181.223h2.936v-.002Zm-3.922-.341c-.121-.02-.262-.06-.382-.06h-.865c-.081 0-.142.02-.222.02-.32-.041-.643-.061-.965-.142-.161-.04-.222.04-.322.121-.08.06-.12.141-.08.242.04.08.12.101.201.101h1.468c.04 0 .081 0 .121-.02.121-.02.242-.02.362 0 .182.04.382.06.564.1v-.02c.04 0 .08.02.1 0 .061-.02.14 0 .14-.12.021-.081 0-.182-.12-.222Zm.262.502c-.08.14-.1.302-.02.443.06.121.161.241.342.202.1-.02.242.02.282-.1.08-.223.08-.384-.1-.586-.202-.18-.384-.18-.505.04h.001Z" fill="#FEFEFE"/><path d="M15.48 20.138c-.121.06-.263.04-.384-.02-.16-.081-.28-.182-.341-.363-.04-.16-.201-.221-.282-.101-.04.06-.08.14-.06.222.02.14.04.262.02.403 0 .12.08.18.181.12.101-.06.182-.06.283-.02.2.1.401.14.642.08.624-.12.786-.885.524-1.287-.14-.222-.363-.342-.564-.463-.221-.121-.442-.262-.583-.483a.328.328 0 0 1-.04-.241c.04-.141.12-.182.262-.182.2 0 .402.04.502.263 0 .02.02.04.04.04.06.06.121.04.182.02.04 0 .06-.06.08-.12a.902.902 0 0 0 0-.403c-.04-.222-.12-.283-.302-.202-.1.04-.202.04-.322.04-.563-.02-.764.263-.845.725-.06.322.162.543.404.724.24.182.522.303.743.543.161.262.12.584-.141.705Zm-5.855-2.072c.1.04.141-.04.182-.101.04-.101.12-.162.221-.222.08-.04.14-.08.242-.02.1.06.16.14.14.262-.04.242-.04.463-.06.704 0 .302-.02.584 0 .885.02.262.04.523-.181.704v.02c-.06.121 0 .282.161.282.1 0 .18-.06.281-.02.101.04.202.02.282.02.181-.02.242-.16.12-.322-.04-.06-.1-.101-.1-.182 0-.14 0-.28-.02-.421-.02-.323 0-.664-.02-.986-.02-.202.04-.403 0-.603v-.121c0-.081.02-.142.1-.162.06-.02.141-.02.182.06.02.041.04.061.06.081.06.06.12.081.2.081.061-.02.102-.06.122-.12.02-.142.04-.282.08-.423.02-.06-.02-.101-.08-.121-.06-.02-.1-.04-.161 0-.142.1-.283.12-.463.14-.162 0-.323-.06-.483-.02a.634.634 0 0 1-.503-.08c-.101-.06-.221-.02-.262.1-.06.142-.12.283-.14.444.02 0 0 .1.1.14ZM7.352 6.538c.06.06.081.101.081.182V8.47c0 .121 0 .262-.08.382-.041.04-.061.101-.081.162-.02.08.02.16.12.18.403.02.825.04 1.228.08.301.021.542-.342.422-.623-.02-.06-.04-.121-.12-.121-.081 0-.102.06-.122.1-.08.142-.14.283-.362.283-.08 0-.161 0-.242.04-.1.04-.281-.08-.281-.161 0-.222-.08-.424-.06-.643a.75.75 0 0 1 .04-.363c.04-.142.12-.162.262-.101.06.02.121.06.181.1.101.061.181.04.262-.06.08-.1.06-.381-.04-.482-.02-.02-.041-.02-.081-.02a.418.418 0 0 0-.202.12c-.08.061-.18.102-.281.061a.323.323 0 0 1-.162-.282c0-.141.02-.262.02-.402.02-.222.222-.343.424-.242.121.06.181.181.301.242.061.04.101.02.142-.02.06-.081.06-.162.02-.242a.935.935 0 0 1-.101-.201c-.04-.08-.1-.121-.202-.121-.181 0-.362.02-.543.02-.221.02-.422.02-.644.06-.08.02-.12.081-.08.162.08.06.141.1.181.161v-.002Zm-3.34-.12c.061.04.122.101.162.162.182.26.262.562.362.844.141.403.282.824.423 1.247.04.1.06.202.12.302.061.101.142.201.282.18.12-.02.181-.12.202-.221.14-.502.26-.985.421-1.488.1-.362.161-.744.363-1.066.04-.08.02-.121-.06-.161-.142-.081-.283-.06-.424-.04-.121.02-.16.14-.08.261.08.162.1.322.06.503-.06.221-.101.423-.16.644-.04.141-.061.282-.101.422-.02.081-.081.162-.142.182-.06.02-.1-.08-.12-.141-.12-.383-.301-.765-.402-1.147-.04-.161-.06-.302.04-.443.081-.101.04-.201-.08-.282-.101-.06-.202-.04-.343-.04-.12-.02-.261.04-.421.02-.081 0-.121.06-.142.121-.04.06-.02.121.04.141Zm15.47 2.776h.664c.06 0 .08-.02.121-.06.06-.101 0-.182-.06-.242a.492.492 0 0 1-.121-.322V6.86c0-.16 0-.302.14-.423.041-.02.041-.06.061-.1.06-.14.04-.221-.12-.241-.102-.02-.223 0-.323 0h-.221c-.121 0-.222.08-.202.16.02.061.02.122.06.182.041.04.081.101.081.182 0 .261 0 .522.02.783.02.323.02.645 0 .987 0 .201 0 .422-.22.562-.06.04-.081.101-.06.162.04.06.1.08.18.08Zm-1.448-.281c-.06-.06-.121-.101-.162-.182-.14-.221-.24-.462-.401-.663-.02-.04-.04-.08-.04-.121-.04-.182.12-.242.221-.323.262-.2.422-.441.361-.783-.02-.162-.04-.323-.16-.444-.322-.32-.705-.36-1.126-.32-.141.02-.282.04-.444 0-.1-.02-.16.04-.2.1-.04.08 0 .141.06.18.161.102.202.243.202.403 0 .544 0 1.066-.02 1.61 0 .221.04.422-.182.583-.02.02-.02.04-.02.06 0 .061 0 .14.1.14.202 0 .403 0 .604.021.06 0 .12-.02.181-.08.06-.081 0-.142-.04-.182-.141-.14-.202-.302-.182-.442 0-.161 0-.262.02-.383.02-.04 0-.12.061-.12.08-.02.1.04.121.1.161.323.382.604.564.885.08.121.181.222.341.202.081 0 .162-.06.182-.121.06-.04 0-.08-.04-.121h-.001Zm-.684-1.45a.444.444 0 0 1-.303.12c-.2 0-.301-.12-.28-.302.02-.24.04-.502.04-.743 0-.201.242-.262.443-.181.1.04.14.1.2.181.203.342.223.664-.1.925Z" fill="#000"/><path d="M17.45 6.538a.361.361 0 0 0-.2-.182c-.203-.08-.444-.019-.444.182 0 .262-.02.504-.04.745-.02.182.08.302.283.302.1 0 .221-.06.301-.121.323-.263.302-.583.1-.926Z" fill="#FEFEFE"/></svg>