<svg width="100" height="31" viewBox="0 0 100 31" fill="none" xmlns="http://www.w3.org/2000/svg">
<path d="M19.4288 13.4748C19.6779 12.4196 20.1299 11.4228 20.7596 10.5402C22.4895 7.87118 25.6835 6.53668 28.7442 7.20393C31.806 7.87118 34.3341 10.4067 34.8666 13.4748C35.6649 18.0109 32.8711 22.28 28.3451 23.0807C26.2161 23.4798 24.0871 22.9473 22.0904 21.8797C21.9582 21.7462 21.8247 21.7462 21.6913 21.6128C21.2922 23.3464 21.0265 25.0812 20.6274 26.8161C20.4939 27.7502 20.2283 28.6844 20.0948 29.6173C20.0948 29.8842 19.9614 30.0177 19.5623 30.0177H16.3695C16.1026 30.0177 15.9704 30.0177 16.1026 29.6186C16.9008 26.0154 17.5668 22.4135 18.365 18.8116C18.365 18.5447 18.4972 18.2778 18.2315 18.0109C17.3115 16.6811 16.4675 15.3003 15.7035 13.8752C15.7035 13.7417 15.7035 13.7417 15.4366 13.7417V15.2097C15.4366 19.3454 12.6428 22.4135 8.65056 23.0795C4.79048 23.6145 0.930409 20.8121 0.132203 16.9433C0.132203 16.6764 0 16.1426 0 15.4766V5.60377C0 5.20342 0 5.06997 0.532553 5.06997H3.45973C3.85883 5.06997 3.99228 5.20342 3.99228 5.60377V15.4766C3.99228 17.3436 5.18959 18.8116 6.91945 19.2119C9.18187 19.7457 11.4443 18.0109 11.4443 15.61V5.60377C11.4443 5.06997 11.5777 4.93652 12.1103 4.93652H15.0375C15.3044 4.93652 15.4366 5.06997 15.57 5.33563C16.3682 8.00463 17.5655 10.5402 19.0297 12.941C19.1632 13.2079 19.2966 13.4748 19.4288 13.4748ZM26.7486 19.0785C29.4102 19.0785 31.2735 17.2102 31.2735 14.9428C31.2735 12.8076 29.4102 11.074 27.1477 11.074C25.5513 11.074 24.354 12.1403 23.688 14.0086C23.2889 15.0762 23.1555 16.1426 22.8898 17.0767C22.8898 17.2102 22.8898 17.3436 23.022 17.4771C24.2193 18.5447 25.5513 19.0785 26.7486 19.0785Z" fill="#6FD945"/>
<path d="M45.6449 12.2737L43.2503 22.2799C43.1168 22.6803 42.9834 22.8137 42.7177 22.8137H40.1897C39.9228 22.8137 39.7906 22.8137 39.7906 22.5468L35.3979 7.73761V7.60416H38.4598C38.8589 7.60416 38.7255 7.87106 38.8589 8.13796C39.5237 10.6735 40.3219 13.0744 40.9879 15.6087C41.2535 16.4094 41.387 17.0766 41.6526 17.8773C41.9195 17.6104 41.9195 17.3435 41.9195 17.2101C42.5843 14.142 43.3838 11.2073 44.0485 8.13796C44.182 7.73886 44.3142 7.73886 44.5811 7.73886H46.9757C47.3748 7.73886 47.3748 7.87106 47.5082 8.13796C48.3064 11.3395 49.1046 14.4089 49.9029 17.6104C49.9029 17.7439 49.9029 17.7439 50.0375 17.8773C50.3032 17.0766 50.4367 16.1437 50.7023 15.343C51.2349 12.8075 51.8996 10.4066 52.4322 8.00451C52.5656 7.60541 52.6991 7.47071 53.0982 7.47071H55.4928C55.8919 7.47071 56.0253 7.60416 55.8919 8.00451C54.828 11.7399 53.7629 15.343 52.6991 19.0784C52.4322 20.146 52.0331 21.2123 51.7674 22.2799C51.634 22.6803 51.5005 22.8137 51.1014 22.6803H48.7068C48.3077 22.6803 48.1742 22.5468 48.0408 22.1465C47.2426 18.9449 46.4444 15.8756 45.6462 12.674C45.7784 12.5406 45.7784 12.4071 45.6462 12.2749L45.6449 12.2737ZM99.01 22.5468C98.344 22.5468 97.5458 22.4134 96.8798 22.5468C95.549 22.8137 94.7508 22.2799 93.9526 21.0789C92.7553 19.2118 91.4245 17.6117 90.0938 15.8756C89.9603 15.7434 89.8269 15.6099 89.5612 15.4765C89.0287 15.343 88.8952 15.343 88.8952 16.009V22.1465C88.8952 22.5468 88.763 22.6803 88.3627 22.6803H85.8346C85.4355 22.6803 85.302 22.5468 85.302 22.1465C85.302 17.477 85.302 12.9422 85.1698 8.27141V0.5338C85.1698 3.71694e-08 85.302 0 85.7012 0H88.097C88.4961 0 88.6296 0.13345 88.6296 0.5338V11.473C88.6296 12.0068 88.763 12.0068 89.1621 12.0068C91.5567 11.8733 93.4201 10.1397 93.5523 7.73761C93.5523 7.33851 93.6857 7.33851 93.9514 7.33851H96.4807C96.8798 7.33851 97.0132 7.47071 96.8798 7.87106C96.6141 10.5401 95.4168 12.5406 93.2879 14.142C93.021 14.4089 92.8887 14.4089 93.1544 14.8092C94.8843 17.2101 96.6141 19.7456 98.344 22.1465C98.8765 22.1465 99.01 22.2799 99.01 22.5468ZM72.1279 15.0761C72.1279 19.4787 68.5347 23.0806 64.1433 23.0806C59.752 23.0806 56.2922 19.4787 56.2922 15.0761C56.2922 10.6735 59.8842 7.07036 64.1433 7.07036C68.5347 6.93691 72.1279 10.5401 72.1279 15.0761ZM64.2768 10.4066C61.7475 10.4066 59.6185 12.4071 59.6185 14.9427C59.6185 17.6117 61.614 19.6122 64.2768 19.6122C66.8049 19.6122 68.9338 17.477 68.9338 14.9427C68.8004 12.5406 66.8049 10.4066 64.2768 10.4066ZM77.7166 9.73936C77.9835 9.47246 78.1157 9.20556 78.3826 9.07211C79.5799 7.87106 81.1763 7.33851 82.9074 7.47071C83.1731 7.47071 83.1731 7.60416 83.1731 7.73761V10.5401C83.1731 10.807 83.0396 10.807 82.774 10.807C82.2414 10.807 81.5767 10.807 81.0441 10.9404C79.1808 11.3395 77.7166 12.9409 77.7166 14.9427V22.1465C77.7166 22.6803 77.5844 22.8137 77.0518 22.8137H74.7894C74.3903 22.8137 74.2569 22.6803 74.2569 22.2799V8.00451C74.2569 7.73761 74.2569 7.60541 74.656 7.60541H77.4509C77.7166 7.60541 77.7166 7.73761 77.7166 8.00451V9.73812V9.73936Z" fill="#4C4C4C"/>
</svg>
