<svg width="50" height="49" viewBox="0 0 50 49" fill="none" xmlns="http://www.w3.org/2000/svg">
<path d="M25.327 48.8339C38.8121 48.8339 49.7439 37.9021 49.7439 24.4169C49.7439 10.9318 38.8121 0 25.327 0C11.8419 0 0.910034 10.9318 0.910034 24.4169C0.910034 37.9021 11.8419 48.8339 25.327 48.8339Z" fill="#20C4CB"/>
<path d="M31.6555 28.503C30.6589 29.5993 29.2636 30.1475 28.6158 30.1475C27.8684 30.1475 27.4697 29.699 27.3701 29.0014C27.3202 28.7522 27.3701 28.4532 27.4199 28.2041C27.669 26.6593 28.2172 25.6627 28.2172 25.4136C28.2172 25.3139 28.1673 25.2641 28.1175 25.2641C27.6192 25.2641 25.925 27.0081 25.6758 28.1542L25.4765 29.101C25.327 29.7488 24.729 30.1475 24.2806 30.1475C24.0812 30.1475 23.9317 30.0478 23.8819 29.7986V29.4997L23.9816 29.0014C23.0846 29.699 22.088 30.1475 21.6395 30.1475C20.9917 30.1475 20.6429 29.7986 20.5433 29.3003C20.1446 29.8485 19.5965 30.1475 18.9985 30.1475C18.2511 30.1475 17.5534 29.6491 17.2046 28.9017C16.7063 29.4498 16.1084 29.998 15.4107 30.4464C14.3643 31.0942 13.2182 31.6424 11.8728 31.6424C10.627 31.6424 9.53073 30.9946 8.9826 30.4464C8.08565 29.6491 7.63717 28.4034 7.48768 27.3071C7.03921 23.819 9.18192 19.1847 12.5206 17.1915C13.268 16.743 14.1151 16.4939 14.9124 16.4939C16.507 16.4939 17.7029 17.64 17.8524 18.9854C18.0019 20.2312 17.5036 21.2776 16.1582 21.9254C15.4606 22.2742 15.1117 22.2742 15.0121 22.0749C14.9623 21.9753 14.9623 21.7759 15.1117 21.6763C16.4073 20.6298 16.4073 19.7329 16.2578 18.4871C16.1582 17.6898 15.6599 17.1915 15.0619 17.1915C12.4707 17.1915 8.88293 22.8224 9.38124 26.9085C9.58056 28.503 10.5772 30.3468 12.5704 30.3468C13.2182 30.3468 13.9656 30.1475 14.5636 29.8485C15.6599 29.3003 16.3077 28.8519 16.9056 28.1044C16.7562 26.2108 18.4006 23.819 20.7924 23.819C21.8389 23.819 22.686 24.2176 22.7856 25.0647C22.9351 26.1112 22.0382 26.3105 21.6894 26.3105C21.3904 26.3105 20.9419 26.2108 20.8921 25.9617C20.8423 25.6627 21.5399 25.8122 21.4402 25.1644C21.3904 24.7658 20.9419 24.6163 20.5433 24.6163C19.0484 24.6163 18.2012 26.7092 18.3507 28.0047C18.4006 28.6027 18.7494 29.2007 19.2477 29.2007C19.6962 29.2007 20.344 28.5529 20.5433 27.6559C20.6928 27.0081 21.2907 26.6095 21.7392 26.6095C21.9884 26.6095 22.1378 26.7091 22.1378 26.9583V27.2573C22.088 27.5064 21.8887 28.4532 21.8887 28.6027C21.8887 28.7522 21.9884 29.0014 22.2873 29.0014C22.5365 29.0014 23.3338 28.5529 24.1311 27.8553C24.3802 26.6095 24.6792 25.0647 24.6792 24.9651C24.7789 24.4668 24.9782 23.9186 25.9748 23.9186C26.1741 23.9186 26.3236 24.0183 26.3734 24.2675V24.5664L26.1243 25.9119C27.0212 24.7159 28.4165 23.819 29.2636 23.819C29.6124 23.819 29.9114 24.0183 29.9612 24.3671C30.0111 24.5664 29.9114 24.9153 29.8117 25.3139C29.5128 26.1112 29.1639 27.3569 28.9646 28.4034C28.9148 28.6525 29.0145 28.9515 29.4131 28.9515C29.7619 28.9515 30.8084 28.5529 31.6555 27.4068V26.9085C31.6555 26.0115 31.7053 25.3139 31.9046 24.7658C32.0541 24.2176 32.7517 23.7193 33.2002 23.7193C33.4494 23.7193 33.5989 23.8688 33.5989 24.118C33.5989 24.2176 33.5989 24.3173 33.549 24.4169C33.2501 25.3637 33.0507 26.2108 33.0507 27.058C33.0507 27.5563 33.1504 28.3037 33.2501 28.7024C33.2501 28.802 33.2999 28.8519 33.3995 28.8519C33.549 28.8519 34.5456 27.9051 35.2433 26.7092C34.5955 26.3105 34.2467 25.563 34.2467 24.6661C34.2467 23.1712 35.1436 22.3739 36.0406 22.3739C36.7382 22.3739 37.3362 22.8722 37.3362 23.8688C37.3362 24.5166 37.087 25.2142 36.7382 25.9119H36.9375C37.4856 25.9119 37.8843 25.6627 38.1334 25.3637C38.2331 25.2641 38.3328 25.1644 38.4324 25.1146C39.1301 24.2675 40.1765 23.6695 41.3724 23.6695C42.4189 23.6695 43.266 24.0681 43.3656 24.9153C43.5151 25.9617 42.5684 26.2108 42.2694 26.2108C41.9704 26.2108 41.4721 26.1112 41.4721 25.862C41.4223 25.6129 42.1199 25.7125 42.0701 25.0647C42.0202 24.6661 41.5718 24.4668 41.1731 24.4668C39.7779 24.4668 38.8311 26.3105 38.9806 27.8553C39.0304 28.4532 39.3294 29.0512 39.8775 29.0512C40.326 29.0512 40.9738 28.4034 41.2229 27.5064C41.3724 26.9085 41.9704 26.46 42.4189 26.46C42.6182 26.46 42.8175 26.5597 42.8175 26.8088C42.8175 26.9583 42.7677 27.2075 42.5684 28.2041C42.4687 28.6027 42.4687 29.0014 42.4687 29.2505C42.5684 29.8485 42.8175 30.2471 43.0667 30.4963C43.1663 30.5959 43.2162 30.6956 43.2162 30.7454C43.2162 30.8949 43.1165 31.0444 42.9172 31.0444C42.8673 31.0444 42.7677 31.0444 42.7178 30.9946C41.6216 30.5461 41.1731 29.7986 41.0734 29.1508C40.6748 29.699 40.1267 29.9481 39.5287 29.9481C38.5819 29.9481 37.6351 29.101 37.4856 28.0047C37.4358 27.5563 37.4856 27.058 37.6351 26.6095C37.2365 26.8586 36.8379 27.0081 36.4392 27.0081H36.0904C35.1436 28.3536 34.147 29.3003 33.3995 29.7488C33.1006 29.8983 32.8016 29.998 32.6023 29.998C32.4528 29.998 32.2534 29.9481 32.1538 29.7986C31.8548 29.5993 31.7053 29.101 31.6555 28.503ZM35.044 24.0183C35.044 24.6163 35.3429 25.2142 35.6917 25.6129C35.8412 25.2142 35.9409 24.8156 35.9409 24.4169C35.9409 23.6695 35.6419 23.3207 35.4426 23.3207C35.1436 23.3207 35.044 23.7193 35.044 24.0183Z" fill="white"/>
</svg>
