<svg width="19" height="20" viewBox="0 0 19 20" fill="none" xmlns="http://www.w3.org/2000/svg">
<path fill-rule="evenodd" clip-rule="evenodd" d="M6.99858 1.62842H1.76931C1.34443 1.62842 1 1.97285 1 2.39773V7.62701C1 8.05188 1.34443 8.39632 1.76931 8.39632H6.99858C7.42346 8.39632 7.76789 8.05189 7.76789 7.62701V2.39773C7.76789 1.97285 7.42346 1.62842 6.99858 1.62842ZM1.76931 0.628418C0.792148 0.628418 0 1.42056 0 2.39773V7.62701C0 8.60417 0.792148 9.39632 1.76931 9.39632H6.99858C7.97575 9.39632 8.76789 8.60417 8.76789 7.62701V2.39773C8.76789 1.42057 7.97575 0.628418 6.99858 0.628418H1.76931Z" fill="#03669A"/>
<path fill-rule="evenodd" clip-rule="evenodd" d="M17.1907 1.62842H11.9614C11.5366 1.62842 11.1921 1.97285 11.1921 2.39773V7.62701C11.1921 8.05188 11.5366 8.39632 11.9614 8.39632H17.1907C17.6156 8.39632 17.96 8.05189 17.96 7.62701V2.39773C17.96 1.97285 17.6156 1.62842 17.1907 1.62842ZM11.9614 0.628418C10.9843 0.628418 10.1921 1.42056 10.1921 2.39773V7.62701C10.1921 8.60417 10.9843 9.39632 11.9614 9.39632H17.1907C18.1679 9.39632 18.96 8.60417 18.96 7.62701V2.39773C18.96 1.42057 18.1679 0.628418 17.1907 0.628418H11.9614Z" fill="#03669A"/>
<path fill-rule="evenodd" clip-rule="evenodd" d="M17.1907 11.6038H11.9614C11.5366 11.6038 11.1921 11.9483 11.1921 12.3731V17.6024C11.1921 18.0273 11.5366 18.3717 11.9614 18.3717H17.1907C17.6156 18.3717 17.96 18.0273 17.96 17.6024V12.3731C17.96 11.9483 17.6156 11.6038 17.1907 11.6038ZM11.9614 10.6038C10.9843 10.6038 10.1921 11.396 10.1921 12.3731V17.6024C10.1921 18.5796 10.9843 19.3717 11.9614 19.3717H17.1907C18.1679 19.3717 18.96 18.5796 18.96 17.6024V12.3731C18.96 11.396 18.1679 10.6038 17.1907 10.6038H11.9614Z" fill="#03669A"/>
<path fill-rule="evenodd" clip-rule="evenodd" d="M6.99858 11.6038H1.76931C1.34443 11.6038 1 11.9483 1 12.3731V17.6024C1 18.0273 1.34443 18.3717 1.76931 18.3717H6.99858C7.42346 18.3717 7.76789 18.0273 7.76789 17.6024V12.3731C7.76789 11.9483 7.42346 11.6038 6.99858 11.6038ZM1.76931 10.6038C0.792148 10.6038 0 11.396 0 12.3731V17.6024C0 18.5796 0.792148 19.3717 1.76931 19.3717H6.99858C7.97575 19.3717 8.76789 18.5796 8.76789 17.6024V12.3731C8.76789 11.396 7.97575 10.6038 6.99858 10.6038H1.76931Z" fill="#03669A"/>
</svg>
