<svg width="21" height="25" viewBox="0 0 21 25" fill="none" xmlns="http://www.w3.org/2000/svg">
<path d="M8.75 12.7662L6.48375 10.5L5.25 11.7337L8.75 15.2337L15.75 8.23375L14.5162 7L8.75 12.7662Z" fill="#444444"/>
<path d="M10.5 24.5L5.096 21.6186C3.55542 20.799 2.2671 19.5754 1.36931 18.079C0.47152 16.5826 -0.00184893 14.87 5.42725e-06 13.125V1.75C0.000468719 1.28601 0.184992 0.841163 0.51308 0.513075C0.841168 0.184986 1.28602 0.000463292 1.75 0H19.25C19.714 0.000463292 20.1588 0.184986 20.4869 0.513075C20.815 0.841163 20.9995 1.28601 21 1.75V13.125C21.0019 14.87 20.5285 16.5826 19.6307 18.079C18.7329 19.5754 17.4446 20.799 15.904 21.6186L10.5 24.5ZM1.75 1.75V13.125C1.74855 14.5528 2.13597 15.9541 2.87067 17.1784C3.60537 18.4027 4.65962 19.4038 5.92025 20.0742L10.5 22.5164L15.0797 20.0751C16.3405 19.4046 17.3948 18.4034 18.1296 17.1789C18.8643 15.9544 19.2516 14.553 19.25 13.125V1.75H1.75Z" fill="#444444"/>
</svg>
