<svg width="439" height="232" viewBox="0 0 439 232" fill="none" xmlns="http://www.w3.org/2000/svg">
<g clip-path="url(#clip0_57_561)">
<path d="M383.922 203.273C372.461 203.173 361.018 202.333 349.665 200.76C349.266 200.705 348.867 200.645 348.469 200.59L349.068 93.2661C349.464 92.951 349.865 92.6408 350.271 92.3403C351.613 91.3383 352.993 90.3992 354.421 89.5371C361.299 85.3935 369.352 83.4965 374.908 85.3975L374.995 85.4315C376.211 85.8419 377.335 86.4885 378.301 87.3342C383.18 91.6684 382.367 100.432 378.429 108.384C386.237 101.251 396.09 95.5717 404.885 95.1402C413.463 94.717 419.592 99.2023 424.8 104.067C424.972 104.227 425.139 104.386 425.306 104.546C425.393 104.623 425.474 104.706 425.56 104.783C429.529 108.578 433.441 113.003 432.968 119.408C432.448 126.433 426.564 134.221 419.707 139.682C412.855 145.142 405.071 148.771 397.474 152.449C389.882 156.132 382.096 160.117 375.607 166.027C385.732 158.022 397.253 151.568 408.458 149.184C419.662 146.8 430.424 148.899 435.701 156.032C437.253 158.198 438.264 160.704 438.65 163.341C438.701 163.649 438.742 163.961 438.779 164.279C439.531 170.883 437.246 178.768 431.786 185.477C425.774 192.865 416.862 197.987 408.401 200.536C399.941 203.084 391.796 203.356 383.922 203.273Z" fill="#F2F2F2"/>
<path d="M348.846 133.056L348.858 131.004C349.265 130.352 349.668 129.697 350.066 129.039C350.323 128.632 350.57 128.22 350.822 127.808C354.98 121.001 358.969 114.151 362.787 107.259C366.609 100.372 370.255 93.4517 373.724 86.4963C373.805 86.3119 373.947 86.1615 374.127 86.0712C374.306 85.9808 374.512 85.9563 374.708 86.0018C374.734 86.0093 374.758 86.0208 374.78 86.036C374.962 86.133 375.038 86.3499 374.882 86.6663C374.454 87.5195 374.026 88.3775 373.589 89.2306C370.06 96.205 366.355 103.149 362.473 110.064C358.594 116.974 354.543 123.844 350.321 130.675C350.234 130.819 350.141 130.963 350.054 131.106C349.651 131.758 349.249 132.404 348.846 133.056Z" fill="white"/>
<path d="M348.698 159.517L348.705 158.248C349.106 157.962 349.507 157.68 349.907 157.394C359.338 150.669 368.769 143.946 378.2 137.224C393.64 126.216 409.08 115.211 424.52 104.21C424.603 104.145 424.698 104.096 424.8 104.067C425.141 103.973 425.342 104.224 425.306 104.546C425.287 104.682 425.239 104.812 425.165 104.927C425.092 105.043 424.994 105.141 424.88 105.216C416.221 111.388 407.565 117.558 398.913 123.727C383.55 134.678 368.189 145.627 352.83 156.574C351.855 157.271 350.875 157.967 349.9 158.663C349.499 158.949 349.099 159.236 348.698 159.517Z" fill="white"/>
<path d="M356.068 187.789C353.929 187.724 351.825 187.582 349.739 187.398C349.341 187.362 348.942 187.326 348.543 187.29L348.55 185.958C348.949 185.999 349.348 186.04 349.747 186.076C352.759 186.357 355.806 186.557 358.935 186.584C367.612 186.619 376.269 185.774 384.774 184.06C393.932 182.239 402.914 179.624 411.618 176.245C420.799 172.699 429.68 168.423 438.178 163.459C438.316 163.365 438.483 163.323 438.65 163.341C439.029 163.396 439.142 163.901 438.779 164.279C438.708 164.354 438.627 164.418 438.538 164.47C437.481 165.084 436.422 165.687 435.36 166.279C426.815 171.06 417.902 175.153 408.707 178.517C399.974 181.722 390.979 184.16 381.822 185.803C373.328 187.342 364.698 188.008 356.068 187.789Z" fill="white"/>
<path d="M345.495 5.46347e-09H53.6981C52.5867 0.00101061 51.521 0.442943 50.7352 1.22879C49.9493 2.01463 49.5073 3.08017 49.5063 4.19151V201.904C49.5073 203.015 49.9493 204.081 50.7352 204.867C51.521 205.652 52.5867 206.094 53.6981 206.095H345.495C346.101 206.095 346.7 205.964 347.25 205.71C347.8 205.456 348.289 205.086 348.682 204.624C348.716 204.588 348.746 204.55 348.774 204.509C349.024 204.203 349.226 203.861 349.375 203.495C349.585 202.991 349.693 202.45 349.692 201.904V4.19154C349.69 3.07942 349.248 2.01326 348.461 1.22732C347.674 0.44138 346.607 -5.67052e-05 345.495 5.46347e-09ZM348.495 201.904C348.495 202.489 348.323 203.061 347.999 203.548C347.712 203.977 347.322 204.327 346.865 204.567C346.442 204.786 345.972 204.899 345.495 204.898H53.6981C52.9041 204.897 52.1429 204.582 51.5815 204.02C51.02 203.459 50.7042 202.698 50.7032 201.904V4.19154C50.7042 3.39761 51.02 2.63647 51.5814 2.07507C52.1429 1.51367 52.9041 1.19786 53.6981 1.1969H345.495C346.29 1.1968 347.052 1.51211 347.615 2.0736C348.177 2.63508 348.494 3.39683 348.495 4.19154V201.904Z" fill="white"/>
<path d="M349.09 16.7993H50.1035V17.9976H349.09V16.7993Z" fill="white"/>
<path d="M60.2899 12.5815C62.2753 12.5815 63.8849 10.9721 63.8849 8.98681C63.8849 7.0015 62.2753 5.39209 60.2899 5.39209C58.3044 5.39209 56.6948 7.0015 56.6948 8.98681C56.6948 10.9721 58.3044 12.5815 60.2899 12.5815Z" fill="white"/>
<path d="M70.6253 12.5815C72.6108 12.5815 74.2203 10.9721 74.2203 8.98681C74.2203 7.0015 72.6108 5.39209 70.6253 5.39209C68.6398 5.39209 67.0303 7.0015 67.0303 8.98681C67.0303 10.9721 68.6398 12.5815 70.6253 12.5815Z" fill="white"/>
<path d="M80.9612 12.5815C82.9467 12.5815 84.5563 10.9721 84.5563 8.98681C84.5563 7.0015 82.9467 5.39209 80.9612 5.39209C78.9758 5.39209 77.3662 7.0015 77.3662 8.98681C77.3662 10.9721 78.9758 12.5815 80.9612 12.5815Z" fill="white"/>
<path d="M274.637 44.5357H124.652C122.995 44.5357 121.405 43.8774 120.233 42.7055C119.061 41.5336 118.403 39.9442 118.403 38.2869C118.403 36.6296 119.061 35.0402 120.233 33.8683C121.405 32.6964 122.995 32.0381 124.652 32.0381H274.637C276.294 32.0381 277.884 32.6964 279.056 33.8683C280.228 35.0402 280.886 36.6296 280.886 38.2869C280.886 39.9442 280.228 41.5336 279.056 42.7055C277.884 43.8774 276.294 44.5357 274.637 44.5357ZM124.652 32.9994C123.25 32.9994 121.905 33.5565 120.913 34.5481C119.921 35.5397 119.364 36.8846 119.364 38.2869C119.364 39.6892 119.921 41.0341 120.913 42.0257C121.905 43.0173 123.25 43.5743 124.652 43.5743H274.637C276.039 43.5743 277.384 43.0173 278.376 42.0257C279.368 41.0341 279.925 39.6892 279.925 38.2869C279.925 36.8846 279.368 35.5397 278.376 34.5481C277.384 33.5565 276.039 32.9994 274.637 32.9994H124.652Z" fill="white"/>
<path d="M125.905 82.7497H112.445C111.425 82.7497 110.447 82.3445 109.726 81.6234C109.004 80.9022 108.599 79.9241 108.599 78.9043C108.599 77.8844 109.004 76.9063 109.726 76.1851C110.447 75.464 111.425 75.0588 112.445 75.0588H125.905C126.925 75.0588 127.903 75.464 128.624 76.1851C129.346 76.9063 129.751 77.8844 129.751 78.9043C129.751 79.9241 129.346 80.9022 128.624 81.6234C127.903 82.3445 126.925 82.7497 125.905 82.7497Z" fill="#CCCCCC"/>
<path d="M141.769 95.728H112.445C111.425 95.728 110.447 95.3228 109.726 94.6017C109.004 93.8805 108.599 92.9024 108.599 91.8825C108.599 90.8627 109.004 89.8846 109.726 89.1634C110.447 88.4423 111.425 88.0371 112.445 88.0371H141.769C142.789 88.0371 143.767 88.4423 144.488 89.1634C145.209 89.8846 145.615 90.8627 145.615 91.8825C145.615 92.9024 145.209 93.8805 144.488 94.6017C143.767 95.3228 142.789 95.728 141.769 95.728Z" fill="#CCCCCC"/>
<path d="M128.309 139.47H114.849C113.829 139.47 112.851 139.065 112.129 138.343C111.408 137.622 111.003 136.644 111.003 135.624C111.003 134.604 111.408 133.626 112.129 132.905C112.851 132.184 113.829 131.779 114.849 131.779H128.309C129.329 131.779 130.307 132.184 131.028 132.905C131.749 133.626 132.155 134.604 132.155 135.624C132.155 136.644 131.749 137.622 131.028 138.343C130.307 139.065 129.329 139.47 128.309 139.47Z" fill="#CCCCCC"/>
<path d="M144.173 152.448H114.849C113.829 152.448 112.851 152.043 112.129 151.322C111.408 150.6 111.003 149.622 111.003 148.603C111.003 147.583 111.408 146.605 112.129 145.883C112.851 145.162 113.829 144.757 114.849 144.757H144.173C145.193 144.757 146.171 145.162 146.892 145.883C147.613 146.605 148.018 147.583 148.018 148.603C148.018 149.622 147.613 150.6 146.892 151.322C146.171 152.043 145.193 152.448 144.173 152.448Z" fill="#CCCCCC"/>
<path d="M216.761 138.028H203.301C202.281 138.028 201.303 137.622 200.581 136.901C199.86 136.18 199.455 135.202 199.455 134.182C199.455 133.162 199.86 132.184 200.581 131.463C201.303 130.742 202.281 130.337 203.301 130.337H216.761C217.781 130.337 218.759 130.742 219.48 131.463C220.202 132.184 220.607 133.162 220.607 134.182C220.607 135.202 220.202 136.18 219.48 136.901C218.759 137.622 217.781 138.028 216.761 138.028Z" fill="#CCCCCC"/>
<path d="M232.625 151.006H203.301C202.281 151.006 201.303 150.601 200.581 149.879C199.86 149.158 199.455 148.18 199.455 147.16C199.455 146.14 199.86 145.162 200.581 144.441C201.303 143.72 202.281 143.315 203.301 143.315H232.625C233.645 143.315 234.623 143.72 235.344 144.441C236.065 145.162 236.47 146.14 236.47 147.16C236.47 148.18 236.065 149.158 235.344 149.879C234.623 150.601 233.645 151.006 232.625 151.006Z" fill="#CCCCCC"/>
<path d="M215.319 85.153H201.859C200.839 85.153 199.861 84.7479 199.14 84.0267C198.418 83.3055 198.013 82.3274 198.013 81.3076C198.013 80.2877 198.418 79.3096 199.14 78.5885C199.861 77.8673 200.839 77.4622 201.859 77.4622H215.319C216.339 77.4622 217.317 77.8673 218.038 78.5885C218.76 79.3096 219.165 80.2877 219.165 81.3076C219.165 82.3274 218.76 83.3055 218.038 84.0267C217.317 84.7479 216.339 85.153 215.319 85.153Z" fill="#CCCCCC"/>
<path d="M231.183 98.1313H201.859C200.839 98.1313 199.861 97.7261 199.14 97.005C198.418 96.2838 198.013 95.3057 198.013 94.2859C198.013 93.266 198.418 92.2879 199.14 91.5667C199.861 90.8456 200.839 90.4404 201.859 90.4404H231.183C232.203 90.4404 233.181 90.8456 233.902 91.5667C234.623 92.2879 235.029 93.266 235.029 94.2859C235.029 95.3057 234.623 96.2838 233.902 97.005C233.181 97.7261 232.203 98.1313 231.183 98.1313Z" fill="#CCCCCC"/>
<path d="M305.214 82.269H291.753C290.734 82.269 289.755 81.8638 289.034 81.1427C288.313 80.4215 287.908 79.4434 287.908 78.4235C287.908 77.4037 288.313 76.4256 289.034 75.7044C289.755 74.9833 290.734 74.5781 291.753 74.5781H305.214C306.234 74.5781 307.212 74.9833 307.933 75.7044C308.654 76.4256 309.059 77.4037 309.059 78.4235C309.059 79.4434 308.654 80.4215 307.933 81.1427C307.212 81.8638 306.234 82.269 305.214 82.269Z" fill="#CCCCCC"/>
<path d="M321.077 95.2472H291.753C290.734 95.2472 289.755 94.8421 289.034 94.1209C288.313 93.3998 287.908 92.4217 287.908 91.4018C287.908 90.3819 288.313 89.4039 289.034 88.6827C289.755 87.9615 290.734 87.5564 291.753 87.5564H321.077C322.097 87.5564 323.075 87.9615 323.797 88.6827C324.518 89.4039 324.923 90.3819 324.923 91.4018C324.923 92.4217 324.518 93.3998 323.797 94.1209C323.075 94.8421 322.097 95.2472 321.077 95.2472Z" fill="#CCCCCC"/>
<path d="M88.6965 99.8136C96.6613 99.8136 103.118 93.3574 103.118 85.3932C103.118 77.4291 96.6613 70.9729 88.6965 70.9729C80.7317 70.9729 74.2749 77.4291 74.2749 85.3932C74.2749 93.3574 80.7317 99.8136 88.6965 99.8136Z" fill="white"/>
<path d="M95.4267 91.8826H81.9666C81.5842 91.8822 81.2176 91.7301 80.9473 91.4598C80.6769 91.1894 80.5248 90.8229 80.5244 90.4406V80.3463C80.5248 79.964 80.6769 79.5975 80.9473 79.3271C81.2176 79.0568 81.5842 78.9047 81.9666 78.9043H85.7558C86.0022 78.9034 86.2447 78.9661 86.4599 79.0862C86.6751 79.2064 86.8556 79.38 86.9841 79.5904L88.0408 81.3077H95.4267C95.8091 81.3081 96.1757 81.4602 96.446 81.7305C96.7164 82.0009 96.8685 82.3674 96.8689 82.7497V90.4406C96.8685 90.8229 96.7164 91.1894 96.446 91.4598C96.1757 91.7301 95.8091 91.8822 95.4267 91.8826ZM81.9666 79.8657C81.8391 79.8658 81.717 79.9165 81.6268 80.0066C81.5367 80.0967 81.486 80.2189 81.4859 80.3463V90.4406C81.486 90.568 81.5367 90.6902 81.6268 90.7803C81.717 90.8704 81.8391 90.9211 81.9666 90.9212H95.4267C95.5542 90.9211 95.6763 90.8704 95.7665 90.7803C95.8566 90.6902 95.9073 90.568 95.9074 90.4406V82.7497C95.9073 82.6223 95.8566 82.5001 95.7665 82.41C95.6763 82.3199 95.5542 82.2692 95.4267 82.2691H87.5038L86.1654 80.0943C86.1225 80.0242 86.0623 79.9663 85.9905 79.9263C85.9188 79.8862 85.838 79.8653 85.7558 79.8657H81.9666Z" fill="white"/>
<path d="M177.149 102.217C185.114 102.217 191.571 95.7609 191.571 87.7968C191.571 79.8327 185.114 73.3765 177.149 73.3765C169.184 73.3765 162.728 79.8327 162.728 87.7968C162.728 95.7609 169.184 102.217 177.149 102.217Z" fill="white"/>
<path d="M183.398 96.9296H170.9C170.517 96.9292 170.151 96.7771 169.88 96.5067C169.61 96.2364 169.458 95.8699 169.458 95.4875V80.1059C169.458 79.7235 169.61 79.357 169.88 79.0866C170.151 78.8163 170.517 78.6642 170.9 78.6638H179.956C180.285 78.6641 180.603 78.7763 180.86 78.9818L184.302 81.7476C184.47 81.8824 184.606 82.0534 184.7 82.248C184.793 82.4426 184.841 82.6558 184.841 82.8716V95.4875C184.84 95.8699 184.688 96.2364 184.418 96.5067C184.147 96.7771 183.781 96.9292 183.398 96.9296ZM170.9 79.6252C170.772 79.6253 170.65 79.676 170.56 79.7661C170.47 79.8563 170.419 79.9784 170.419 80.1059V95.4875C170.419 95.615 170.47 95.7371 170.56 95.8272C170.65 95.9174 170.772 95.968 170.9 95.9682H183.398C183.526 95.968 183.648 95.9174 183.738 95.8272C183.828 95.7371 183.879 95.615 183.879 95.4875V82.8716C183.879 82.7997 183.863 82.7287 183.832 82.6638C183.801 82.599 183.756 82.5419 183.7 82.497L180.257 79.731C180.172 79.6626 180.066 79.6253 179.956 79.6252H170.9Z" fill="white"/>
<path d="M180.995 85.3935H173.303C173.176 85.3935 173.054 85.3428 172.964 85.2527C172.873 85.1625 172.823 85.0403 172.823 84.9128C172.823 84.7853 172.873 84.6631 172.964 84.5729C173.054 84.4828 173.176 84.4321 173.303 84.4321H180.995C181.122 84.4321 181.245 84.4828 181.335 84.5729C181.425 84.6631 181.476 84.7853 181.476 84.9128C181.476 85.0403 181.425 85.1625 181.335 85.2527C181.245 85.3428 181.122 85.3935 180.995 85.3935Z" fill="white"/>
<path d="M180.995 88.2775H173.303C173.176 88.2775 173.054 88.2269 172.964 88.1367C172.873 88.0466 172.823 87.9243 172.823 87.7968C172.823 87.6694 172.873 87.5471 172.964 87.4569C173.054 87.3668 173.176 87.3162 173.303 87.3162H180.995C181.122 87.3162 181.245 87.3668 181.335 87.4569C181.425 87.5471 181.476 87.6694 181.476 87.7968C181.476 87.9243 181.425 88.0466 181.335 88.1367C181.245 88.2269 181.122 88.2775 180.995 88.2775Z" fill="white"/>
<path d="M180.995 91.1616H173.303C173.176 91.1616 173.054 91.1109 172.964 91.0208C172.873 90.9306 172.823 90.8084 172.823 90.6809C172.823 90.5534 172.873 90.4311 172.964 90.341C173.054 90.2508 173.176 90.2002 173.303 90.2002H180.995C181.122 90.2002 181.245 90.2508 181.335 90.341C181.425 90.4311 181.476 90.5534 181.476 90.6809C181.476 90.8084 181.425 90.9306 181.335 91.0208C181.245 91.1109 181.122 91.1616 180.995 91.1616Z" fill="white"/>
<path d="M266.082 99.3328C274.047 99.3328 280.504 92.8766 280.504 84.9125C280.504 76.9484 274.047 70.4922 266.082 70.4922C258.117 70.4922 251.661 76.9484 251.661 84.9125C251.661 92.8766 258.117 99.3328 266.082 99.3328Z" fill="white"/>
<path d="M272.812 90.2002H259.352C258.969 90.1997 258.603 90.0477 258.333 89.7773C258.062 89.507 257.91 89.1404 257.91 88.7581V81.0673C257.91 80.685 258.062 80.3184 258.333 80.0481C258.603 79.7777 258.969 79.6257 259.352 79.6252H272.812C273.194 79.6257 273.561 79.7777 273.831 80.0481C274.102 80.3184 274.254 80.685 274.254 81.0673V88.7581C274.254 89.1404 274.102 89.507 273.831 89.7773C273.561 90.0477 273.194 90.1997 272.812 90.2002ZM259.352 80.5866C259.224 80.5867 259.102 80.6374 259.012 80.7275C258.922 80.8176 258.871 80.9398 258.871 81.0673V88.7581C258.871 88.8856 258.922 89.0078 259.012 89.0979C259.102 89.188 259.224 89.2387 259.352 89.2388H272.812C272.939 89.2387 273.062 89.188 273.152 89.0979C273.242 89.0078 273.293 88.8856 273.293 88.7581V81.0673C273.293 80.9398 273.242 80.8176 273.152 80.7275C273.062 80.6374 272.939 80.5867 272.812 80.5866H259.352Z" fill="white"/>
<path d="M266.082 86.1808C265.812 86.1811 265.547 86.1058 265.317 85.9632L258.135 81.4749C258.027 81.4072 257.951 81.2994 257.922 81.1753C257.894 81.0512 257.916 80.9208 257.983 80.8128C258.051 80.7048 258.158 80.6281 258.283 80.5993C258.407 80.5706 258.537 80.5922 258.645 80.6595L265.827 85.1478C265.904 85.1952 265.992 85.2203 266.082 85.2203C266.172 85.2203 266.26 85.1952 266.337 85.1478L273.518 80.6595C273.626 80.5922 273.757 80.5706 273.881 80.5993C274.005 80.6281 274.113 80.7048 274.18 80.8128C274.248 80.9208 274.27 81.0512 274.241 81.1753C274.213 81.2994 274.136 81.4072 274.028 81.4749L266.846 85.9632C266.617 86.1058 266.352 86.1812 266.082 86.1808Z" fill="white"/>
<path d="M88.6965 156.534C96.6613 156.534 103.118 150.077 103.118 142.113C103.118 134.149 96.6613 127.693 88.6965 127.693C80.7317 127.693 74.2749 134.149 74.2749 142.113C74.2749 150.077 80.7317 156.534 88.6965 156.534Z" fill="white"/>
<path d="M95.4267 147.401H81.9666C81.5842 147.4 81.2176 147.248 80.9473 146.978C80.6769 146.708 80.5248 146.341 80.5244 145.959V138.268C80.5248 137.886 80.6769 137.519 80.9473 137.249C81.2176 136.978 81.5842 136.826 81.9666 136.826H95.4267C95.8091 136.826 96.1757 136.978 96.446 137.249C96.7164 137.519 96.8685 137.886 96.8689 138.268V145.959C96.8685 146.341 96.7164 146.708 96.446 146.978C96.1757 147.248 95.8091 147.4 95.4267 147.401ZM81.9666 137.787C81.8391 137.787 81.7169 137.838 81.6268 137.928C81.5367 138.018 81.486 138.141 81.4859 138.268V145.959C81.486 146.086 81.5367 146.208 81.6268 146.299C81.7169 146.389 81.8391 146.439 81.9666 146.439H95.4267C95.5542 146.439 95.6764 146.389 95.7665 146.299C95.8566 146.208 95.9073 146.086 95.9074 145.959V138.268C95.9073 138.141 95.8566 138.018 95.7665 137.928C95.6764 137.838 95.5542 137.787 95.4267 137.787H81.9666Z" fill="white"/>
<path d="M93.2933 147.401H83.6193C83.4505 147.401 83.2846 147.356 83.1384 147.272C82.9923 147.188 82.8709 147.066 82.7865 146.92C82.7021 146.774 82.6577 146.608 82.6577 146.439C82.6577 146.271 82.7022 146.105 82.7867 145.959L85.7006 140.912C85.785 140.765 85.9064 140.644 86.0525 140.56C86.1987 140.475 86.3645 140.431 86.5333 140.431C86.702 140.431 86.8678 140.475 87.014 140.56C87.1602 140.644 87.2816 140.765 87.366 140.912L89.248 144.171L90.3383 142.283C90.4227 142.137 90.5441 142.015 90.6902 141.931C90.8364 141.846 91.0022 141.802 91.171 141.802C91.3397 141.802 91.5055 141.846 91.6517 141.931C91.7979 142.015 91.9193 142.137 92.0037 142.283L94.126 145.959C94.2104 146.105 94.2549 146.271 94.2548 146.439C94.2548 146.608 94.2104 146.774 94.126 146.92C94.0416 147.066 93.9202 147.188 93.774 147.272C93.6278 147.356 93.462 147.401 93.2932 147.401H93.2933ZM93.2933 146.439L91.1709 142.763L89.6644 145.373C89.6222 145.446 89.5615 145.507 89.4884 145.549C89.4153 145.591 89.3324 145.613 89.248 145.613C89.1636 145.613 89.0807 145.591 89.0076 145.549C88.9345 145.507 88.8738 145.446 88.8316 145.373L86.5334 141.392L83.6193 146.439H93.2933Z" fill="white"/>
<path d="M93.9844 140.671C94.5154 140.671 94.9458 140.241 94.9458 139.71C94.9458 139.179 94.5154 138.749 93.9844 138.749C93.4534 138.749 93.0229 139.179 93.0229 139.71C93.0229 140.241 93.4534 140.671 93.9844 140.671Z" fill="white"/>
<path d="M178.111 155.092C186.075 155.092 192.532 148.635 192.532 140.671C192.532 132.707 186.075 126.251 178.111 126.251C170.146 126.251 163.689 132.707 163.689 140.671C163.689 148.635 170.146 155.092 178.111 155.092Z" fill="white"/>
<path d="M178.111 140.912C177.255 140.912 176.418 140.658 175.707 140.183C174.996 139.707 174.441 139.032 174.114 138.241C173.786 137.451 173.7 136.581 173.867 135.742C174.034 134.902 174.446 134.132 175.051 133.527C175.656 132.922 176.427 132.51 177.267 132.343C178.106 132.176 178.976 132.261 179.766 132.589C180.557 132.916 181.233 133.471 181.708 134.182C182.183 134.894 182.437 135.73 182.437 136.586C182.436 137.733 181.98 138.832 181.168 139.643C180.357 140.454 179.258 140.91 178.111 140.912ZM178.111 133.221C177.445 133.221 176.795 133.418 176.241 133.788C175.688 134.158 175.256 134.683 175.002 135.298C174.747 135.913 174.68 136.589 174.81 137.242C174.94 137.895 175.261 138.494 175.731 138.965C176.202 139.435 176.801 139.756 177.454 139.886C178.107 140.016 178.784 139.949 179.398 139.694C180.013 139.44 180.539 139.008 180.909 138.455C181.278 137.902 181.476 137.251 181.476 136.586C181.475 135.694 181.12 134.838 180.489 134.208C179.858 133.577 179.003 133.222 178.111 133.221Z" fill="white"/>
<path d="M181.956 149.083H174.265C173.818 149.083 173.391 148.905 173.075 148.59C172.76 148.274 172.583 147.847 172.582 147.401C172.582 145.935 173.164 144.529 174.201 143.492C175.238 142.455 176.644 141.873 178.11 141.873C179.576 141.873 180.983 142.455 182.019 143.492C183.056 144.529 183.639 145.935 183.639 147.401C183.638 147.847 183.461 148.274 183.145 148.59C182.83 148.905 182.402 149.083 181.956 149.083ZM178.11 142.834C176.9 142.836 175.739 143.317 174.883 144.173C174.026 145.029 173.545 146.19 173.543 147.401C173.544 147.592 173.62 147.775 173.755 147.91C173.89 148.046 174.073 148.122 174.265 148.122H181.956C182.147 148.122 182.331 148.046 182.466 147.91C182.601 147.775 182.677 147.592 182.677 147.401C182.676 146.19 182.194 145.029 181.338 144.173C180.482 143.317 179.321 142.836 178.11 142.834Z" fill="white"/>
<path d="M38.9082 226.494H44.8018L47.6054 203.764L38.9072 203.765L38.9082 226.494Z" fill="#FFB8B8"/>
<path d="M56.168 231.966L37.6455 231.967L37.6452 224.811L49.0112 224.81C50.9092 224.81 52.7295 225.564 54.0717 226.906C55.4138 228.248 56.1679 230.068 56.168 231.966L56.168 231.966Z" fill="white"/>
<path d="M16.7949 226.494H22.6885L25.4921 203.764L16.7939 203.765L16.7949 226.494Z" fill="#FFB8B8"/>
<path d="M34.0547 231.966L15.5322 231.967L15.5319 224.811L26.8979 224.81C28.7959 224.81 30.6162 225.564 31.9584 226.906C33.3005 228.248 34.0546 230.068 34.0547 231.966L34.0547 231.966Z" fill="white"/>
<path d="M17.5147 158.797C18.1496 158.388 18.6873 157.846 19.0899 157.207C19.4924 156.568 19.75 155.849 19.8445 155.1C19.939 154.351 19.8682 153.591 19.6369 152.872C19.4057 152.153 19.0196 151.494 18.506 150.941L22.3866 95.8755L11.2085 96.9595L10.9014 150.885C10.029 151.809 9.526 153.022 9.48771 154.292C9.44942 155.562 9.87852 156.803 10.6937 157.778C11.5089 158.753 12.6535 159.396 13.9106 159.583C15.1678 159.771 16.4501 159.491 17.5147 158.797H17.5147Z" fill="#FFB8B8"/>
<path d="M39.0837 215.046C38.5549 215.045 38.0449 214.85 37.6494 214.499C37.2539 214.148 37 213.665 36.9355 213.14L33.5098 184.49C33.4616 184.087 33.269 183.715 32.9676 183.442C32.6663 183.17 32.2765 183.015 31.8702 183.008C31.464 183 31.0687 183.14 30.7575 183.401C30.4463 183.662 30.2401 184.027 30.177 184.429L25.8616 211.86C25.7835 212.37 25.5248 212.835 25.1325 213.17C24.7403 213.506 24.2407 213.689 23.7247 213.687H16.7302C16.4447 213.687 16.1621 213.63 15.8986 213.521C15.6351 213.411 15.3959 213.25 15.1948 213.047C14.9937 212.845 14.8347 212.604 14.7269 212.34C14.6192 212.076 14.5648 211.793 14.567 211.507L17.9052 150.685C17.9064 150.167 18.0945 149.667 18.4348 149.277C18.7751 148.887 19.2448 148.632 19.7576 148.561L45.7135 144.793C46.0219 144.748 46.3363 144.771 46.6352 144.859C46.9341 144.947 47.2105 145.099 47.4454 145.303C47.6803 145.508 47.8682 145.761 47.9963 146.045C48.1244 146.329 48.1896 146.638 48.1875 146.949L47.7347 212.589C47.7309 213.142 47.5151 213.673 47.1319 214.072C46.7487 214.471 46.2271 214.708 45.6744 214.734L39.1864 215.043C39.152 215.045 39.1178 215.046 39.0837 215.046Z" fill="white"/>
<path d="M25.627 152.983C23.1303 152.973 20.6541 152.532 18.3076 151.68C17.9098 151.533 17.5643 151.272 17.3147 150.93C17.0651 150.587 16.9224 150.178 16.9049 149.755C16.6809 144.786 15.3709 119.211 11.5571 103.61C10.8158 100.55 10.9971 97.3387 12.0781 94.3813C13.1591 91.4239 15.0915 88.8526 17.6317 86.9916C17.8368 86.8442 18.046 86.6994 18.2591 86.5574C20.4649 85.0891 23.0097 84.2096 25.6514 84.0026C28.2931 83.7955 30.9439 84.2678 33.3516 85.3745C35.8388 86.4873 37.9999 88.218 39.6293 90.4019C41.2586 92.5859 42.3019 95.1504 42.66 97.8514L48.8793 144.021C48.9192 144.31 48.9002 144.603 48.8232 144.884C48.7463 145.165 48.6131 145.428 48.4317 145.656C48.2542 145.882 48.0326 146.07 47.7803 146.209C47.528 146.347 47.2502 146.432 46.9638 146.46C44.8088 146.675 40.3392 147.51 34.619 150.688C31.8682 152.212 28.7716 153.002 25.627 152.983Z" fill="#3F3D56"/>
<path d="M18.0238 114.712L7.78899 111.937C7.23562 111.787 6.76462 111.423 6.47933 110.925C6.19404 110.428 6.11776 109.837 6.26722 109.284L9.86519 96.0146C10.2506 94.5933 11.1486 93.3649 12.3861 92.5664C13.6235 91.7679 15.1129 91.4558 16.5669 91.6903C18.0208 91.9248 19.3365 92.6893 20.2602 93.8363C21.1839 94.9834 21.6501 96.4317 21.569 97.9021L20.7499 112.744C20.7322 113.065 20.6428 113.379 20.4882 113.662C20.3336 113.945 20.1178 114.189 19.8565 114.378C19.5952 114.567 19.2951 114.695 18.978 114.753C18.6609 114.81 18.3349 114.796 18.0238 114.712Z" fill="#3F3D56"/>
<path d="M29.4168 79.1055C35.9376 79.1055 41.2238 73.8198 41.2238 67.2996C41.2238 60.7794 35.9376 55.4937 29.4168 55.4937C22.896 55.4937 17.6099 60.7794 17.6099 67.2996C17.6099 73.8198 22.896 79.1055 29.4168 79.1055Z" fill="#FFB8B8"/>
<path d="M72.2028 90.4945C72.1438 90.7539 72.1053 91.0175 72.0877 91.2829L51.4373 103.195L46.4179 100.306L41.0669 107.31L51.8048 114.963L75.3639 96.3787C76.3247 96.7342 77.3711 96.7888 78.3638 96.5352C79.3564 96.2817 80.2484 95.7319 80.921 94.9591C81.5936 94.1863 82.0149 93.2271 82.129 92.209C82.2431 91.1909 82.0445 90.1622 81.5597 89.2597C81.0749 88.3572 80.3267 87.6237 79.4148 87.1567C78.5029 86.6897 77.4704 86.5114 76.4547 86.6454C75.4389 86.7795 74.4881 87.2196 73.7286 87.9071C72.969 88.5947 72.4368 89.4972 72.2028 90.4946V90.4945Z" fill="#FFB8B8"/>
<path d="M49.7257 103.77L40.8303 109.542C40.3488 109.854 39.7634 109.962 39.2025 109.842C38.6415 109.723 38.1508 109.386 37.8381 108.905L30.3533 97.3727C29.5515 96.1374 29.2355 94.649 29.4662 93.1945C29.6969 91.74 30.458 90.4225 31.6028 89.4959C32.7475 88.5694 34.1948 88.0994 35.6656 88.1767C37.1363 88.2539 38.5264 88.873 39.5677 89.9144L50.0779 100.426C50.3058 100.654 50.4799 100.93 50.5875 101.234C50.695 101.538 50.7333 101.862 50.6996 102.182C50.6658 102.503 50.5608 102.811 50.3923 103.086C50.2238 103.361 49.9961 103.595 49.7257 103.77Z" fill="#3F3D56"/>
<path d="M21.0616 76.6401C23.2642 78.9862 27.3548 77.7268 27.6418 74.5217C27.6643 74.2729 27.6627 74.0224 27.637 73.7739C27.4888 72.3542 26.6685 71.0653 26.865 69.5662C26.9095 69.1932 27.0485 68.8376 27.2688 68.5333C29.0241 66.1831 33.1443 69.5845 34.8008 67.4569C35.8166 66.1524 34.6226 64.0984 35.4021 62.6403C36.4308 60.7159 39.478 61.6652 41.3889 60.6113C43.515 59.4387 43.3878 56.1769 41.9883 54.1929C40.2815 51.7734 37.2889 50.4824 34.3336 50.2963C31.3783 50.1102 28.4434 50.909 25.6844 51.9842C22.5495 53.2057 19.4409 54.8939 17.5118 57.6502C15.1658 61.002 14.94 65.5082 16.1133 69.4276C16.827 71.8118 19.2629 74.7243 21.0616 76.6401Z" fill="white"/>
<path d="M67.7815 232H0.48072C0.353225 232 0.230952 231.949 0.140799 231.859C0.0506467 231.769 0 231.647 0 231.519C0 231.392 0.0506467 231.27 0.140799 231.179C0.230952 231.089 0.353225 231.039 0.48072 231.039H67.7815C67.909 231.039 68.0312 231.089 68.1214 231.179C68.2115 231.27 68.2622 231.392 68.2622 231.519C68.2622 231.647 68.2115 231.769 68.1214 231.859C68.0312 231.949 67.909 232 67.7815 232Z" fill="#3F3D56"/>
</g>
<defs>
<clipPath id="clip0_57_561">
<rect width="439" height="232" fill="white"/>
</clipPath>
</defs>
</svg>
