<svg xmlns="http://www.w3.org/2000/svg" width="439" height="232" fill="none"><g clip-path="url(#a)"><path fill="#F2F2F2" d="M383.922 203.273c-11.461-.1-22.904-.94-34.257-2.513-.399-.055-.798-.115-1.196-.17l.599-107.324c.396-.315.797-.625 1.203-.926a50.986 50.986 0 0 1 4.15-2.803c6.878-4.144 14.931-6.04 20.487-4.14l.087.034a9.756 9.756 0 0 1 3.306 1.903c4.879 4.334 4.066 13.098.128 21.05 7.808-7.133 17.661-12.812 26.456-13.244 8.578-.423 14.707 4.062 19.915 8.927.172.16.339.319.506.479.087.077.168.16.254.237 3.969 3.795 7.881 8.22 7.408 14.625-.52 7.025-6.404 14.813-13.261 20.274-6.852 5.46-14.636 9.089-22.233 12.767-7.592 3.683-15.378 7.668-21.867 13.578 10.125-8.005 21.646-14.459 32.851-16.843 11.204-2.384 21.966-.285 27.243 6.848a16.701 16.701 0 0 1 2.949 7.309c.051.308.092.62.129.938.752 6.604-1.533 14.489-6.993 21.198-6.012 7.388-14.924 12.51-23.385 15.059-8.46 2.548-16.605 2.82-24.479 2.737Z"/><path fill="#fff" d="m348.846 133.056.012-2.052c.407-.652.81-1.307 1.208-1.965.257-.407.504-.819.756-1.231a560.007 560.007 0 0 0 11.965-20.549 533.385 533.385 0 0 0 10.937-20.763.863.863 0 0 1 .984-.494c.026.007.05.019.072.034.182.097.258.314.102.63-.428.853-.856 1.712-1.293 2.565a547.681 547.681 0 0 1-11.116 20.833 568.689 568.689 0 0 1-12.152 20.611c-.087.144-.18.288-.267.431l-1.208 1.95ZM348.698 159.517l.007-1.269c.401-.286.802-.568 1.202-.854 9.431-6.725 18.862-13.448 28.293-20.17 15.44-11.008 30.88-22.013 46.32-33.014a.817.817 0 0 1 .28-.143c.341-.094.542.157.506.479a.958.958 0 0 1-.426.67 1141062.922 1141062.922 0 0 1-72.05 51.358c-.975.697-1.955 1.393-2.93 2.089-.401.286-.801.573-1.202.854ZM356.068 187.789a109.843 109.843 0 0 1-6.329-.391l-1.196-.108.007-1.332c.399.041.798.082 1.197.118 3.012.281 6.059.481 9.188.508 8.677.035 17.334-.81 25.839-2.524a160.865 160.865 0 0 0 26.844-7.815 184.32 184.32 0 0 0 26.56-12.786.704.704 0 0 1 .472-.118c.379.055.492.56.129.938a1.085 1.085 0 0 1-.241.191 206.432 206.432 0 0 1-3.178 1.809 184.207 184.207 0 0 1-26.653 12.238 160.097 160.097 0 0 1-26.885 7.286 126.464 126.464 0 0 1-25.754 1.986Z"/><path fill="#fff" d="M345.495 0H53.698a4.196 4.196 0 0 0-4.192 4.192v197.712a4.197 4.197 0 0 0 4.192 4.191h291.797a4.186 4.186 0 0 0 3.279-1.586c.25-.306.452-.648.601-1.014.21-.504.318-1.045.317-1.591V4.192A4.199 4.199 0 0 0 345.495 0Zm3 201.904c0 .585-.172 1.157-.496 1.644a3.095 3.095 0 0 1-1.134 1.019 2.966 2.966 0 0 1-1.37.331H53.698a2.996 2.996 0 0 1-2.995-2.994V4.192a2.998 2.998 0 0 1 2.995-2.995h291.797a3.001 3.001 0 0 1 3 2.995v197.712Z"/><path fill="#fff" d="M349.09 16.8H50.104v1.198H349.09v-1.199ZM60.29 12.582a3.595 3.595 0 1 0 0-7.19 3.595 3.595 0 0 0 0 7.19ZM70.625 12.582a3.595 3.595 0 1 0 0-7.19 3.595 3.595 0 0 0 0 7.19ZM80.961 12.582a3.595 3.595 0 1 0 0-7.19 3.595 3.595 0 0 0 0 7.19ZM274.637 44.536H124.652a6.25 6.25 0 0 1-4.419-10.668 6.25 6.25 0 0 1 4.419-1.83h149.985a6.25 6.25 0 0 1 4.419 10.668 6.25 6.25 0 0 1-4.419 1.83ZM124.652 32.999a5.29 5.29 0 0 0-3.739 9.027 5.29 5.29 0 0 0 3.739 1.548h149.985a5.29 5.29 0 0 0 3.739-9.026A5.29 5.29 0 0 0 274.637 33H124.652Z"/><path fill="#CCC" d="M125.905 82.75h-13.46a3.845 3.845 0 1 1 0-7.691h13.46a3.845 3.845 0 1 1 0 7.69ZM141.769 95.728h-29.324a3.845 3.845 0 1 1 0-7.69h29.324a3.845 3.845 0 1 1 0 7.69ZM128.309 139.47h-13.46a3.846 3.846 0 1 1 0-7.691h13.46a3.845 3.845 0 1 1 0 7.691ZM144.173 152.448h-29.324a3.848 3.848 0 0 1-2.72-6.565 3.85 3.85 0 0 1 2.72-1.126h29.324a3.845 3.845 0 1 1 0 7.691ZM216.761 138.028h-13.46a3.85 3.85 0 0 1-3.846-3.846 3.845 3.845 0 0 1 3.846-3.845h13.46a3.845 3.845 0 1 1 0 7.691ZM232.625 151.006h-29.324a3.846 3.846 0 1 1 0-7.691h29.324a3.845 3.845 0 1 1 0 7.691ZM215.319 85.153h-13.46a3.844 3.844 0 1 1 0-7.69h13.46a3.844 3.844 0 1 1 0 7.69ZM231.183 98.131h-29.324a3.845 3.845 0 1 1 0-7.69h29.324a3.845 3.845 0 1 1 0 7.69ZM305.214 82.269h-13.461a3.847 3.847 0 0 1 0-7.69h13.461a3.845 3.845 0 1 1 0 7.69ZM321.077 95.247h-29.324a3.846 3.846 0 0 1 0-7.69h29.324a3.849 3.849 0 0 1 3.846 3.845 3.846 3.846 0 0 1-3.846 3.845Z"/><path fill="#fff" d="M88.697 99.814c7.964 0 14.421-6.457 14.421-14.42 0-7.965-6.457-14.421-14.421-14.421-7.965 0-14.422 6.456-14.422 14.42 0 7.964 6.457 14.42 14.421 14.42Z"/><path fill="#fff" d="M95.427 91.883h-13.46a1.444 1.444 0 0 1-1.443-1.442V80.346a1.443 1.443 0 0 1 1.443-1.442h3.789a1.434 1.434 0 0 1 1.228.686l1.057 1.718h7.386a1.444 1.444 0 0 1 1.442 1.442v7.69a1.443 1.443 0 0 1-1.442 1.443Zm-13.46-12.017a.481.481 0 0 0-.481.48v10.095a.481.481 0 0 0 .48.48h13.46a.481.481 0 0 0 .481-.48V82.75a.481.481 0 0 0-.48-.48h-7.923l-1.339-2.176a.478.478 0 0 0-.41-.228h-3.788ZM177.149 102.217c7.965 0 14.422-6.456 14.422-14.42 0-7.964-6.457-14.42-14.422-14.42-7.965 0-14.421 6.456-14.421 14.42 0 7.964 6.456 14.42 14.421 14.42Z"/><path fill="#fff" d="M183.398 96.93H170.9a1.445 1.445 0 0 1-1.442-1.443V80.106a1.443 1.443 0 0 1 1.442-1.442h9.056c.329 0 .647.112.904.318l3.442 2.766c.168.134.304.305.398.5.093.195.141.408.141.624v12.615a1.447 1.447 0 0 1-1.443 1.443ZM170.9 79.625a.48.48 0 0 0-.481.48v15.382a.48.48 0 0 0 .481.481h12.498a.48.48 0 0 0 .481-.48V82.871a.482.482 0 0 0-.179-.375l-3.443-2.766a.48.48 0 0 0-.301-.106H170.9Z"/><path fill="#fff" d="M180.995 85.394h-7.692a.48.48 0 0 1-.339-.821.48.48 0 0 1 .339-.14h7.692a.482.482 0 0 1 0 .96ZM180.995 88.278h-7.692a.479.479 0 0 1-.48-.481.478.478 0 0 1 .48-.48h7.692a.482.482 0 0 1 0 .96ZM180.995 91.162h-7.692a.48.48 0 0 1-.339-.821c.09-.09.212-.14.339-.14h7.692a.481.481 0 0 1 0 .96ZM266.082 99.333c7.965 0 14.422-6.456 14.422-14.42 0-7.965-6.457-14.42-14.422-14.42-7.965 0-14.421 6.455-14.421 14.42 0 7.964 6.456 14.42 14.421 14.42Z"/><path fill="#fff" d="M272.812 90.2h-13.46a1.442 1.442 0 0 1-1.442-1.442v-7.69a1.442 1.442 0 0 1 1.442-1.442h13.46a1.443 1.443 0 0 1 1.442 1.441v7.691a1.443 1.443 0 0 1-1.442 1.442Zm-13.46-9.613a.48.48 0 0 0-.481.48v7.691a.481.481 0 0 0 .481.48h13.46a.482.482 0 0 0 .481-.48v-7.69a.481.481 0 0 0-.481-.481h-13.46Z"/><path fill="#fff" d="M266.082 86.18c-.27.001-.535-.074-.765-.217l-7.182-4.488a.482.482 0 0 1 .148-.876.48.48 0 0 1 .362.06l7.182 4.489a.486.486 0 0 0 .51 0l7.181-4.489a.482.482 0 0 1 .51.816l-7.182 4.488a1.442 1.442 0 0 1-.764.218ZM88.697 156.534c7.964 0 14.421-6.457 14.421-14.421 0-7.964-6.457-14.42-14.421-14.42-7.965 0-14.422 6.456-14.422 14.42 0 7.964 6.457 14.421 14.421 14.421Z"/><path fill="#fff" d="M95.427 147.401h-13.46a1.448 1.448 0 0 1-1.443-1.442v-7.691a1.443 1.443 0 0 1 1.443-1.442h13.46a1.443 1.443 0 0 1 1.442 1.442v7.691a1.443 1.443 0 0 1-1.442 1.442Zm-13.46-9.614a.481.481 0 0 0-.481.481v7.691a.48.48 0 0 0 .48.48h13.46a.48.48 0 0 0 .481-.48v-7.691a.482.482 0 0 0-.48-.481h-13.46Z"/><path fill="#fff" d="M93.293 147.401H83.62a.966.966 0 0 1-.832-.481.961.961 0 0 1 0-.961l2.914-5.047a.953.953 0 0 1 .832-.481.956.956 0 0 1 .833.481l1.882 3.259 1.09-1.888a.96.96 0 0 1 1.666 0l2.122 3.676a.96.96 0 0 1-.352 1.313.966.966 0 0 1-.48.129Zm0-.962-2.122-3.676-1.507 2.61a.48.48 0 0 1-.832 0l-2.299-3.981-2.914 5.047h9.674ZM93.984 140.671a.961.961 0 1 0 .001-1.922.961.961 0 0 0 0 1.922ZM178.111 155.092c7.964 0 14.421-6.457 14.421-14.421 0-7.964-6.457-14.42-14.421-14.42-7.965 0-14.422 6.456-14.422 14.42 0 7.964 6.457 14.421 14.422 14.421Z"/><path fill="#fff" d="M178.111 140.912a4.329 4.329 0 0 1-4.244-5.17 4.323 4.323 0 0 1 3.4-3.399 4.322 4.322 0 0 1 3.901 7.3 4.333 4.333 0 0 1-3.057 1.269Zm0-7.691a3.365 3.365 0 1 0-.001 6.73 3.365 3.365 0 0 0 .001-6.73ZM181.956 149.083h-7.691a1.685 1.685 0 0 1-1.683-1.682 5.528 5.528 0 1 1 11.057 0 1.685 1.685 0 0 1-1.683 1.682Zm-3.846-6.249a4.575 4.575 0 0 0-4.567 4.567.725.725 0 0 0 .722.721h7.691a.719.719 0 0 0 .721-.721 4.571 4.571 0 0 0-4.567-4.567Z"/><path fill="#FFB8B8" d="M38.908 226.494h5.894l2.803-22.73-8.698.001.001 22.729Z"/><path fill="#fff" d="m56.168 231.966-18.523.001v-7.156l11.366-.001a7.157 7.157 0 0 1 7.157 7.156Z"/><path fill="#FFB8B8" d="M16.795 226.494h5.893l2.804-22.73-8.698.001v22.729Z"/><path fill="#fff" d="m34.055 231.966-18.523.001v-7.156l11.366-.001a7.157 7.157 0 0 1 7.157 7.156Z"/><path fill="#FFB8B8" d="M17.515 158.797a5.17 5.17 0 0 0 2.33-3.697 5.163 5.163 0 0 0-1.339-4.159l3.88-55.066L11.21 96.96l-.308 53.925a5.192 5.192 0 0 0 6.614 7.912Z"/><path fill="#fff" d="M39.084 215.046a2.167 2.167 0 0 1-2.149-1.906l-3.425-28.65a1.684 1.684 0 0 0-2.752-1.089 1.682 1.682 0 0 0-.581 1.028l-4.315 27.431a2.15 2.15 0 0 1-2.137 1.827H16.73a2.164 2.164 0 0 1-2.163-2.18l3.338-60.822a2.15 2.15 0 0 1 1.853-2.124l25.956-3.768a2.16 2.16 0 0 1 1.731.51 2.168 2.168 0 0 1 .742 1.646l-.452 65.64a2.163 2.163 0 0 1-2.06 2.145l-6.489.309a1.768 1.768 0 0 1-.102.003Z"/><path fill="#3F3D56" d="M25.627 152.983a21.701 21.701 0 0 1-7.32-1.303 2.153 2.153 0 0 1-1.402-1.925c-.224-4.969-1.534-30.544-5.348-46.145a15.946 15.946 0 0 1 6.702-17.053 15.53 15.53 0 0 1 15.093-1.183 15.97 15.97 0 0 1 9.308 12.477l6.22 46.17a2.15 2.15 0 0 1-.448 1.635 2.134 2.134 0 0 1-1.468.804c-2.155.215-6.625 1.05-12.345 4.228a18.326 18.326 0 0 1-8.992 2.295Z"/><path fill="#3F3D56" d="m18.024 114.712-10.235-2.775a2.161 2.161 0 0 1-1.522-2.653l3.598-13.27a5.96 5.96 0 0 1 11.704 1.888l-.82 14.842a2.165 2.165 0 0 1-2.725 1.968Z"/><path fill="#FFB8B8" d="M29.417 79.106c6.52 0 11.807-5.286 11.807-11.806s-5.286-11.806-11.807-11.806c-6.521 0-11.807 5.285-11.807 11.806 0 6.52 5.286 11.806 11.807 11.806ZM72.203 90.495c-.06.259-.098.522-.115.788l-20.65 11.912-5.02-2.889-5.351 7.004 10.738 7.653 23.559-18.584a5.046 5.046 0 1 0-3.161-5.884Z"/><path fill="#3F3D56" d="m49.726 103.77-8.896 5.772a2.163 2.163 0 0 1-2.992-.637l-7.485-11.532a5.96 5.96 0 0 1 9.215-7.459l10.51 10.512a2.164 2.164 0 0 1-.352 3.344Z"/><path fill="#fff" d="M21.062 76.64c2.202 2.346 6.293 1.087 6.58-2.118.022-.25.02-.5-.005-.748-.148-1.42-.968-2.709-.772-4.208.045-.373.184-.728.404-1.033 1.755-2.35 5.875 1.052 7.532-1.076 1.016-1.305-.178-3.359.601-4.817 1.029-1.924 4.076-.975 5.987-2.029 2.126-1.172 1.999-4.434.6-6.418-1.707-2.42-4.7-3.71-7.655-3.897-2.956-.186-5.89.613-8.65 1.688-3.135 1.222-6.243 2.91-8.172 5.666-2.346 3.352-2.572 7.858-1.399 11.778.714 2.384 3.15 5.296 4.949 7.212Z"/><path fill="#3F3D56" d="M67.781 232H.481a.482.482 0 0 1 0-.961h67.3a.48.48 0 1 1 0 .961Z"/></g><defs><clipPath id="a"><path fill="#fff" d="M0 0h439v232H0z"/></clipPath></defs></svg>