<svg width="16" height="16" viewBox="0 0 16 16" fill="none" xmlns="http://www.w3.org/2000/svg">
<path d="M15.4829 5.74059L10.6864 5.0435L8.54222 0.696623C8.48365 0.577608 8.38731 0.481263 8.26829 0.4227C7.96981 0.275348 7.6071 0.398141 7.45786 0.696623L5.3137 5.0435L0.517213 5.74059C0.384974 5.75948 0.26407 5.82182 0.171503 5.91628C0.0595945 6.0313 -0.0020722 6.18604 5.31712e-05 6.34651C0.00217854 6.50697 0.0679221 6.66003 0.182838 6.77205L3.65316 10.1555L2.83328 14.9331C2.81405 15.0442 2.82635 15.1585 2.86878 15.263C2.91121 15.3675 2.98207 15.458 3.07333 15.5243C3.16459 15.5906 3.27259 15.63 3.38509 15.638C3.4976 15.646 3.6101 15.6224 3.70983 15.5697L8.00004 13.3141L12.2902 15.5697C12.4074 15.632 12.5434 15.6528 12.6737 15.6302C13.0024 15.5735 13.2235 15.2618 13.1668 14.9331L12.3469 10.1555L15.8172 6.77205C15.9117 6.67948 15.974 6.55858 15.9929 6.42634C16.0439 6.09574 15.8135 5.7897 15.4829 5.74059ZM10.8866 9.67941L11.5686 13.6522L8.00004 11.7782L4.43148 13.6541L5.11345 9.6813L2.22687 6.86651L6.2167 6.28654L8.00004 2.67265L9.78337 6.28654L13.7732 6.86651L10.8866 9.67941Z" fill="black"/>
</svg>
