<svg width="12" height="16" viewBox="0 0 12 16" fill="none" xmlns="http://www.w3.org/2000/svg">
<path fill-rule="evenodd" clip-rule="evenodd" d="M8.72727 3.091H12V4.18191H10.9091V14.0001L9.81818 15.091H2.18182L1.09091 14.0001V4.18191H0V3.091H3.27273V2.00009C3.27273 1.71076 3.38766 1.43328 3.59225 1.2287C3.79683 1.02411 4.07431 0.90918 4.36364 0.90918H7.63636C7.92569 0.90918 8.20317 1.02411 8.40775 1.2287C8.61234 1.43328 8.72727 1.71076 8.72727 2.00009V3.091ZM7.63636 2.00009H4.36364V3.091H7.63636V2.00009ZM2.18182 14.0001H9.81818V4.18191H2.18182V14.0001ZM4.36364 5.27282H3.27273V12.9092H4.36364V5.27282ZM5.45455 5.27282H6.54545V12.9092H5.45455V5.27282ZM7.63636 5.27282H8.72727V12.9092H7.63636V5.27282Z" fill="black"/>
</svg>
