<svg width="22" height="22" viewBox="0 0 22 22" fill="none" xmlns="http://www.w3.org/2000/svg">
<path d="M22 9.5334H19.0667V6.60007H17.6V9.5334H14.6667V11.0001H17.6V13.9334H19.0667V11.0001H22V9.5334ZM7.33333 2.20007C8.05853 2.20007 8.76744 2.41511 9.37042 2.81801C9.9734 3.22091 10.4434 3.79356 10.7209 4.46356C10.9984 5.13356 11.071 5.8708 10.9295 6.58206C10.7881 7.29333 10.4389 7.94667 9.92606 8.45946C9.41327 8.97225 8.75993 9.32147 8.04867 9.46295C7.3374 9.60443 6.60016 9.53181 5.93016 9.25429C5.26017 8.97677 4.68751 8.5068 4.28461 7.90382C3.88171 7.30084 3.66667 6.59193 3.66667 5.86673C3.66667 4.89427 4.05298 3.96164 4.74061 3.27401C5.42824 2.58637 6.36087 2.20007 7.33333 2.20007ZM7.33333 0.733398C6.31806 0.733398 5.32558 1.03446 4.48141 1.59852C3.63723 2.16258 2.97928 2.9643 2.59075 3.90229C2.20222 4.84028 2.10056 5.87243 2.29864 6.8682C2.49671 7.86397 2.98561 8.77864 3.70352 9.49655C4.42143 10.2145 5.3361 10.7034 6.33187 10.9014C7.32764 11.0995 8.35978 10.9978 9.29778 10.6093C10.2358 10.2208 11.0375 9.56283 11.6015 8.71866C12.1656 7.87449 12.4667 6.88201 12.4667 5.86673C12.4667 4.50529 11.9258 3.1996 10.9631 2.23692C10.0005 1.27423 8.69478 0.733398 7.33333 0.733398ZM14.6667 21.2667H13.2V17.6001C13.2 16.6276 12.8137 15.695 12.1261 15.0073C11.4384 14.3197 10.5058 13.9334 9.53333 13.9334H5.13333C4.16087 13.9334 3.22824 14.3197 2.54061 15.0073C1.85298 15.695 1.46667 16.6276 1.46667 17.6001V21.2667H0V17.6001C0 16.2386 0.540832 14.9329 1.50352 13.9703C2.46621 13.0076 3.77189 12.4667 5.13333 12.4667H9.53333C10.8948 12.4667 12.2005 13.0076 13.1631 13.9703C14.1258 14.9329 14.6667 16.2386 14.6667 17.6001V21.2667Z" fill="#03669A"/>
</svg>
