<svg xmlns="http://www.w3.org/2000/svg" width="300" height="274" fill="none"><g fill="#03669A" clip-path="url(#a)"><path d="M241.805 247.905a2.908 2.908 0 0 0 1.896.081c.307-.092.589-.233.831-.417.241-.183.438-.404.578-.652a1.778 1.778 0 0 0 .096-1.592 2.053 2.053 0 0 0-.496-.697 2.503 2.503 0 0 0-.777-.485c-1.12-.377-2.688-.095-3.36 1.034-.225 1.035.224 2.164 1.232 2.822v-.094ZM97.294 161.364c1.12.47 2.688.094 3.36-.941.449-.941 0-2.258-1.232-2.822-1.12-.376-2.688-.094-3.36 1.035-.449.94 0 2.257 1.232 2.822v-.094Zm99.925-8.937c.584.176 1.225.16 1.796-.043.57-.204 1.029-.581 1.283-1.056a1.765 1.765 0 0 0 .089-1.506c-.196-.494-.608-.907-1.151-1.157-1.121-.471-2.689-.094-3.361.94-.448.941 0 2.258 1.344 2.822Zm-41.561 64.06c1.121.376 2.577.094 3.249-1.035.448-.94 0-2.257-1.232-2.822-1.12-.376-2.689 0-3.361 1.129-.448.941 0 1.975 1.344 2.728Zm-56.236-11.006c1.12.376 2.689 0 3.361-1.035.448-.94 0-2.257-1.232-2.822-1.121-.376-2.689 0-3.361 1.035-.224 1.035.112 2.352 1.232 2.822ZM9.915 130.228a2.92 2.92 0 0 0 1.896.081c.62-.186 1.127-.57 1.409-1.069a1.78 1.78 0 0 0 .096-1.592c-.22-.52-.678-.946-1.273-1.183a2.92 2.92 0 0 0-1.895-.081c-.62.185-1.127.57-1.41 1.069a1.78 1.78 0 0 0-.096 1.592c.221.52.679.946 1.273 1.183ZM196.547 53.94c1.12.376 2.689 0 3.361-1.035.448-.94 0-2.258-1.344-2.822-1.121-.377-2.577 0-3.249 1.129-.448.94.224 2.069 1.232 2.727ZM32.096 88.18c.672.282 1.12.188 1.904-.094.784-.376 1.232-.753 1.68-1.505 1.793-2.916 3.697-5.456 5.602-8.466.672-1.223.448-2.822-.896-3.293-1.345-.47-2.801.188-3.585 1.6-1.905 2.916-3.585 5.644-5.601 8.466l-.224.188c-.673 1.317 0 2.728 1.12 3.104Z"/><path d="m29.071 80.937 5.825 2.257c.897.282 1.793.659 2.801 1.223l2.128 1.035c.752.24 1.499.492 2.24.752.561 0 1.233-.282 1.793-.752.56-.47.672-.94.56-1.6 0-.47-.224-.94-.784-1.41s-1.232-.753-1.792-1.13l-1.569-.658c-.896-.282-1.68-.94-2.576-1.222l-6.05-2.258c-1.12-.47-2.576-.094-3.248.94-1.12.941-.672 2.352.672 2.823ZM22.91 19.793c.336.094.896.094.896-.094.112-.188.112-.658 0-.753l-1.008.095c0 .188 0 .658.224.752h-.112Zm9.634 21.353c.224.094.784.094.896 0 0-.282 0-.752-.224-.846-.224 0-.672 0-.784.188v.658h.112Zm-61.39-5.738c.225.094.785 0 .897-.094l-.112-.752-.896.094.112.752Zm.673 27.091c.224.094.784 0 .896-.094 0-.188 0-.658-.224-.752l-.784.094c-.112.188-.112.658 0 .752h.112Zm258.775 169.039c1.569.658 3.361.188 4.033-1.129.784-1.317.224-2.822-1.344-3.481-1.456-.564-3.361-.188-4.033 1.129-.784 1.317-.224 2.822 1.344 3.481ZM12.604 27.507c.672.188 1.344 0 1.68-.565.336-.564 0-1.129-.56-1.317a1.395 1.395 0 0 0-1.68.47c-.337.565.111 1.224.56 1.412Zm122.33 65.752c.56.282 1.12 0 1.568-.47.224-.564 0-1.129-.672-1.411-.672-.282-1.344 0-1.568.564-.336.565 0 1.035.56 1.317h.112Zm125.467 147.309a7.91 7.91 0 0 0 5.184.163 7.039 7.039 0 0 0 2.245-1.174 5.779 5.779 0 0 0 1.533-1.811c1.568-2.822.448-6.114-3.137-7.525a7.742 7.742 0 0 0-2.554-.533 7.872 7.872 0 0 0-2.602.332 7.06 7.06 0 0 0-2.251 1.145 5.82 5.82 0 0 0-1.555 1.784c-1.344 2.822-.224 6.302 3.137 7.525v.094Zm81.553 26.339c1.793.752 3.921.188 4.817-1.505.785-1.505.224-3.293-1.792-4.139a4.214 4.214 0 0 0-2.883-.111c-.464.15-.885.38-1.237.674a3.025 3.025 0 0 0-.809 1.036c-.56 1.599.224 3.198 1.904 4.045ZM241.133 156.66l.224.941a3.863 3.863 0 0 0 1.344 1.693l1.568.941 1.457 1.129c1.12.658 2.24 1.411 3.136 2.163l2.913 1.882c.672.282 1.232.752 1.904 1.128l2.017 1.129a37.113 37.113 0 0 0 3.473 1.787 5.97 5.97 0 0 0 2.867.51 5.763 5.763 0 0 0 2.734-.886c1.008-.658 1.344-1.035 1.904-1.881.448-.565.56-1.223.784-1.882a5.63 5.63 0 0 0 .336-1.505V159.2l.112-1.223v-3.856c0-1.129 0-2.164-.224-3.293l-.112-1.505c-.112-.564-.224-1.129-.56-1.693-.336-.753-.896-1.411-1.68-1.975a6.06 6.06 0 0 0-2.689-1.129 8.663 8.663 0 0 0-3.136.282c-1.009.282-1.905.752-2.913 1.129l-2.016 1.129-1.121.564-1.008.564-2.352.941-1.681.564c-.587.206-1.15.458-1.68.753l-.224.188-.784.376-.56.377-1.121.658-1.344 1.129-.336.376c-.35.363-.615.778-.784 1.223v-.188l-.448 1.223v.94-.094Zm17.587 4.421-2.128-1.316a106.928 106.928 0 0 1-5.041-3.575l.112-.094 1.568-.564 1.793-.659 2.688-1.223 1.569-.94.448-.095v3.669l.112 1.411v4.045l-1.121-.659Z"/></g><defs><clipPath id="a"><path fill="#fff" d="M0 0h300v274H0z"/></clipPath></defs></svg>