<svg width="317" height="312" fill="none" xmlns="http://www.w3.org/2000/svg"><g clip-path="url(#a)" fill="#fff"><path opacity=".4" d="M217.37 131.994c62.197-31.931 45.632-75.52 82.288-85.028 34.839-8.97 58.35 21.077 69.358 51.124 10.793 29.599 1.282 74.175-15.924 100.814-21.373 33.186-49.266 47.357-92.868 58.838-39.541 10.494-151.967-6.817-145.341-61.977 5.664-48.075 66.686-45.474 102.487-63.771Z"/><path d="M258.728 112.082c-3.206 1.077-5.878 3.139-7.588 5.651-.855 1.166-1.389 2.422-2.03 3.677a13.909 13.909 0 0 0-1.176 4.844v.897l.321 1.883c.213.897.641 1.794 1.175 2.601a14.656 14.656 0 0 0 2.993 3.05c2.372 1.734 5.18 2.997 8.214 3.696 3.034.699 6.217.815 9.312.34a20.322 20.322 0 0 0 6.519-2.153c1.496-.897 2.672-1.794 3.633-3.139.855-1.166 1.39-2.691 1.71-3.947.428-1.255.535-2.511.641-3.677.107-.986 0-1.794-.213-2.87-.22-1.461-.882-2.851-1.924-4.036-1.413-1.482-3.11-2.755-5.023-3.767-.748-.987-1.816-1.435-3.099-1.794l-4.061-1.256c-1.496-.358-3.206-.628-4.809-.628-1.603 0-3.206.18-4.595.628Zm4.916 8.073 2.565.538.641.448c.962.449 2.03.897 2.992 1.525l1.389 1.166v.09l.214.717v1.973l-.748 2.332-.321.359-.213.179-1.283.539-1.603.358h-2.565l-2.885-.627-1.817-.897-1.282-1.077s0-.179-.214-.269l-.107-.269v-1.255c.214-.897.534-1.705.962-2.512l1.496-2.242.855-.718.534-.269h.214l1.069-.089h.107Zm-1.603.179-.535.179.535-.179Zm-3.206 7.444.32.539-.32-.539Zm.427.269c0 .18.321.27.428.449l-.428-.449Zm-111.784 61.619c0 .448.428.897 1.069.897.534 0 1.068-.359 1.068-.897 0-.449-.427-.897-1.068-.897-.284 0-.556.094-.756.263a.831.831 0 0 0-.313.634Zm17.099-15.786c0 .269.214.538.641.538.321 0 .641-.179.641-.538 0-.269-.213-.538-.641-.538-.32 0-.641.269-.641.538Zm14.961-7.893c0 .269.214.538.642.538.32 0 .641-.179.641-.538 0-.269-.214-.538-.641-.538-.321 0-.642.269-.642.538Zm-12.824 27.805c0 .269.214.538.642.538.32 0 .641-.18.641-.538 0-.27-.214-.539-.641-.539-.321 0-.642.269-.642.539Zm-21.373-28.881c0 .269.213.538.641.538.32 0 .641-.179.641-.538 0-.269-.214-.538-.641-.538-.321 0-.641.269-.641.538Zm4.274-19.105a.764.764 0 0 0 .056.394.892.892 0 0 0 .251.335c.113.095.25.167.4.212.15.044.31.06.469.046.158.014.319-.002.469-.046a1.11 1.11 0 0 0 .399-.212.884.884 0 0 0 .252-.335.764.764 0 0 0 .055-.394.76.76 0 0 0-.055-.393.895.895 0 0 0-.252-.336 1.123 1.123 0 0 0-.399-.211 1.255 1.255 0 0 0-.469-.046c-.641 0-1.176.448-1.176.986Zm-61.449 27.087c0 1.256 1.069 2.332 2.779 2.332 1.496 0 2.778-.897 2.778-2.332 0-1.255-1.068-2.332-2.778-2.332-.729.023-1.42.275-1.936.708-.515.433-.816 1.013-.843 1.624ZM14 213.703c0 .718.64 1.345 1.603 1.345.855 0 1.603-.538 1.603-1.345 0-.717-.641-1.345-1.603-1.345-.855 0-1.603.628-1.603 1.345ZM5.343 243.75c0 1.256 1.07 2.422 2.886 2.422 1.496 0 2.778-.897 2.778-2.422 0-1.256-1.068-2.332-2.778-2.332-.747-.001-1.465.242-2.004.677-.538.435-.854 1.028-.882 1.655Zm184.455-62.784c0 .269.32.538.748.538.321 0 .641-.269.641-.538 0-.359-.32-.628-.641-.628-.428 0-.748.269-.748.628Zm25.007-1.525c0 .359.321.628.641.628.428 0 .748-.269.748-.628 0-.269-.32-.538-.748-.538-.32 0-.641.269-.641.538Zm71.281 16.503c0 1.525 1.389 2.87 3.527 2.87 1.816 0 3.419-1.166 3.419-2.87 0-1.614-1.389-2.96-3.419-2.96-.936 0-1.833.312-2.494.867-.661.555-1.033 1.308-1.033 2.093Zm-27.465-36.594c0 .628.534 1.166 1.282 1.166s1.39-.449 1.39-1.166c0-.538-.535-1.076-1.39-1.076-.641 0-1.282.538-1.282 1.076Zm76.945-104.043c0 1.525 1.389 2.96 3.527 2.96 1.923 0 3.526-1.256 3.526-2.96 0-1.614-1.389-2.96-3.526-2.96-.927.023-1.809.342-2.464.892-.656.55-1.036 1.29-1.063 2.068Zm-72.67 6.01c0 .807.748 1.525 1.816 1.525 1.069 0 1.817-.628 1.817-1.525 0-.897-.748-1.525-1.817-1.525-1.068 0-1.816.718-1.816 1.525Zm78.441-99.29c0 .539.534 1.077 1.282 1.077.641 0 1.283-.448 1.283-1.076 0-.538-.535-1.076-1.283-1.076-.748 0-1.282.538-1.282 1.076Z"/></g><defs><clipPath id="a"><path fill="#fff" d="M0 0h317v312H0z"/></clipPath></defs></svg>