<svg width="423" height="279" fill="none" xmlns="http://www.w3.org/2000/svg"><path d="M304.255 257.281a3.259 3.259 0 0 0 2.131.09c.344-.103.662-.262.933-.468.272-.206.493-.455.65-.732a2 2 0 0 0 .108-1.789 2.292 2.292 0 0 0-.558-.784 2.813 2.813 0 0 0-.872-.546c-1.259-.422-3.021-.105-3.777 1.163-.251 1.163.252 2.431 1.385 3.171v-.105Zm-162.387-97.247c1.259.529 3.021.106 3.777-1.057.503-1.057 0-2.537-1.385-3.171-1.259-.423-3.021-.106-3.776 1.163-.504 1.057 0 2.536 1.384 3.171v-.106Zm112.286-10.042a3.26 3.26 0 0 0 2.018-.049c.641-.229 1.156-.652 1.442-1.186a1.983 1.983 0 0 0 .101-1.692c-.222-.555-.684-1.02-1.295-1.301-1.259-.528-3.021-.106-3.776 1.057-.504 1.057 0 2.537 1.51 3.171Zm-46.702 71.984c1.259.423 2.896.106 3.651-1.163.503-1.057 0-2.537-1.385-3.171-1.259-.423-3.021 0-3.776 1.268-.504 1.057 0 2.22 1.51 3.066Zm-63.192-12.367c1.259.422 3.021 0 3.776-1.163.504-1.057 0-2.537-1.384-3.171-1.259-.423-3.021 0-3.777 1.163-.251 1.162.126 2.642 1.385 3.171ZM43.68 125.046a3.275 3.275 0 0 0 2.131.091c.697-.208 1.266-.64 1.583-1.2a2 2 0 0 0 .108-1.789c-.247-.585-.762-1.063-1.43-1.33a3.282 3.282 0 0 0-2.13-.091c-.696.209-1.266.64-1.583 1.201a2 2 0 0 0-.108 1.789c.248.585.762 1.063 1.43 1.329ZM253.4 39.321c1.259.423 3.021 0 3.777-1.162.503-1.057-.001-2.537-1.511-3.171-1.259-.423-2.895 0-3.651 1.268-.503 1.057.252 2.325 1.385 3.066ZM68.605 77.797c.756.317 1.26.212 2.14-.105.881-.423 1.385-.846 1.888-1.692 2.015-3.276 4.155-6.13 6.295-9.513.755-1.374.503-3.171-1.007-3.7-1.511-.528-3.148.212-4.029 1.797-2.14 3.277-4.028 6.343-6.294 9.514l-.251.211c-.756 1.48 0 3.066 1.258 3.488Z" fill="#fff"/><path d="m65.207 69.658 6.545 2.537a16.36 16.36 0 0 1 3.147 1.374l2.392 1.163c.844.27 1.684.553 2.518.846.63 0 1.384-.318 2.014-.846.63-.529.755-1.057.63-1.797 0-.529-.252-1.057-.882-1.586-.63-.528-1.385-.845-2.014-1.268l-1.762-.74c-1.007-.317-1.889-1.057-2.896-1.374l-6.797-2.537c-1.259-.529-2.895-.106-3.65 1.057-1.26 1.057-.756 2.643.755 3.171ZM58.283.951c.378.106 1.007.106 1.007-.105.126-.212.126-.74 0-.846l-1.133.106c0 .211 0 .74.252.845h-.126ZM69.11 24.946c.252.106.881.106 1.007 0 0-.317 0-.846-.252-.952-.252 0-.755 0-.881.212v.74h.126ZM.126 18.498c.252.106.881 0 1.007-.106l-.126-.845L0 17.652l.126.846ZM.88 48.94c.252.106.881 0 1.007-.105 0-.212 0-.74-.252-.846l-.88.106c-.127.211-.127.74 0 .845H.88Zm290.786 189.948c1.762.74 3.776.212 4.532-1.268.881-1.48.251-3.171-1.511-3.911-1.636-.634-3.776-.212-4.532 1.268-.881 1.48-.251 3.171 1.511 3.911ZM46.702 9.619c.755.211 1.51 0 1.888-.634.378-.634 0-1.269-.63-1.48-.755-.317-1.51 0-1.887.528-.378.635.126 1.375.629 1.586Zm137.462 73.886c.63.317 1.259 0 1.763-.528.251-.635 0-1.269-.756-1.586-.755-.317-1.51 0-1.762.634-.378.635 0 1.163.629 1.48h.126Zm140.987 165.531a8.751 8.751 0 0 0 2.891.582c1 .032 1.998-.104 2.935-.399a7.898 7.898 0 0 0 2.523-1.32 6.482 6.482 0 0 0 1.722-2.034c1.762-3.171.503-6.871-3.525-8.457a8.756 8.756 0 0 0-2.87-.598 8.869 8.869 0 0 0-2.924.373 7.92 7.92 0 0 0-2.529 1.287 6.534 6.534 0 0 0-1.747 2.004c-1.511 3.171-.252 7.082 3.524 8.456v.106Zm91.642 29.596c2.014.846 4.406.212 5.413-1.691.881-1.691.252-3.699-2.014-4.651a4.737 4.737 0 0 0-3.24-.124 4.172 4.172 0 0 0-1.39.758 3.403 3.403 0 0 0-.909 1.163c-.629 1.797.252 3.594 2.14 4.545ZM303.5 154.749l.252 1.057a4.341 4.341 0 0 0 1.51 1.903l1.763 1.057 1.636 1.268c1.259.74 2.518 1.586 3.525 2.431l3.273 2.114c.755.317 1.384.846 2.14 1.269l2.265 1.268a42.186 42.186 0 0 0 3.903 2.008 6.72 6.72 0 0 0 3.221.573 6.475 6.475 0 0 0 3.073-.995c1.133-.74 1.51-1.163 2.14-2.114.503-.635.629-1.375.881-2.114.204-.55.331-1.118.378-1.692v-5.179l.125-1.374v-4.334c0-1.269 0-2.431-.251-3.7l-.126-1.691c-.126-.634-.252-1.268-.63-1.903-.377-.845-1.007-1.585-1.888-2.219-.85-.646-1.895-1.085-3.021-1.269a9.73 9.73 0 0 0-3.525.317c-1.133.317-2.14.846-3.273 1.269l-2.265 1.268-1.259.634-1.133.635-2.644 1.057-1.888.634c-.66.231-1.292.514-1.888.845l-.252.212-.881.423-.629.423-1.259.739-1.511 1.269-.377.423a4.07 4.07 0 0 0-.882 1.374v-.212l-.503 1.375v1.057-.106Zm19.763 4.968-2.392-1.48a118.872 118.872 0 0 1-5.664-4.017l.126-.105 1.762-.635 2.014-.739 3.021-1.375 1.763-1.057.503-.105v4.122l.126 1.586v4.545l-1.259-.74Z" fill="#fff"/></svg>