<svg xmlns="http://www.w3.org/2000/svg" width="384" height="271" fill="none"><path fill="#C44E32" d="M270.805 240.226a2.912 2.912 0 0 0 1.896.081c.307-.092.589-.233.831-.417.241-.183.438-.404.577-.651a1.771 1.771 0 0 0 .097-1.592 2.047 2.047 0 0 0-.496-.698 2.503 2.503 0 0 0-.777-.485c-1.12-.377-2.688-.094-3.36 1.034-.225 1.035.224 2.164 1.232 2.822v-.094Zm-144.511-86.541c1.12.47 2.688.094 3.36-.941.449-.941 0-2.257-1.232-2.822-1.12-.376-2.688-.094-3.361 1.035-.448.941 0 2.257 1.233 2.822v-.094Zm99.925-8.937c.584.176 1.225.16 1.796-.043.57-.204 1.028-.581 1.283-1.055a1.768 1.768 0 0 0 .089-1.507c-.196-.494-.608-.907-1.151-1.157-1.121-.471-2.689-.094-3.361.94-.448.941 0 2.258 1.344 2.822Zm-41.561 64.06c1.121.376 2.577.094 3.249-1.035.448-.94 0-2.257-1.232-2.822-1.121-.376-2.689 0-3.361 1.129-.448.941 0 1.975 1.344 2.728Zm-56.236-11.006c1.12.376 2.689 0 3.361-1.035.448-.94 0-2.257-1.232-2.822-1.121-.376-2.689 0-3.361 1.035-.224 1.035.112 2.352 1.232 2.822Zm-89.507-75.253a2.92 2.92 0 0 0 1.896.081c.62-.186 1.127-.57 1.409-1.069a1.78 1.78 0 0 0 .096-1.592c-.22-.52-.678-.946-1.273-1.183a2.92 2.92 0 0 0-1.895-.081c-.62.185-1.127.57-1.41 1.069a1.78 1.78 0 0 0-.096 1.592c.221.52.679.946 1.273 1.183Zm186.632-76.288c1.12.376 2.689 0 3.361-1.035.448-.94 0-2.258-1.345-2.822-1.12-.377-2.576 0-3.248 1.129-.448.94.224 2.07 1.232 2.727ZM61.096 80.5c.672.282 1.12.188 1.904-.094.784-.376 1.232-.753 1.68-1.505 1.793-2.916 3.697-5.456 5.602-8.466.672-1.223.448-2.822-.897-3.293-1.344-.47-2.8.189-3.584 1.6-1.905 2.916-3.585 5.644-5.601 8.466l-.225.188c-.672 1.317 0 2.728 1.12 3.104Z"/><path fill="#C44E32" d="m58.071 73.258 5.825 2.257a14.56 14.56 0 0 1 2.801 1.223l2.128 1.035c.752.241 1.499.492 2.24.752.561 0 1.233-.282 1.793-.752.56-.47.672-.94.56-1.6 0-.47-.224-.94-.784-1.41s-1.232-.753-1.792-1.129l-1.569-.659c-.896-.282-1.68-.94-2.576-1.222l-6.05-2.258c-1.12-.47-2.576-.094-3.248.94-1.12.941-.672 2.352.672 2.823ZM51.91 12.114c.336.094.896.094.896-.094.112-.188.112-.658 0-.752l-1.008.094c0 .188 0 .658.224.752h-.112Zm9.634 21.354c.224.093.784.093.896 0 0-.283 0-.753-.224-.847-.224 0-.672 0-.784.188v.659h.112ZM.154 27.729c.225.095.785 0 .897-.094l-.112-.752-.896.094.112.752Zm.673 27.092c.224.094.784 0 .896-.094 0-.189 0-.659-.224-.753l-.784.094c-.112.188-.112.659 0 .753h.112Zm258.775 169.038c1.569.658 3.361.188 4.033-1.129.784-1.317.224-2.822-1.344-3.481-1.456-.564-3.361-.188-4.033 1.129-.784 1.317-.224 2.822 1.344 3.481ZM41.604 19.828c.672.188 1.344 0 1.68-.565.336-.564 0-1.128-.56-1.317a1.395 1.395 0 0 0-1.68.47c-.337.565.112 1.224.56 1.412Zm122.33 65.752c.56.283 1.12 0 1.568-.47.224-.564 0-1.129-.672-1.41-.672-.283-1.344 0-1.568.563-.336.565 0 1.035.56 1.317h.112ZM289.401 232.89c.808.314 1.682.49 2.572.518a7.883 7.883 0 0 0 2.612-.355 7.039 7.039 0 0 0 2.245-1.174 5.768 5.768 0 0 0 1.533-1.811c1.568-2.822.448-6.114-3.137-7.525a7.899 7.899 0 0 0-5.156-.201 7.06 7.06 0 0 0-2.251 1.145 5.82 5.82 0 0 0-1.555 1.784c-1.344 2.822-.224 6.302 3.137 7.525v.094Zm81.553 26.339c1.793.752 3.921.188 4.817-1.505.785-1.505.224-3.293-1.792-4.139a4.214 4.214 0 0 0-2.883-.111 3.71 3.71 0 0 0-1.237.675 3.012 3.012 0 0 0-.809 1.035c-.56 1.599.224 3.198 1.904 4.045ZM270.133 148.982l.224.94a3.858 3.858 0 0 0 1.344 1.693l1.568.941 1.457 1.129c1.12.658 2.24 1.411 3.136 2.163l2.913 1.882c.672.282 1.232.752 1.904 1.129l2.017 1.128a37.362 37.362 0 0 0 3.473 1.788 5.982 5.982 0 0 0 2.867.509 5.753 5.753 0 0 0 2.734-.886c1.008-.658 1.344-1.034 1.904-1.881.448-.564.56-1.223.784-1.881a5.63 5.63 0 0 0 .336-1.505v-4.61l.112-1.223v-3.856c0-1.129 0-2.164-.224-3.293l-.112-1.505c-.112-.564-.224-1.128-.56-1.693-.336-.752-.896-1.411-1.68-1.975a6.06 6.06 0 0 0-2.689-1.129 8.663 8.663 0 0 0-3.136.282c-1.009.282-1.905.753-2.913 1.129l-2.016 1.129-1.121.564-1.008.565-2.352.94-1.681.565a10.73 10.73 0 0 0-1.68.752l-.224.188-.784.377-.56.376-1.121.658-1.344 1.129-.336.376c-.35.364-.615.778-.784 1.223v-.188l-.448 1.223v.941-.094Zm17.587 4.421-2.128-1.317a106.928 106.928 0 0 1-5.041-3.575l.112-.094 1.568-.564 1.793-.659 2.688-1.223 1.569-.94.448-.094v3.668l.112 1.411v4.045l-1.121-.658Z"/></svg>