<svg width="364" height="223" fill="none" xmlns="http://www.w3.org/2000/svg"><g clip-path="url(#a)"><path d="M203.4 89.616c58.2-29.885 42.7-70.683 77-79.582C313 1.64 335 29.762 345.3 57.884c10.1 27.703 1.2 69.424-14.9 94.357-20 31.06-46.1 44.324-86.9 55.069-37 9.822-142.2-6.38-136-58.007 5.3-44.996 62.4-42.562 95.9-59.687Z" fill="#fff"/><path d="M242.1 70.98c-3 1.007-5.5 2.938-7.1 5.289-.8 1.09-1.3 2.266-1.9 3.441a13.018 13.018 0 0 0-1.1 4.534v.84l.3 1.762c.2.84.6 1.679 1.1 2.434a13.72 13.72 0 0 0 2.8 2.855c2.22 1.623 4.847 2.805 7.687 3.46 2.839.653 5.817.762 8.713.317a19.012 19.012 0 0 0 6.1-2.015c1.4-.839 2.5-1.678 3.4-2.938.8-1.091 1.3-2.518 1.6-3.693.4-1.176.5-2.35.6-3.442.1-.924 0-1.68-.2-2.686-.205-1.368-.825-2.669-1.8-3.778a18.315 18.315 0 0 0-4.7-3.526c-.7-.923-1.7-1.343-2.9-1.679l-3.8-1.175c-1.4-.336-3-.588-4.5-.588s-3 .168-4.3.588Zm4.6 7.555 2.4.504.6.42c.9.42 1.9.84 2.8 1.427l1.3 1.091v.084l.2.671v1.847l-.7 2.183-.3.336-.2.168-1.2.503-1.5.336h-2.4l-2.7-.588-1.7-.839-1.2-1.007s0-.168-.2-.252l-.1-.252v-1.175c.2-.84.5-1.595.9-2.35l1.4-2.1.8-.671.5-.252h.2l1-.084h.1Zm-1.5.168-.5.168.5-.168Zm-3 6.968.3.503-.3-.503Zm.4.251c0 .168.3.252.4.42l-.4-.42ZM138 143.594c0 .42.4.84 1 .84.5 0 1-.336 1-.84 0-.42-.4-.839-1-.839a1.1 1.1 0 0 0-.707.246.775.775 0 0 0-.293.593Zm16-14.774c0 .251.2.503.6.503.3 0 .6-.168.6-.503 0-.252-.2-.504-.6-.504-.3 0-.6.252-.6.504Zm14-7.388c0 .252.2.504.6.504.3 0 .6-.168.6-.504 0-.252-.2-.504-.6-.504-.3 0-.6.252-.6.504Zm-12 26.024c0 .252.2.503.6.503.3 0 .6-.167.6-.503 0-.252-.2-.504-.6-.504-.3 0-.6.252-.6.504Zm-20-27.031c0 .252.2.503.6.503.3 0 .6-.167.6-.503 0-.252-.2-.504-.6-.504-.3 0-.6.252-.6.504Zm4-17.881a.712.712 0 0 0 .052.369c.049.118.13.225.235.313.106.089.233.156.374.198.141.042.291.057.439.043a1.16 1.16 0 0 0 .439-.043c.141-.042.268-.109.374-.198a.825.825 0 0 0 .235-.313.712.712 0 0 0 .052-.369.708.708 0 0 0-.052-.368.828.828 0 0 0-.235-.314 1.041 1.041 0 0 0-.374-.198 1.16 1.16 0 0 0-.439-.043c-.6 0-1.1.419-1.1.923Zm-57.5 25.352c0 1.175 1 2.183 2.6 2.183 1.4 0 2.6-.84 2.6-2.183 0-1.175-1-2.183-2.6-2.183-.682.021-1.329.258-1.811.663s-.764.948-.789 1.52Zm-69.4 38.196c0 .672.6 1.259 1.5 1.259.8 0 1.5-.503 1.5-1.259 0-.672-.6-1.259-1.5-1.259-.8 0-1.5.587-1.5 1.259ZM5 194.214c0 1.176 1 2.267 2.7 2.267 1.4 0 2.6-.84 2.6-2.267 0-1.175-1-2.182-2.6-2.182-.7-.001-1.371.227-1.875.634-.503.407-.8.962-.825 1.548Zm172.6-58.763c0 .252.3.504.7.504.3 0 .6-.252.6-.504 0-.335-.3-.587-.6-.587-.4 0-.7.252-.7.587Zm23.4-1.427c0 .336.3.588.6.588.4 0 .7-.252.7-.588 0-.252-.3-.503-.7-.503-.3 0-.6.251-.6.503Zm66.7 15.447c0 1.427 1.3 2.686 3.3 2.686 1.7 0 3.2-1.091 3.2-2.686 0-1.512-1.3-2.771-3.2-2.771-.875 0-1.715.292-2.333.812-.619.519-.967 1.224-.967 1.959ZM242 115.22c0 .588.5 1.091 1.2 1.091s1.3-.419 1.3-1.091c0-.504-.5-1.007-1.3-1.007-.6 0-1.2.503-1.2 1.007Zm72-97.379c0 1.427 1.3 2.77 3.3 2.77 1.8 0 3.3-1.175 3.3-2.77 0-1.51-1.3-2.77-3.3-2.77-.867.021-1.692.32-2.306.835-.613.515-.969 1.207-.994 1.935Zm-68 5.625c0 .755.7 1.427 1.7 1.427s1.7-.588 1.7-1.427c0-.84-.7-1.427-1.7-1.427s-1.7.671-1.7 1.427Zm73.4-92.93c0 .504.5 1.008 1.2 1.008.6 0 1.2-.42 1.2-1.008 0-.503-.5-1.007-1.2-1.007s-1.2.504-1.2 1.007Z" fill="#C44E32"/></g><defs><clipPath id="a"><path fill="#fff" d="M0 0h364v223H0z"/></clipPath></defs></svg>