<svg width="30" height="30" viewBox="0 0 30 30" fill="none" xmlns="http://www.w3.org/2000/svg">
<path d="M20.8801 18.3893H9.8801C9.63699 18.3893 9.40383 18.4859 9.23192 18.6578C9.06001 18.8297 8.96344 19.0628 8.96344 19.3059C8.96344 19.5491 9.06001 19.7822 9.23192 19.9541C9.40383 20.126 9.63699 20.2226 9.8801 20.2226H20.8801C21.1232 20.2226 21.3564 20.126 21.5283 19.9541C21.7002 19.7822 21.7968 19.5491 21.7968 19.3059C21.7968 19.0628 21.7002 18.8297 21.5283 18.6578C21.3564 18.4859 21.1232 18.3893 20.8801 18.3893Z" fill="#03669A"/>
<path d="M15.3337 0C12.4329 0 9.59722 0.860185 7.1853 2.47178C4.77338 4.08337 2.89352 6.37399 1.78343 9.05398C0.673347 11.734 0.382898 14.6829 0.948815 17.528C1.51473 20.373 2.9116 22.9864 4.96277 25.0376C7.01394 27.0887 9.62729 28.4856 12.4723 29.0515C15.3174 29.6174 18.2664 29.327 20.9464 28.2169C23.6263 27.1068 25.917 25.2269 27.5286 22.815C29.1401 20.4031 30.0003 17.5675 30.0003 14.6667C30.0003 10.7768 28.4551 7.0463 25.7046 4.29577C22.954 1.54523 19.2235 0 15.3337 0ZM15.3337 27.5C12.7955 27.5 10.3143 26.7473 8.20385 25.3372C6.09342 23.927 4.44854 21.9228 3.47721 19.5778C2.50589 17.2328 2.25174 14.6524 2.74692 12.163C3.2421 9.67358 4.46435 7.3869 6.25913 5.59213C8.0539 3.79736 10.3406 2.5751 12.83 2.07992C15.3194 1.58475 17.8998 1.83889 20.2448 2.81021C22.5898 3.78154 24.594 5.42642 26.0042 7.53685C27.4143 9.64728 28.167 12.1285 28.167 14.6667C28.167 18.0703 26.8149 21.3345 24.4082 23.7412C22.0015 26.1479 18.7373 27.5 15.3337 27.5Z" fill="#03669A"/>
<path d="M21.9003 12.9075C22.8116 12.9075 23.5503 12.1688 23.5503 11.2575C23.5503 10.3463 22.8116 9.60754 21.9003 9.60754C20.989 9.60754 20.2503 10.3463 20.2503 11.2575C20.2503 12.1688 20.989 12.9075 21.9003 12.9075Z" fill="#03669A"/>
<path d="M9.06467 12.9075C9.97594 12.9075 10.7147 12.1688 10.7147 11.2575C10.7147 10.3463 9.97594 9.60754 9.06467 9.60754C8.1534 9.60754 7.41467 10.3463 7.41467 11.2575C7.41467 12.1688 8.1534 12.9075 9.06467 12.9075Z" fill="#03669A"/>
</svg>
