<svg width="32" height="28" viewBox="0 0 32 28" fill="none" xmlns="http://www.w3.org/2000/svg">
<path d="M7.4316 1.70018H2.36169C1.99345 1.70124 1.63675 1.82883 1.35139 2.06158C1.06602 2.29433 0.869326 2.61809 0.794259 2.97861L0.694257 3.46595C-0.263509 8.10203 -0.229952 12.8883 0.792726 17.5104C0.872564 17.8658 1.07059 18.1837 1.35444 18.4119C1.63829 18.6402 1.99118 18.7655 2.35543 18.7672H7.4316C7.85581 18.7667 8.26249 18.598 8.56245 18.298C8.86241 17.9981 9.03114 17.5914 9.03164 17.1672V3.30021C9.03116 2.876 8.86243 2.46931 8.56247 2.16934C8.26251 1.86938 7.85581 1.70066 7.4316 1.70018ZM6.89826 16.6338H2.78724C1.9168 12.4322 1.91576 8.09682 2.78417 3.89476L2.7967 3.83356H6.89826V16.6338ZM31.7895 9.33194L27.0392 0.983231C26.8981 0.735728 26.694 0.529925 26.4478 0.38667C26.2015 0.243415 25.9217 0.167799 25.6368 0.16748H16.8633C16.5763 0.167516 16.2944 0.24408 16.0469 0.389285L11.2459 3.20561V5.679L17.0045 2.30086H25.3345L29.8671 10.267V10.8851L28.5537 14.3871H20.0002L18.9335 15.4538V18.7191L19.0281 19.1582L19.7608 20.7809C20.135 21.61 20.1945 22.5469 19.9281 23.4167C19.6618 24.2864 19.0878 25.0294 18.3135 25.5067L12.7988 13.4338H11.2V15.0338L16.6006 26.891C16.7305 27.1724 16.9383 27.4107 17.1994 27.5776C17.4605 27.7445 17.764 27.833 18.074 27.8327C18.2958 27.8328 18.5152 27.7866 18.7182 27.6971C19.4285 27.3844 20.0698 26.934 20.605 26.372C21.1402 25.8099 21.5588 25.1474 21.8365 24.4227C22.1142 23.698 22.2456 22.9254 22.223 22.1496C22.2004 21.3738 22.0243 20.6102 21.7049 19.9029L21.0669 18.4895V16.5205H28.9137C29.2419 16.5195 29.562 16.4189 29.8318 16.232C30.1016 16.0451 30.3082 15.7807 30.4245 15.4738L31.8972 11.5467C31.9653 11.3655 32.0001 11.1735 32 10.98V10.1297C32 9.85004 31.9274 9.57518 31.7895 9.33194Z" fill="#03669A"/>
</svg>
