<svg width="26" height="26" viewBox="0 0 26 26" fill="none" xmlns="http://www.w3.org/2000/svg">
<path d="M13 24.375C9.98316 24.375 7.08989 23.1766 4.95666 21.0433C2.82343 18.9101 1.625 16.0168 1.625 13C1.625 9.98316 2.82343 7.08989 4.95666 4.95666C7.08989 2.82343 9.98316 1.625 13 1.625C16.0168 1.625 18.9101 2.82343 21.0433 4.95666C23.1766 7.08989 24.375 9.98316 24.375 13C24.375 16.0168 23.1766 18.9101 21.0433 21.0433C18.9101 23.1766 16.0168 24.375 13 24.375ZM13 26C16.4478 26 19.7544 24.6304 22.1924 22.1924C24.6304 19.7544 26 16.4478 26 13C26 9.55219 24.6304 6.24558 22.1924 3.80761C19.7544 1.36964 16.4478 0 13 0C9.55219 0 6.24558 1.36964 3.80761 3.80761C1.36964 6.24558 0 9.55219 0 13C0 16.4478 1.36964 19.7544 3.80761 22.1924C6.24558 24.6304 9.55219 26 13 26Z" fill="#03669A"/>
<path d="M6.96312 15.5464C7.14974 15.4386 7.37151 15.4094 7.57965 15.4652C7.78779 15.521 7.96525 15.6571 8.073 15.8438C8.57205 16.7088 9.29021 17.4271 10.1552 17.9263C11.0201 18.4256 12.0013 18.6881 13 18.6875C13.9987 18.6881 14.9799 18.4256 15.8448 17.9263C16.7098 17.4271 17.4279 16.7088 17.927 15.8438C17.98 15.7506 18.0508 15.6688 18.1355 15.6032C18.2202 15.5375 18.317 15.4893 18.4204 15.4612C18.5238 15.4331 18.6318 15.4258 18.738 15.4396C18.8443 15.4534 18.9468 15.4881 19.0396 15.5417C19.1324 15.5953 19.2137 15.6667 19.2787 15.7518C19.3438 15.8369 19.3914 15.9341 19.4188 16.0377C19.4462 16.1412 19.4528 16.2492 19.4383 16.3554C19.4238 16.4616 19.3884 16.5638 19.3342 16.6562C18.6926 17.7683 17.7693 18.6918 16.6573 19.3336C15.5453 19.9755 14.2839 20.3131 13 20.3125C11.7161 20.3131 10.4547 19.9755 9.34268 19.3336C8.23071 18.6918 7.30742 17.7683 6.66575 16.6562C6.55801 16.4696 6.52881 16.2479 6.58458 16.0397C6.64035 15.8316 6.77651 15.6541 6.96312 15.5464ZM11.375 10.5625C11.375 11.908 10.647 13 9.75 13C8.853 13 8.125 11.908 8.125 10.5625C8.125 9.217 8.853 8.125 9.75 8.125C10.647 8.125 11.375 9.217 11.375 10.5625ZM17.875 10.5625C17.875 11.908 17.147 13 16.25 13C15.353 13 14.625 11.908 14.625 10.5625C14.625 9.217 15.353 8.125 16.25 8.125C17.147 8.125 17.875 9.217 17.875 10.5625Z" fill="#03669A"/>
</svg>
