<svg width="35" height="30" viewBox="0 0 35 30" fill="none" xmlns="http://www.w3.org/2000/svg">
<path d="M9.25 1.80005V0.800049V1.80005ZM24.925 1.80005V0.800049V1.80005ZM1 4.10005C0.447715 4.10005 0 4.54776 0 5.10005C0 5.65233 0.447715 6.10005 1 6.10005V4.10005ZM34 6.10005C34.5523 6.10005 35 5.65233 35 5.10005C35 4.54776 34.5523 4.10005 34 4.10005V6.10005ZM6.65711 19.0072C7.04763 18.6166 7.04763 17.9835 6.65711 17.5929C6.26658 17.2024 5.63342 17.2024 5.24289 17.5929L6.65711 19.0072ZM1 23.2501L0.292893 22.5429C-0.0976311 22.9335 -0.0976311 23.5666 0.292893 23.9572L1 23.2501ZM5.24289 28.9072C5.63342 29.2977 6.26658 29.2977 6.65711 28.9072C7.04763 28.5166 7.04763 27.8835 6.65711 27.4929L5.24289 28.9072ZM34 24.2501C34.5523 24.2501 35 23.8023 35 23.2501C35 22.6978 34.5523 22.2501 34 22.2501V24.2501ZM13.55 5.10005C13.55 3.95962 13.097 2.8659 12.2906 2.05949L10.8763 3.4737C11.3077 3.90504 11.55 4.49005 11.55 5.10005H13.55ZM12.2906 2.05949C11.4842 1.25308 10.3904 0.800049 9.25 0.800049V2.80005C9.86 2.80005 10.445 3.04237 10.8763 3.4737L12.2906 2.05949ZM9.25 0.800049C8.10957 0.800049 7.01585 1.25308 6.20944 2.05949L7.62365 3.4737C8.05499 3.04237 8.64 2.80005 9.25 2.80005V0.800049ZM6.20944 2.05949C5.40303 2.8659 4.95 3.95962 4.95 5.10005H6.95C6.95 4.49005 7.19232 3.90504 7.62365 3.4737L6.20944 2.05949ZM4.95 5.10005C4.95 6.24048 5.40303 7.3342 6.20944 8.14061L7.62365 6.7264C7.19232 6.29506 6.95 5.71005 6.95 5.10005H4.95ZM6.20944 8.14061C7.01585 8.94702 8.10957 9.40005 9.25 9.40005V7.40005C8.64 7.40005 8.05499 7.15773 7.62365 6.7264L6.20944 8.14061ZM9.25 9.40005C10.3904 9.40005 11.4842 8.94702 12.2906 8.14061L10.8763 6.7264C10.445 7.15773 9.86 7.40005 9.25 7.40005V9.40005ZM12.2906 8.14061C13.097 7.3342 13.55 6.24048 13.55 5.10005H11.55C11.55 5.71005 11.3077 6.29506 10.8763 6.7264L12.2906 8.14061ZM29.225 5.10005C29.225 3.95962 28.772 2.8659 27.9656 2.05949L26.5513 3.4737C26.9827 3.90504 27.225 4.49005 27.225 5.10005H29.225ZM27.9656 2.05949C27.1592 1.25308 26.0654 0.800049 24.925 0.800049V2.80005C25.535 2.80005 26.12 3.04237 26.5513 3.4737L27.9656 2.05949ZM24.925 0.800049C23.7846 0.800049 22.6908 1.25308 21.8844 2.05949L23.2987 3.4737C23.73 3.04237 24.315 2.80005 24.925 2.80005V0.800049ZM21.8844 2.05949C21.078 2.8659 20.625 3.95962 20.625 5.10005H22.625C22.625 4.49005 22.8673 3.90504 23.2987 3.4737L21.8844 2.05949ZM20.625 5.10005C20.625 6.24048 21.078 7.3342 21.8844 8.14061L23.2987 6.7264C22.8673 6.29506 22.625 5.71005 22.625 5.10005H20.625ZM21.8844 8.14061C22.6908 8.94702 23.7846 9.40005 24.925 9.40005V7.40005C24.315 7.40005 23.73 7.15773 23.2987 6.7264L21.8844 8.14061ZM24.925 9.40005C26.0654 9.40005 27.1592 8.94702 27.9656 8.14061L26.5513 6.7264C26.12 7.15773 25.535 7.40005 24.925 7.40005V9.40005ZM27.9656 8.14061C28.772 7.3342 29.225 6.24048 29.225 5.10005H27.225C27.225 5.71005 26.9827 6.29506 26.5513 6.7264L27.9656 8.14061ZM1 6.10005H5.95V4.10005H1V6.10005ZM12.55 6.10005H21.625V4.10005H12.55V6.10005ZM28.225 6.10005H34V4.10005H28.225V6.10005ZM5.24289 17.5929L0.292893 22.5429L1.70711 23.9572L6.65711 19.0072L5.24289 17.5929ZM0.292893 23.9572L5.24289 28.9072L6.65711 27.4929L1.70711 22.5429L0.292893 23.9572ZM1 24.2501H34V22.2501H1V24.2501Z" fill="#03669A"/>
</svg>
