<svg width="12" height="12" viewBox="0 0 12 12" fill="none" xmlns="http://www.w3.org/2000/svg">
<path d="M6.38814 0.763952C6.25962 0.754464 6.13079 0.749711 6.00192 0.749703V-0.00024393C6.14931 -0.000172064 6.29665 0.00533128 6.44364 0.0162549L6.38814 0.763952ZM7.89104 1.10143C7.65064 1.00866 7.40374 0.933716 7.15234 0.877194L7.31658 0.145246C7.60381 0.209741 7.88654 0.295235 8.16102 0.401728L7.89104 1.10143ZM8.91847 1.63389C8.81124 1.56238 8.70143 1.49484 8.58924 1.43141L8.95896 0.778951C9.21537 0.924243 9.46077 1.08817 9.69316 1.26942L9.23194 1.86113C9.13027 1.7818 9.02571 1.70626 8.91847 1.63464V1.63389ZM10.2939 2.9763C10.1455 2.76554 9.98184 2.56602 9.80415 2.37934L10.3471 1.86188C10.5496 2.07561 10.7371 2.30434 10.9073 2.54433L10.2939 2.9763ZM10.8518 3.99023C10.8026 3.87133 10.7491 3.75426 10.6913 3.63925L11.361 3.30177C11.4935 3.56507 11.6063 3.83779 11.6985 4.11772L10.9861 4.35245C10.9458 4.23011 10.901 4.10928 10.8518 3.99023ZM11.2493 5.87034C11.2432 5.61262 11.2182 5.35569 11.1743 5.10165L11.913 4.97416C11.9633 5.26364 11.9925 5.55762 12 5.85159L11.2501 5.87034H11.2493ZM11.1511 7.02376C11.1758 6.89627 11.1961 6.76953 11.2118 6.64129L11.9565 6.73353C11.9205 7.02613 11.8628 7.31565 11.784 7.59972L11.0611 7.39949C11.0956 7.27574 11.1256 7.1505 11.1511 7.02376ZM10.4371 8.80789C10.5751 8.5904 10.6966 8.36242 10.8016 8.12693L11.487 8.43066C11.367 8.70064 11.2283 8.96012 11.0708 9.20911L10.4371 8.80789ZM9.71416 9.71157C9.80565 9.62008 9.8934 9.52559 9.97664 9.42809L10.5451 9.91781C10.4488 10.0294 10.3485 10.1375 10.2444 10.2418L9.71416 9.71157Z" fill="black"/>
<path d="M6.00192 0.749703C5.13864 0.749766 4.2887 0.962723 3.52738 1.36971C2.76606 1.7767 2.11685 2.36517 1.63727 3.08298C1.15769 3.80079 0.862528 4.62579 0.777934 5.48492C0.69334 6.34404 0.821923 7.21077 1.15229 8.00833C1.48267 8.80589 2.00463 9.50968 2.67195 10.0573C3.33927 10.605 4.13136 10.9796 4.97804 11.1481C5.82473 11.3165 6.69989 11.2735 7.52601 11.023C8.35212 10.7724 9.1037 10.322 9.71416 9.71157L10.2444 10.2418C9.54672 10.9398 8.68767 11.455 7.74333 11.7417C6.79899 12.0284 5.79851 12.0777 4.83055 11.8853C3.86259 11.6929 2.95703 11.2647 2.1941 10.6387C1.43117 10.0127 0.834436 9.20811 0.456762 8.29634C0.0790875 7.38457 -0.0678626 6.39372 0.0289314 5.41158C0.125725 4.42944 0.463275 3.48634 1.01167 2.66583C1.56007 1.84533 2.30238 1.17276 3.17284 0.707708C4.0433 0.24266 5.01502 -0.000505671 6.00192 -0.00024393V0.749703Z" fill="black"/>
<path d="M5.62695 2.2496C5.7264 2.2496 5.82177 2.2891 5.89209 2.35943C5.96241 2.42975 6.00192 2.52512 6.00192 2.62457V6.5318L8.43775 7.9237C8.52159 7.97427 8.58232 8.05564 8.60696 8.1504C8.6316 8.24516 8.61821 8.3458 8.56963 8.43081C8.52105 8.51582 8.44115 8.57846 8.34699 8.60534C8.25284 8.63222 8.15191 8.62121 8.06578 8.57465L5.44096 7.07476C5.38357 7.04198 5.33586 6.99461 5.30267 6.93745C5.26949 6.88029 5.252 6.81538 5.25197 6.74928V2.62457C5.25197 2.52512 5.29148 2.42975 5.3618 2.35943C5.43212 2.2891 5.5275 2.2496 5.62695 2.2496Z" fill="black"/>
</svg>
