<svg width="12" height="12" viewBox="0 0 12 12" fill="none" xmlns="http://www.w3.org/2000/svg">
<path d="M6 0C2.67692 0 0 2.67692 0 6C0 9.32308 2.67692 12 6 12C9.32308 12 12 9.32308 12 6C12 5.35477 11.9132 4.71092 11.6825 4.11046L10.9329 4.84615C11.0252 5.21538 11.0774 5.58554 11.0774 6C11.0774 8.81631 8.81677 11.0769 6.00046 11.0769C3.18415 11.0769 0.923077 8.81631 0.923077 6C0.923077 3.18369 3.18369 0.923077 6 0.923077C7.38462 0.923077 8.62846 1.47462 9.50492 2.35108L10.1538 1.70215C9.09231 0.639692 7.61538 0 6 0ZM11.2066 1.97585L6 7.18292L4.02415 5.20662L3.36046 5.87031L5.66815 8.178L6 8.49508L6.33185 8.178L11.8703 2.63954L11.2066 1.97585Z" fill="black"/>
</svg>
