<svg width="12" height="12" viewBox="0 0 12 12" fill="none" xmlns="http://www.w3.org/2000/svg">
<path d="M10.3622 5.02931L7.65081 7.74073C7.56312 7.82734 7.51211 7.94437 7.50834 8.06756C7.50457 8.19076 7.54833 8.31069 7.63057 8.4025C7.7128 8.49431 7.8272 8.55097 7.95007 8.56073C8.07293 8.5705 8.19485 8.53263 8.29056 8.45497L8.32973 8.41964L11.8595 4.88992C11.943 4.8063 11.9928 4.69478 11.9993 4.57673C12.0057 4.45867 11.9684 4.34239 11.8944 4.25017L11.8595 4.211L8.32973 0.681278C8.24312 0.593584 8.12609 0.542568 8.00289 0.538799C7.8797 0.53503 7.75977 0.578795 7.66796 0.66103C7.57615 0.743264 7.51949 0.857664 7.50972 0.980531C7.49996 1.1034 7.53782 1.22531 7.61549 1.32102L7.65081 1.35981L10.3603 4.06931H6.912C5.66246 4.06931 4.50048 4.34617 3.49286 4.87571L3.33542 4.96134C2.31033 5.53385 1.46431 6.37972 0.891647 7.40473C0.306431 8.44806 0 9.66649 0 10.9813C0 11.1086 0.0505705 11.2307 0.140588 11.3207C0.230605 11.4107 0.352695 11.4613 0.48 11.4613C0.607304 11.4613 0.729394 11.4107 0.819411 11.3207C0.909429 11.2307 0.959999 11.1086 0.959999 10.9813C0.959999 9.82739 1.22573 8.771 1.72915 7.87398C2.21521 7.00302 2.9338 6.2843 3.80467 5.79808C4.65216 5.32307 5.64134 5.05926 6.72077 5.03161L6.912 5.02931H10.3622L7.65081 7.74073L10.3622 5.02969V5.02931Z" fill="black"/>
</svg>
