<svg width="36" height="37" viewBox="0 0 36 37" fill="none" xmlns="http://www.w3.org/2000/svg">
<path d="M24.9128 7.06038e-05C18.7733 7.06038e-05 13.8256 5.05527 13.8256 11.3282C13.8256 11.661 13.8769 12.1113 13.9129 12.5234L2.04554 24.6473C1.3973 25.3054 0.882848 26.0879 0.53179 26.9499C0.180731 27.8119 0 28.7363 0 29.67C0 30.6036 0.180731 31.528 0.53179 32.39C0.882848 33.252 1.3973 34.0346 2.04554 34.6926C2.68957 35.3549 3.45546 35.8806 4.29911 36.2393C5.14276 36.5979 6.04752 36.7826 6.9613 36.7826C7.87508 36.7826 8.77983 36.5979 9.62348 36.2393C10.4671 35.8806 11.233 35.3549 11.8771 34.6926L23.7431 22.5672C24.145 22.604 24.5885 22.6564 24.9128 22.6564C31.0523 22.6564 35.9999 17.6012 35.9999 11.3282C36.0072 9.50299 35.5599 7.70584 34.6999 6.10596L33.8338 4.46903L32.5352 5.79726L26.5578 11.8578L24.3931 9.64601L30.3247 3.54012L31.6274 2.2119L30.0239 1.32688C28.4575 0.44998 26.6989 -0.00653146 24.9128 7.06038e-05ZM24.9128 2.83211C25.5863 2.83211 26.088 3.12948 26.6867 3.27533L21.448 8.62789L20.4502 9.64742L21.448 10.6202L25.6057 14.8683L26.5592 15.8878L27.5543 14.8683L32.7957 9.51574C32.9385 10.1275 33.2281 10.6401 33.2281 11.3282C33.2281 16.1002 29.5832 19.8244 24.9128 19.8244C24.3584 19.8244 23.9149 19.8244 23.5685 19.7352L22.8339 19.5143L22.2713 20.0906L9.92711 32.7031C8.22246 34.4448 5.70014 34.4448 3.99549 32.7031L3.95114 32.6578C2.28807 30.9161 2.30193 28.3672 3.99272 26.6397L16.3369 14.0286L16.9009 13.4537L16.682 12.7032C16.5988 12.3492 16.596 11.8961 16.596 11.3297C16.596 6.55767 20.2409 2.83353 24.9114 2.83353L24.9128 2.83211Z" fill="#03669A"/>
</svg>
