<svg width="23" height="38" viewBox="0 0 23 38" fill="none" xmlns="http://www.w3.org/2000/svg">
<path d="M11.4375 0.422607C5.13086 0.422607 0 5.55347 0 11.8601H4.575C4.575 8.07658 7.65398 4.99761 11.4375 4.99761C15.221 4.99761 18.3 8.07658 18.3 11.8601C18.3 14.3054 17.2615 15.2113 14.9122 17.0184C14.0384 17.6909 13.0525 18.4504 12.1077 19.3928C9.10654 22.3918 9.13856 25.3495 9.15 25.5851V30.1601H13.725V25.5645C13.725 25.5096 13.7776 24.1897 15.3423 22.6274C16.0743 21.8954 16.9023 21.2594 17.7007 20.6441C20.1254 18.7775 22.875 16.6639 22.875 11.8601C22.875 5.55347 17.7441 0.422607 11.4375 0.422607ZM9.15 32.4476H13.725V37.0226H9.15V32.4476Z" fill="#03669A"/>
</svg>
