<svg width="70" height="67" viewBox="0 0 70 67" fill="none" xmlns="http://www.w3.org/2000/svg">
<path d="M50.4307 42.9998V44.4899L51.0173 43.7143C51.035 43.731 51.0526 43.748 51.0701 43.7651L51.0723 43.7672L67.46 59.6477C67.4601 59.6478 67.4601 59.6478 67.4602 59.6479C68.1628 60.3293 68.5544 61.25 68.554 62.2063C68.5537 63.1628 68.1614 64.0832 67.4582 64.7642C66.7544 65.4457 65.7968 65.8311 64.7952 65.8307C63.7937 65.8304 62.8364 65.4444 62.1331 64.7624L62.133 64.7623L45.75 48.8864C45.7492 48.8856 45.7484 48.8848 45.7475 48.884C45.7384 48.8748 45.7292 48.8657 45.7202 48.8565L46.55 48.2663H44.9842H44.98H43.9607L44.2643 48.6586C38.8208 52.3742 32.1499 54.0282 25.5188 53.2917C18.712 52.5358 12.4543 49.3175 7.99581 44.2853C3.53779 39.2536 1.20693 32.7793 1.46532 26.1579C1.72371 19.5364 4.55259 13.2505 9.39076 8.55868C14.2294 3.86648 20.7208 1.11522 27.5672 0.859577C34.4136 0.603938 41.1049 2.86302 46.3025 7.18115C51.4997 11.4989 54.8196 17.556 55.603 24.1388C56.3672 30.5602 54.6636 37.0251 50.8251 42.3029L50.4307 42.0184V42.9957V42.9998ZM50.7066 36.0222C51.9095 33.2079 52.5289 30.191 52.5289 27.1439C52.5289 20.9892 50.0057 15.09 45.5199 10.7429C41.0345 6.39641 34.9543 3.95723 28.6176 3.95723C22.2809 3.95723 16.2008 6.39641 11.7154 10.7429C7.22951 15.09 4.70634 20.9892 4.70634 27.1439C4.70634 30.191 5.32571 33.2079 6.52866 36.0222C7.73159 38.8365 9.49432 41.3925 11.7154 43.5448C13.9364 45.6971 16.5724 47.4036 19.4723 48.5676C22.3721 49.7316 25.4797 50.3305 28.6176 50.3305C31.7556 50.3305 34.8631 49.7316 37.763 48.5676C40.6629 47.4036 43.2988 45.6971 45.5199 43.5448C47.7409 41.3925 49.5037 38.8365 50.7066 36.0222Z" fill="#C44E32" stroke="#C44E32"/>
</svg>
