<svg width="23" height="25" viewBox="0 0 23 25" fill="none" xmlns="http://www.w3.org/2000/svg">
<path d="M0 0V23H14.1538V21.2308H1.76923V1.76923H10.6154V7.07692H15.9231V8.84615H17.6923V5.83846L17.4269 5.57308L12.1192 0.265385L11.8538 0H0ZM12.3846 3.00769L14.6846 5.30769H12.3846V3.00769ZM3.53846 8.84615V10.6154H14.1538V8.84615H3.53846ZM18.5769 10.6154V12.3846C17.0731 12.65 15.9231 13.8885 15.9231 15.4808C15.9231 17.25 17.25 18.5769 19.0192 18.5769H19.9038C20.6115 18.5769 21.2308 19.1962 21.2308 19.9038C21.2308 20.6115 20.6115 21.2308 19.9038 21.2308H16.8077V23H18.5769V24.7692H20.3462V23C21.85 22.7346 23 21.4962 23 19.9038C23 18.1346 21.6731 16.8077 19.9038 16.8077H19.0192C18.3115 16.8077 17.6923 16.1885 17.6923 15.4808C17.6923 14.7731 18.3115 14.1538 19.0192 14.1538H22.1154V12.3846H20.3462V10.6154H18.5769ZM3.53846 13.2692V15.0385H9.73077V13.2692H3.53846ZM11.5 13.2692V15.0385H14.1538V13.2692H11.5ZM3.53846 16.8077V18.5769H9.73077V16.8077H3.53846ZM11.5 16.8077V18.5769H14.1538V16.8077H11.5Z" fill="#444444"/>
</svg>
