<svg width="34" height="46" viewBox="0 0 34 46" fill="none" xmlns="http://www.w3.org/2000/svg">
<path d="M22.6667 19.8333V22.882C24.1967 23.3523 25.5 24.5735 25.5 26.35V33.15C25.5 35.462 23.2872 36.8333 21.25 36.8333H12.75C10.7128 36.8333 8.5 35.462 8.5 33.15V26.35C8.5 24.5735 9.80333 23.3523 11.3333 22.882V19.8333C11.3333 18.3304 11.9304 16.8891 12.9931 15.8264C14.0558 14.7637 15.4971 14.1667 17 14.1667C18.5029 14.1667 19.9442 14.7637 21.0069 15.8264C22.0696 16.8891 22.6667 18.3304 22.6667 19.8333ZM14.1667 19.8333V22.6667H19.8333V19.8333C19.8333 19.0819 19.5348 18.3612 19.0035 17.8299C18.4721 17.2985 17.7514 17 17 17C16.2486 17 15.5279 17.2985 14.9965 17.8299C14.4652 18.3612 14.1667 19.0819 14.1667 19.8333ZM11.3333 26.35V33.15C11.3333 33.269 11.39 33.4532 11.6308 33.6458C11.954 33.8853 12.3479 34.01 12.75 34H21.25C21.652 34.0093 22.0457 33.8847 22.3692 33.6458C22.61 33.4532 22.6667 33.269 22.6667 33.15V26.35C22.6667 26.231 22.61 26.0468 22.3692 25.8542C22.046 25.6147 21.6521 25.4901 21.25 25.5H12.75C12.3479 25.4901 11.954 25.6147 11.6308 25.8542C11.39 26.0468 11.3333 26.231 11.3333 26.35Z" fill="#03669A"/>
<path d="M34 39.6667V12.75L21.25 0H5.66667C4.16377 0 2.72243 0.597022 1.65973 1.65973C0.597022 2.72243 0 4.16377 0 5.66667V39.6667C0 41.1696 0.597022 42.6109 1.65973 43.6736C2.72243 44.7363 4.16377 45.3333 5.66667 45.3333H28.3333C29.8362 45.3333 31.2776 44.7363 32.3403 43.6736C33.403 42.6109 34 41.1696 34 39.6667ZM21.25 8.5C21.25 9.62717 21.6978 10.7082 22.4948 11.5052C23.2918 12.3022 24.3728 12.75 25.5 12.75H31.1667V39.6667C31.1667 40.4181 30.8682 41.1388 30.3368 41.6701C29.8054 42.2015 29.0848 42.5 28.3333 42.5H5.66667C4.91522 42.5 4.19455 42.2015 3.6632 41.6701C3.13184 41.1388 2.83333 40.4181 2.83333 39.6667V5.66667C2.83333 4.91522 3.13184 4.19455 3.6632 3.6632C4.19455 3.13184 4.91522 2.83333 5.66667 2.83333H21.25V8.5Z" fill="#03669A"/>
</svg>
