<svg width="12" height="12" viewBox="0 0 12 12" fill="none" xmlns="http://www.w3.org/2000/svg">
<path d="M1.63776 5.02931L4.34919 7.74073C4.43688 7.82734 4.48789 7.94437 4.49166 8.06756C4.49543 8.19076 4.45167 8.31069 4.36943 8.4025C4.2872 8.49431 4.1728 8.55097 4.04993 8.56073C3.92707 8.5705 3.80515 8.53263 3.70944 8.45497L3.67027 8.41964L0.140546 4.88992C0.056955 4.8063 0.0071633 4.69478 0.000714943 4.57673C-0.00573342 4.45867 0.0316151 4.34239 0.105602 4.25017L0.140546 4.211L3.67027 0.681278C3.75688 0.593584 3.87391 0.542568 3.99711 0.538799C4.1203 0.53503 4.24023 0.578795 4.33204 0.66103C4.42385 0.743264 4.48051 0.857664 4.49028 0.980531C4.50004 1.1034 4.46218 1.22531 4.38451 1.32102L4.34919 1.35981L1.63968 4.06931H5.088C6.33754 4.06931 7.49952 4.34617 8.50714 4.87571L8.66458 4.96134C9.68967 5.53385 10.5357 6.37972 11.1084 7.40473C11.6936 8.44806 12 9.66649 12 10.9813C12 11.1086 11.9494 11.2307 11.8594 11.3207C11.7694 11.4107 11.6473 11.4613 11.52 11.4613C11.3927 11.4613 11.2706 11.4107 11.1806 11.3207C11.0906 11.2307 11.04 11.1086 11.04 10.9813C11.04 9.82739 10.7743 8.771 10.2708 7.87398C9.78479 7.00302 9.0662 6.2843 8.19533 5.79808C7.34784 5.32307 6.35866 5.05926 5.27923 5.03161L5.088 5.02931H1.63776L4.34919 7.74073L1.63776 5.02969V5.02931Z" fill="black"/>
</svg>
