<svg width="21" height="20" viewBox="0 0 21 20" fill="none" xmlns="http://www.w3.org/2000/svg">
<path d="M9.4247 3.90562L10.5 4.98092M11.4562 5.93708L12.5315 7.01238M13.4876 7.96854L14.5629 9.04384M15.5191 10L16.5944 11.0753M17.6697 5.33986C17.3369 5.67265 16.8855 5.85961 16.4149 5.85961C15.9443 5.85961 15.4929 5.67265 15.1601 5.33986C14.8273 5.00708 14.6404 4.55572 14.6404 4.08509C14.6404 3.61446 14.8273 3.16311 15.1601 2.83032L12.8303 0.5L1 12.3303L3.33032 14.6606C3.66304 14.3279 4.11433 14.1409 4.58491 14.1408C5.0555 14.1408 5.50682 14.3277 5.83961 14.6604C6.17239 14.9931 6.35938 15.4444 6.35943 15.915C6.35947 16.3856 6.17258 16.8369 5.83986 17.1697L8.16968 19.5L20 7.66968L17.6697 5.33986Z" stroke="white" stroke-linecap="round" stroke-linejoin="round"/>
</svg>
