<svg width="19" height="20" viewBox="0 0 19 20" fill="none" xmlns="http://www.w3.org/2000/svg">
<path d="M9.55933 5.84375C7.2437 5.84375 5.40308 7.68438 5.40308 10C5.40308 12.3156 7.2437 14.1563 9.55933 14.1563C11.875 14.1563 13.7156 12.3156 13.7156 10C13.7156 7.68438 11.875 5.84375 9.55933 5.84375ZM9.55933 12.9688C7.89683 12.9688 6.59058 11.6625 6.59058 10C6.59058 8.3375 7.89683 7.03125 9.55933 7.03125C11.2218 7.03125 12.5281 8.3375 12.5281 10C12.5281 11.6625 11.2218 12.9688 9.55933 12.9688Z" fill="white"/>
<path d="M18.2875 8.04063L16.625 7.50625L16.2687 6.61562L17.1 5.07188C17.2781 4.71562 17.2188 4.24063 16.9219 3.94375L15.4969 2.51875C15.2 2.22188 14.725 2.1625 14.3688 2.34063L12.825 3.17188L11.9344 2.81562L11.4 1.15312C11.2812 0.796875 10.925 0.5 10.5094 0.5H8.49062C8.075 0.5 7.71875 0.796875 7.65938 1.2125L7.125 2.875C6.76875 2.93438 6.47188 3.05313 6.175 3.23125L4.63125 2.4C4.275 2.22187 3.8 2.28125 3.50312 2.57812L2.07812 4.00312C1.78125 4.3 1.72187 4.775 1.9 5.13125L2.67188 6.61562C2.55313 6.9125 2.43438 7.26875 2.31562 7.56563L0.653125 8.1C0.296875 8.21875 0 8.575 0 8.99062V11.0094C0 11.425 0.296875 11.7812 0.7125 11.9L2.375 12.4344L2.73125 13.325L1.9 14.8688C1.72187 15.225 1.78125 15.7 2.07812 15.9969L3.50312 17.4219C3.8 17.7188 4.275 17.7781 4.63125 17.6L6.175 16.7687L7.06563 17.125L7.6 18.8469C7.71875 19.2031 8.075 19.5 8.49062 19.5H10.5094C10.925 19.5 11.2812 19.2031 11.4 18.8469L11.9344 17.125L12.825 16.7687L14.3688 17.6C14.725 17.7781 15.2 17.7188 15.4969 17.4219L16.9219 15.9969C17.2188 15.7 17.2781 15.225 17.1 14.8688L16.2687 13.325L16.625 12.4344L18.3469 11.9C18.7031 11.7812 19 11.425 19 11.0094V8.99062C19 8.575 18.7031 8.15938 18.2875 8.04063ZM17.8125 10.8313L15.675 11.4844L15.6156 11.7812L15.0813 13.0281L14.9031 13.325L15.9719 15.2844L14.7844 16.4719L12.825 15.4031L12.5281 15.5813C12.1125 15.8188 11.6969 15.9969 11.2812 16.1156L10.9844 16.175L10.3313 18.3125H8.66875L8.01562 16.175L7.71875 16.1156L6.47188 15.5813L6.175 15.4031L4.21563 16.4719L3.02813 15.2844L4.09687 13.325L3.91875 13.0281C3.68125 12.6125 3.50312 12.1969 3.38438 11.7812L3.325 11.4844L1.1875 10.8313V9.16875L3.20625 8.575L3.325 8.27813C3.44375 7.80312 3.62188 7.3875 3.85938 6.97188L4.0375 6.675L3.02813 4.71563L4.21563 3.52813L6.11562 4.59687L6.4125 4.41875C6.82812 4.18125 7.24375 4.00312 7.71875 3.88438L8.01562 3.76562L8.66875 1.6875H10.3313L10.9844 3.76562L11.2812 3.88438C11.6969 4.00312 12.1125 4.18125 12.5281 4.41875L12.825 4.59687L14.7844 3.52813L15.9719 4.71563L14.9031 6.675L15.0813 6.97188C15.3188 7.3875 15.4969 7.80312 15.6156 8.21875L15.675 8.51562L17.8125 9.16875V10.8313Z" fill="white"/>
</svg>
