<svg width="19" height="16" viewBox="0 0 19 16" fill="none" xmlns="http://www.w3.org/2000/svg">
<path d="M10.2902 6.21847C10.2902 6.06097 10.3528 5.90992 10.4642 5.79856C10.5755 5.68719 10.7266 5.62462 10.8841 5.62462H15.239C15.3965 5.62462 15.5475 5.68719 15.6589 5.79856C15.7702 5.90992 15.8328 6.06097 15.8328 6.21847C15.8328 6.37597 15.7702 6.52702 15.6589 6.63839C15.5475 6.74975 15.3965 6.81232 15.239 6.81232H10.8841C10.7266 6.81232 10.5755 6.74975 10.4642 6.63839C10.3528 6.52702 10.2902 6.37597 10.2902 6.21847ZM10.8841 8.79182C10.7266 8.79182 10.5755 8.85438 10.4642 8.96575C10.3528 9.07712 10.2902 9.22817 10.2902 9.38566C10.2902 9.54316 10.3528 9.69421 10.4642 9.80558C10.5755 9.91695 10.7266 9.97951 10.8841 9.97951H15.239C15.3965 9.97951 15.5475 9.91695 15.6589 9.80558C15.7702 9.69421 15.8328 9.54316 15.8328 9.38566C15.8328 9.22817 15.7702 9.07712 15.6589 8.96575C15.5475 8.85438 15.3965 8.79182 15.239 8.79182H10.8841ZM7.32097 6.21847C7.32097 6.58597 7.17498 6.93841 6.91512 7.19827C6.65526 7.45813 6.30282 7.60412 5.93532 7.60412C5.56783 7.60412 5.21538 7.45813 4.95552 7.19827C4.69566 6.93841 4.54968 6.58597 4.54968 6.21847C4.54968 5.85097 4.69566 5.49853 4.95552 5.23867C5.21538 4.97881 5.56783 4.83282 5.93532 4.83282C6.30282 4.83282 6.65526 4.97881 6.91512 5.23867C7.17498 5.49853 7.32097 5.85097 7.32097 6.21847ZM3.95583 8.39592H7.91482C8.12482 8.39592 8.32621 8.47934 8.47471 8.62783C8.6232 8.77632 8.70662 8.97772 8.70662 9.18772V9.58362C8.70662 9.58362 8.31072 11.5631 5.93532 11.5631C3.55993 11.5631 3.16403 9.58362 3.16403 9.58362V9.18772C3.16403 8.97772 3.24745 8.77632 3.39594 8.62783C3.54443 8.47934 3.74583 8.39592 3.95583 8.39592ZM0 2.25948C0 1.68198 0.229409 1.12814 0.637759 0.71979C1.04611 0.31144 1.59995 0.0820312 2.17745 0.0820312H16.8226C17.4 0.0820312 17.9539 0.31144 18.3622 0.71979C18.7706 1.12814 19 1.68198 19 2.25948V13.7406C19 14.3181 18.7706 14.8719 18.3622 15.2802C17.9539 15.6886 17.4 15.918 16.8226 15.918H2.17824C1.60074 15.918 1.0469 15.6886 0.638551 15.2802C0.230201 14.8719 0.00079193 14.3181 0.00079193 13.7406V2.25948H0ZM2.17745 1.26973C1.63111 1.26973 1.1877 1.71314 1.1877 2.25948V13.7406C1.1877 14.2869 1.63111 14.7303 2.17745 14.7303H16.8226C17.3689 14.7303 17.8123 14.2869 17.8123 13.7406V2.25948C17.8123 1.71314 17.3689 1.26973 16.8226 1.26973H2.17824H2.17745Z" fill="white"/>
</svg>
