<svg width="25" height="25" viewBox="0 0 25 25" fill="none" xmlns="http://www.w3.org/2000/svg">
<path d="M24.01 6.85761V5.14321H22.209C22.0985 4.60662 21.8854 4.0964 21.5815 3.64053L22.8588 2.3633L21.6467 1.15122L20.3695 2.42845C19.9136 2.12458 19.4034 1.91153 18.8668 1.80098V0H17.1524V1.80098C16.6158 1.91153 16.1056 2.12458 15.6497 2.42845L14.3725 1.15122L13.1604 2.3633L14.4376 3.64053C14.1338 4.0964 13.9207 4.60662 13.8102 5.14321H12.0092V6.85761H13.8102C13.9207 7.3942 14.1338 7.90442 14.4376 8.36028L13.1604 9.63751L14.3725 10.8496L15.6497 9.57236C16.1056 9.87623 16.6158 10.0893 17.1524 10.1998V12.0008H18.8668V10.1998C19.4034 10.0893 19.9136 9.87623 20.3695 9.57236L21.6467 10.8496L22.8588 9.63751L21.5815 8.36028C21.8854 7.90442 22.0985 7.3942 22.209 6.85761H24.01ZM18.0096 8.57201C17.501 8.57201 17.0038 8.42119 16.5809 8.13862C16.158 7.85605 15.8284 7.45442 15.6337 6.98452C15.4391 6.51462 15.3882 5.99756 15.4874 5.49871C15.5866 4.99987 15.8315 4.54166 16.1912 4.18201C16.5508 3.82236 17.0091 3.57744 17.5079 3.47822C18.0067 3.37899 18.5238 3.42992 18.9937 3.62456C19.4636 3.81919 19.8652 4.1488 20.1478 4.5717C20.4304 4.9946 20.5812 5.49179 20.5812 6.00041C20.5805 6.68223 20.3094 7.33593 19.8272 7.81805C19.3451 8.30018 18.6914 8.57133 18.0096 8.57201Z" fill="#444444"/>
<path d="M19.7232 24.0016H19.5775C2.73346 23.033 0.341873 8.8206 0.00756435 4.48316C-0.0446853 3.80319 0.175304 3.1303 0.619145 2.61251C1.06299 2.09473 1.69433 1.77444 2.3743 1.72212C2.4423 1.71697 2.51059 1.7144 2.57917 1.7144H7.09662C7.43998 1.71407 7.77552 1.81685 8.0598 2.00942C8.34407 2.20199 8.56397 2.47549 8.69101 2.79448L9.99396 6.00041C10.1194 6.31204 10.1505 6.65366 10.0835 6.98284C10.0164 7.31201 9.85415 7.61424 9.61679 7.85196L7.79095 9.69495C8.07499 11.3162 8.85078 12.8109 10.0131 13.9762C11.1754 15.1416 12.668 15.9214 14.2885 16.2097L16.1487 14.3667C16.39 14.132 16.695 13.9735 17.0258 13.911C17.3566 13.8485 17.6985 13.8847 18.0088 14.0152L21.2404 15.3096C21.5546 15.4407 21.8227 15.6623 22.0104 15.9462C22.1982 16.2302 22.2972 16.5636 22.2948 16.904V21.43C22.2948 22.1121 22.0239 22.7662 21.5416 23.2484C21.0593 23.7307 20.4052 24.0016 19.7232 24.0016ZM2.57917 3.42881C2.4666 3.42847 2.35506 3.4503 2.25093 3.49307C2.1468 3.53584 2.05212 3.59869 1.97228 3.67805C1.89244 3.75741 1.82902 3.85172 1.78563 3.95559C1.74224 4.05946 1.71973 4.17087 1.71939 4.28343C1.71939 4.30744 1.71939 4.33058 1.72197 4.35458C2.11628 9.42921 4.64502 21.43 19.6718 22.2872C19.8986 22.3008 20.1216 22.2238 20.2917 22.073C20.4618 21.9222 20.565 21.71 20.5787 21.4832L20.5804 21.43V16.904L17.3487 15.6096L14.8886 18.0527L14.4771 18.0012C7.01947 17.0669 6.00797 9.60923 6.00797 9.53208L5.95654 9.12062L8.39099 6.66045L7.10519 3.42881H2.57917Z" fill="#444444"/>
</svg>
