<svg width="22" height="20" viewBox="0 0 22 20" fill="none" xmlns="http://www.w3.org/2000/svg">
<path d="M13.4444 19.7781H13.4188C13.1577 19.772 12.9054 19.6826 12.6987 19.523C12.492 19.3633 12.3418 19.1418 12.2699 18.8907L8.39667 5.34361L6.03167 11.6503C5.94463 11.8832 5.7886 12.0841 5.5844 12.2261C5.38021 12.368 5.13757 12.4443 4.88889 12.4447H0V10.0003H4.04189L7.41155 1.01572C7.50177 0.774827 7.6657 0.568536 7.87999 0.426229C8.09428 0.283922 8.34801 0.212855 8.60504 0.223147C8.86207 0.233439 9.1093 0.324566 9.31153 0.483551C9.51375 0.642536 9.66066 0.861273 9.73133 1.10861L13.5337 14.4211L15.9524 7.16961C16.0333 6.92624 16.1888 6.7145 16.3967 6.56444C16.6047 6.41439 16.8547 6.33362 17.1111 6.33361H22V8.77806H17.9911L14.6031 18.9421C14.5224 19.1855 14.367 19.3974 14.159 19.5475C13.951 19.6975 13.7009 19.7782 13.4444 19.7781Z" fill="#03669A"/>
</svg>
